SplineFontDB: 3.0
FontName: AyannaNarrowTamil-ExtraBold
FullName: AyannaNarrow
FamilyName: ayanna-tamil
OS2FamilyName: "ayanna-tamil tamil"
OS2StyleName: "regular"
Weight: Regular
Copyright: Licensed under the SIL Open Font License 1.1 (see file OFL.txt)
Version: 2.5
ItalicAngle: 0
UnderlinePosition: 0
UnderlineWidth: 0
Ascent: 800
Descent: 200
InvalidEm: 0
UFOAscent: 800
UFODescent: -200
LayerCount: 2
Layer: 0 0 "Back" 1
Layer: 1 0 "Fore" 0
FSType: 0
OS2Version: 0
OS2_WeightWidthSlopeOnly: 0
OS2_UseTypoMetrics: 0
CreationTime: 1453375929
ModificationTime: 1453379954
PfmFamily: 16
TTFWeight: 400
TTFWidth: 5
LineGap: 0
VLineGap: 0
Panose: 2 0 6 0 0 0 0 0 0 0
OS2TypoAscent: 800
OS2TypoAOffset: 0
OS2TypoDescent: -200
OS2TypoDOffset: 0
OS2TypoLinegap: 0
OS2WinAscent: 954
OS2WinAOffset: 0
OS2WinDescent: 386
OS2WinDOffset: 0
HheadAscent: 954
HheadAOffset: 0
HheadDescent: -386
HheadDOffset: 0
OS2SubXSize: 841
OS2SubYSize: 780
OS2SubXOff: 0
OS2SubYOff: 240
OS2SupXSize: 841
OS2SupYSize: 780
OS2SupXOff: 0
OS2SupYOff: 601
OS2StrikeYSize: 60
OS2StrikeYPos: 300
OS2CapHeight: 700
OS2XHeight: 500
OS2Vendor: 'ACE '
OS2CodePages: 00000001.00000000
OS2UnicodeRanges: 80108003.00002042.00000000.00000000
Lookup: 260 0 0 "blwmBelowBaseMarkinTamillookup1" { "blwmBelowBaseMarkinTamillookup1 subtable"  } ['blwm' ('taml' <'dflt' > 'DFLT' <'dflt' > ) ]
Lookup: 260 0 0 "abvmAboveBaseMarkinTamillookup0" { "abvmAboveBaseMarkinTamillookup0 subtable"  } ['abvm' ('taml' <'dflt' > 'DFLT' <'dflt' > ) ]
DEI: 91125
LangName: 1033 "Licensed under the SIL Open Font License 1.1 (see file OFL.txt)" "" "" "" "" "Version 2.5.0" "" "" "" "" "" "" "" "" "" "" "ayanna-tamil" "regular"
PickledDataWithLists: "(dp1
S'public.glyphOrder'
p2
(lp3
S'tml_A'
p4
aS'tml_Aa'
p5
aS'tml_I'
p6
aS'tml_Ii'
p7
aS'tml_U'
p8
aS'tml_Uu'
p9
aS'tml_E'
p10
aS'tml_Ee'
p11
aS'tml_Ai'
p12
aS'tml_O'
p13
aS'tml_Oo'
p14
aS'tml_Au'
p15
aS'tml_Ka'
p16
aS'tml_Nga'
p17
aS'tml_Ca'
p18
aS'tml_Ja'
p19
aS'tml_Nya'
p20
aS'tml_Tta'
p21
aS'tml_Nna'

StartChar: tml_A
Encoding: 1 2949 1
GlifName: tml_A_
Width: 863
VWidth: 0
GlyphClass: 2
Flags: W
LayerCount: 2
Back
Fore
SplineSet
771 -85 m 257
 771 559 l 257
 813 559 l 257
 813 -85 l 257
 771 -85 l 257
335 291 m 256
 389 291 420 333 420 384 c 256
 420 439 375 469 332 469 c 256
 275 469 246 426 246 385 c 257
 219 389 l 257
 219 455 264 511 335 511 c 256
 399 511 462 464 462 381 c 256
 462 304 412 249 334 249 c 256
 258 249 203 300 203 385 c 256
 203 489 286 573 417 573 c 256
 593 573 675 420 675 256 c 256
 675 29 519 -104 302 -104 c 256
 138 -104 42 -28 42 77 c 256
 42 149 88 221 226 221 c 258
 799 221 l 257
 799 179 l 257
 233 179 l 258
 139 179 84 150 84 79 c 256
 84 -7 169 -62 296 -62 c 256
 503 -62 630 74 630 256 c 256
 630 371 580 531 415 531 c 256
 311 531 246 468 246 385 c 256
 246 316 293 291 335 291 c 256
  PathStart: -2
EndSplineSet
EndChar

StartChar: tml_Aa
Encoding: 2 2950 2
GlifName: tml_A_a
Width: 972
VWidth: 0
GlyphClass: 2
Flags: W
LayerCount: 2
Back
Fore
SplineSet
771 -85 m 257
 771 559 l 257
 813 559 l 257
 813 -85 l 257
 771 -85 l 257
335 291 m 256
 389 291 420 333 420 384 c 256
 420 439 375 469 332 469 c 256
 275 469 246 426 246 385 c 257
 219 389 l 257
 219 455 264 511 335 511 c 256
 399 511 462 464 462 381 c 256
 462 304 412 249 334 249 c 256
 258 249 203 300 203 385 c 256
 203 489 286 573 417 573 c 256
 593 573 675 420 675 256 c 256
 675 29 519 -104 302 -104 c 256
 138 -104 42 -28 42 77 c 256
 42 149 88 221 226 221 c 258
 799 221 l 257
 799 179 l 257
 233 179 l 258
 139 179 84 150 84 79 c 256
 84 -7 169 -62 296 -62 c 256
 503 -62 630 74 630 256 c 256
 630 371 580 531 415 531 c 256
 311 531 246 468 246 385 c 256
 246 316 293 291 335 291 c 256
  PathStart: -2
528 -191 m 256
 528 -266 605 -307 709 -307 c 256
 812 -307 930 -234 930 -98 c 256
 930 -49 916 17 861 17 c 256
 822 17 813 -15 813 -42 c 257
 779 -21 l 257
 782 20 811 60 861 59 c 256
 922 58 972 9 972 -98 c 256
 972 -253 844 -349 709 -349 c 256
 580 -349 488 -289 488 -192 c 256
 488 -108 552 -68 634 -68 c 257
 634 -110 l 257
 562 -110 528 -136 528 -191 c 256
  PathStart: -2
EndSplineSet
PickledDataWithLists: "(dp1
S'com.typemytype.robofont.layerData'
p2
(dp3
S'Light Jan 19 16, 17:06'
p4
(dp5
S'name'
p6
S'tml_Aa'
p7
sS'lib'
p8
(dp9
sS'unicodes'
p10
(lp11
sS'width'
p12
I1022
sS'contours'
p13
(lp14
(dp15
S'points'
p16
(lp17
(dp18
S'segmentType'
p19
S'line'
p20
sS'x'
I759
sS'smooth'
p21
I00
sS'y'
I-85
sa(dp22
g19
S'line'
p23
sS'x'
I759
sg21
I00
sS'y'
I559
sa(dp24
g19
S'line'
p25
sS'x'
I801
sg21
I00
sS'y'
I559
sa(dp26
g19
S'line'
p27
sS'x'
I801
sg21
I00
sS'y'
I-85
sasa(dp28
g16
(lp29
(dp30
S'y'
I316
sS'x'
I234
sg21
I00
sa(dp31
S'y'
I291
sS'x'
I281
sg21
I00
sa(dp32
g19
S'curve'
p33
sS'x'
I323
sg21
I01
sS'y'
I291
sa(dp34
S'y'
I291
sS'x'
I377
sg21
I00
sa(dp35
S'y'
I333
sS'x'
I408
sg21
I00
sa(dp36
g19
S'curve'
p37
sS'x'
I408
sg21
I01
sS'y'
I384
sa(dp38
S'y'
I439
sS'x'
I408
sg21
I00
sa(dp39
S'y'
I469
sS'x'
I363
sg21
I00
sa(dp40
g19
S'curve'
p41
sS'x'
I320
sg21
I01
sS'y'
I469
sa(dp42
S'y'
I469
sS'x'
I263
sg21
I00
sa(dp43
S'y'
I426
sS'x'
I234
sg21
I00
sa(dp44
g19
S'curve'
p45
sS'x'
I234
sg21
I00
sS'y'
I385
sa(dp46
g19
S'line'
p47
sS'x'
I207
sg21
I00
sS'y'
I389
sa(dp48
S'y'
I455
sS'x'
I207
sg21
I00
sa(dp49
S'y'
I511
sS'x'
I252
sg21
I00
sa(dp50
g19
S'curve'
p51
sS'x'
I323
sg21
I01
sS'y'
I511
sa(dp52
S'y'
I511
sS'x'
I387
sg21
I00
sa(dp53
S'y'
I464
sS'x'
I450
sg21
I00
sa(dp54
g19
S'curve'
p55
sS'x'
I450
sg21
I01
sS'y'
I381
sa(dp56
S'y'
I304
sS'x'
I450
sg21
I00
sa(dp57
S'y'
I249
sS'x'
I400
sg21
I00
sa(dp58
g19
S'curve'
p59
sS'x'
I322
sg21
I01
sS'y'
I249
sa(dp60
S'y'
I249
sS'x'
I246
sg21
I00
sa(dp61
S'y'
I300
sS'x'
I191
sg21
I00
sa(dp62
g19
S'curve'
p63
sS'x'
I191
sg21
I01
sS'y'
I385
sa(dp64
S'y'
I489
sS'x'
I191
sg21
I00
sa(dp65
S'y'
I573
sS'x'
I274
sg21
I00
sa(dp66
g19
S'curve'
p67
sS'x'
I405
sg21
I01
sS'y'
I573
sa(dp68
S'y'
I573
sS'x'
I581
sg21
I00
sa(dp69
S'y'
I420
sS'x'
I663
sg21
I00
sa(dp70
g19
S'curve'
p71
sS'x'
I663
sg21
I01
sS'y'
I256
sa(dp72
S'y'
I29
sS'x'
I663
sg21
I00
sa(dp73
S'y'
I-104
sS'x'
I507
sg21
I00
sa(dp74
g19
S'curve'
p75
sS'x'
I290
sg21
I01
sS'y'
I-104
sa(dp76
S'y'
I-104
sS'x'
I126
sg21
I00
sa(dp77
S'y'
I-28
sS'x'
I30
sg21
I00
sa(dp78
g19
S'curve'
p79
sS'x'
I30
sg21
I01
sS'y'
I77
sa(dp80
S'y'
I149
sS'x'
I30
sg21
I00
sa(dp81
S'y'
I221
sS'x'
I76
sg21
I00
sa(dp82
g19
S'curve'
p83
sS'x'
I214
sg21
I01
sS'y'
I221
sa(dp84
g19
S'line'
p85
sS'x'
I787
sg21
I00
sS'y'
I221
sa(dp86
g19
S'line'
p87
sS'x'
I787
sg21
I00
sS'y'
I179
sa(dp88
g19
S'line'
p89
sS'x'
I221
sg21
I01
sS'y'
I179
sa(dp90
S'y'
I179
sS'x'
I127
sg21
I00
sa(dp91
S'y'
I150
sS'x'
I72
sg21
I00
sa(dp92
g19
S'curve'
p93
sS'x'
I72
sg21
I01
sS'y'
I79
sa(dp94
S'y'
I-7
sS'x'
I72
sg21
I00
sa(dp95
S'y'
I-62
sS'x'
I157
sg21
I00
sa(dp96
g19
S'curve'
p97
sS'x'
I284
sg21
I01
sS'y'
I-62
sa(dp98
S'y'
I-62
sS'x'
I491
sg21
I00
sa(dp99
S'y'
I74
sS'x'
I618
sg21
I00
sa(dp100
g19
S'curve'
p101
sS'x'
I618
sg21
I01
sS'y'
I256
sa(dp102
S'y'
I371
sS'x'
I618
sg21
I00
sa(dp103
S'y'
I531
sS'x'
I568
sg21
I00
sa(dp104
g19
S'curve'
p105
sS'x'
I403
sg21
I01
sS'y'
I531
sa(dp106
S'y'
I531
sS'x'
I299
sg21
I00
sa(dp107
S'y'
I468
sS'x'
I234
sg21
I00
sa(dp108
g19
S'curve'
p109
sS'x'
I234
sg21
I01
sS'y'
I385
sasa(dp110
g16
(lp111
(dp112
S'y'
I-110
sS'x'
I530
sg21
I00
sa(dp113
S'y'
I-132
sS'x'
I492
sg21
I00
sa(dp114
g19
S'curve'
p115
sS'x'
I492
sg21
I01
sS'y'
I-184
sa(dp116
S'y'
I-262
sS'x'
I492
sg21
I00
sa(dp117
S'y'
I-307
sS'x'
I583
sg21
I00
sa(dp118
g19
S'curve'
p119
sS'x'
I687
sg21
I01
sS'y'
I-307
sa(dp120
S'y'
I-307
sS'x'
I820
sg21
I00
sa(dp121
S'y'
I-214
sS'x'
I928
sg21
I00
sa(dp122
g19
S'curve'
p123
sS'x'
I928
sg21
I01
sS'y'
I-98
sa(dp124
S'y'
I-49
sS'x'
I928
sg21
I00
sa(dp125
S'y'
I17
sS'x'
I920
sg21
I00
sa(dp126
g19
S'curve'
p127
sS'x'
I858
sg21
I01
sS'y'
I17
sa(dp128
S'y'
I17
sS'x'
I807
sg21
I00
sa(dp129
S'y'
I-25
sS'x'
I801
sg21
I00
sa(dp130
g19
S'curve'
p131
sS'x'
I801
sg21
I00
sS'y'
I-42
sa(dp132
g19
S'line'
p133
sS'x'
I767
sg21
I00
sS'y'
I-21
sa(dp134
S'y'
I20
sS'x'
I770
sg21
I00
sa(dp135
S'y'
I60
sS'x'
I802
sg21
I00
sa(dp136
g19
S'curve'
p137
sS'x'
I858
sg21
I01
sS'y'
I59
sa(dp138
S'y'
I58
sS'x'
I925
sg21
I00
sa(dp139
S'y'
I9
sS'x'
I970
sg21
I00
sa(dp140
g19
S'curve'
p141
sS'x'
I970
sg21
I01
sS'y'
I-98
sa(dp142
S'y'
I-237
sS'x'
I970
sg21
I00
sa(dp143
S'y'
I-349
sS'x'
I852
sg21
I00
sa(dp144
g19
S'curve'
p145
sS'x'
I697
sg21
I01
sS'y'
I-349
sa(dp146
S'y'
I-349
sS'x'
I568
sg21
I00
sa(dp147
S'y'
I-282
sS'x'
I452
sg21
I00
sa(dp148
g19
S'curve'
p149
sS'x'
I452
sg21
I01
sS'y'
I-185
sa(dp150
S'y'
I-121
sS'x'
I452
sg21
I00
sa(dp151
S'y'
I-68
sS'x'
I496
sg21
I00
sa(dp152
g19
S'curve'
p153
sS'x'
I602
sg21
I00
sS'y'
I-68
sa(dp154
g19
S'line'
p155
sS'x'
I602
sg21
I00
sS'y'
I-110
sasa(dp156
g16
(lp157
(dp158
S'y'
I-161
sS'x'
I570
sg21
I00
sa(dp159
S'y'
I-163
sS'x'
I550
sg21
I00
sa(dp160
g19
S'curve'
p161
sS'x'
I550
sg21
I01
sS'y'
I-186
sa(dp162
S'y'
I-222
sS'x'
I550
sg21
I00
sa(dp163
S'y'
I-258
sS'x'
I610
sg21
I00
sa(dp164
g19
S'curve'
p165
sS'x'
I696
sg21
I01
sS'y'
I-258
sa(dp166
S'y'
I-258
sS'x'
I783
sg21
I00
sa(dp167
S'y'
I-208
sS'x'
I874
sg21
I00
sa(dp168
g19
S'curve'
p169
sS'x'
I874
sg21
I01
sS'y'
I-95
sa(dp170
S'y'
I-44
sS'x'
I874
sg21
I00
sa(dp171
S'y'
I-22
sS'x'
I847
sg21
I00
sa(dp172
g19
S'curve'
p173
sS'x'
I825
sg21
I01
sS'y'
I-22
sa(dp174
S'y'
I-22
sS'x'
I812
sg21
I00
sa(dp175
S'y'
I-30
sS'x'
I801
sg21
I00
sa(dp176
g19
S'curve'
p177
sS'x'
I801
sg21
I00
sS'y'
I-47
sa(dp178
g19
S'line'
p179
sS'x'
I745
sg21
I00
sS'y'
I5
sa(dp180
S'y'
I43
sS'x'
I773
sg21
I00
sa(dp181
S'y'
I59
sS'x'
I805
sg21
I00
sa(dp182
g19
S'curve'
p183
sS'x'
I836
sg21
I01
sS'y'
I58
sa(dp184
S'y'
I58
sS'x'
I903
sg21
I00
sa(dp185
S'y'
I9
sS'x'
I970
sg21
I00
sa(dp186
g19
S'curve'
p187
sS'x'
I970
sg21
I01
sS'y'
I-98
sa(dp188
S'y'
I-246
sS'x'
I970
sg21
I00
sa(dp189
S'y'
I-350
sS'x'
I844
sg21
I00
sa(dp190
g19
S'curve'
p191
sS'x'
I696
sg21
I01
sS'y'
I-350
sa(dp192
S'y'
I-350
sS'x'
I562
sg21
I00
sa(dp193
S'y'
I-281
sS'x'
I452
sg21
I00
sa(dp194
g19
S'curve'
p195
sS'x'
I452
sg21
I01
sS'y'
I-186
sa(dp196
S'y'
I-118
sS'x'
I452
sg21
I00
sa(dp197
S'y'
I-69
sS'x'
I501
sg21
I00
sa(dp198
g19
S'curve'
p199
sS'x'
I602
sg21
I00
sS'y'
I-69
sa(dp200
g19
S'line'
p201
sS'x'
I602
sg21
I00
sS'y'
I-161
sasasS'components'
p202
(lp203
sS'anchors'
p204
(lp205
sss."
EndChar

StartChar: tml_Above
Encoding: 3 3064 3
GlifName: tml_A_bove
Width: 1166
VWidth: 0
GlyphClass: 2
Flags: W
LayerCount: 2
Back
Fore
SplineSet
386 755 m 256
 590 755 687 537 687 346 c 256
 687 63 602 -32 510 -32 c 256
 444 -32 388 7 388 126 c 256
 388 275 490 402 623 402 c 256
 745 402 810 309 806 198 c 256
 804 131 776 70 756 42 c 257
 1041 42 l 258
 1077 42 1089 49 1089 68 c 256
 1089 82 1083 88 1043 112 c 258
 920 189 l 257
 852 227 827 270 827 313 c 256
 827 393 880 420 930 420 c 256
 1001 420 1046 359 1021 250 c 258
 930 -148 l 257
 887 -148 l 257
 973 230 l 258
 1000 333 974 378 928 378 c 256
 888 378 869 348 869 317 c 256
 869 291 881 264 910 246 c 258
 1049 158 l 258
 1112 121 1126 106 1126 77 c 256
 1126 32 1106 0 1045 0 c 258
 697 0 l 257
 697 31 l 257
 738 86 764 136 764 196 c 256
 764 300 704 360 624 360 c 256
 508 360 430 240 430 126 c 256
 430 51 456 10 505 10 c 256
 585 10 645 111 645 354 c 256
 645 507 558 710 382 710 c 256
 238 710 87 563 87 313 c 256
 87 180 124 12 212 12 c 256
 285 12 299 115 299 180 c 256
 299 265 267 357 190 357 c 256
 118 357 79 250 109 137 c 257
 69 175 l 257
 53 310 104 399 190 399 c 256
 279 399 339 311 339 187 c 256
 339 83 313 -30 212 -30 c 256
 70 -30 42 191 42 320 c 256
 42 570 185 755 386 755 c 256
  PathStart: -2
EndSplineSet
PickledDataWithLists: "(dp1
S'com.typemytype.robofont.guides'
p2
(lp3
(dp4
S'y'
I755
sS'x'
I-206
sS'angle'
p5
I0
sS'isGlobal'
p6
I00
sasS'com.typemytype.robofont.layerData'
p7
(dp8
S'Light Jan 21 16, 04:53'
p9
(dp10
S'name'
p11
S'tml_Above'
p12
sS'lib'
p13
(dp14
sS'unicodes'
p15
(lp16
sS'width'
p17
I1144
sS'contours'
p18
(lp19
(dp20
S'points'
p21
(lp22
(dp23
S'y'
I579
sS'x'
I35
sS'smooth'
p24
I00
sa(dp25
S'y'
I756
sS'x'
I193
sg24
I00
sa(dp26
S'segmentType'
p27
S'curve'
p28
sS'x'
I378
sg24
I01
sS'y'
I756
sa(dp29
S'y'
I756
sS'x'
I561
sg24
I00
sa(dp30
S'y'
I586
sS'x'
I681
sg24
I00
sa(dp31
g27
S'curve'
p32
sS'x'
I681
sg24
I01
sS'y'
I339
sa(dp33
S'y'
I140
sS'x'
I681
sg24
I00
sa(dp34
S'y'
I-27
sS'x'
I624
sg24
I00
sa(dp35
g27
S'curve'
p36
sS'x'
I506
sg24
I01
sS'y'
I-27
sa(dp37
S'y'
I-27
sS'x'
I425
sg24
I00
sa(dp38
S'y'
I20
sS'x'
I374
sg24
I00
sa(dp39
g27
S'curve'
p40
sS'x'
I374
sg24
I01
sS'y'
I110
sa(dp41
S'y'
I260
sS'x'
I374
sg24
I00
sa(dp42
S'y'
I404
sS'x'
I465
sg24
I00
sa(dp43
g27
S'curve'
p44
sS'x'
I616
sg24
I01
sS'y'
I404
sa(dp45
S'y'
I404
sS'x'
I719
sg24
I00
sa(dp46
S'y'
I328
sS'x'
I820
sg24
I00
sa(dp47
g27
S'curve'
p48
sS'x'
I820
sg24
I01
sS'y'
I190
sa(dp49
S'y'
I157
sS'x'
I820
sg24
I00
sa(dp50
S'y'
I125
sS'x'
I811
sg24
I00
sa(dp51
g27
S'curve'
p52
sS'x'
I797
sg24
I00
sS'y'
I97
sa(dp53
g27
S'line'
p54
sS'x'
I1069
sg24
I01
sS'y'
I97
sa(dp55
S'y'
I97
sS'x'
I1073
sg24
I00
sa(dp56
S'y'
I100
sS'x'
I1080
sg24
I00
sa(dp57
g27
S'curve'
p58
sS'x'
I1080
sg24
I01
sS'y'
I107
sa(dp59
S'y'
I114
sS'x'
I1080
sg24
I00
sa(dp60
S'y'
I118
sS'x'
I1075
sg24
I00
sa(dp61
g27
S'curve'
p62
sS'x'
I1070
sg24
I01
sS'y'
I121
sa(dp63
g27
S'line'
p64
sS'x'
I902
sg24
I01
sS'y'
I228
sa(dp65
S'y'
I253
sS'x'
I862
sg24
I00
sa(dp66
S'y'
I288
sS'x'
I838
sg24
I00
sa(dp67
g27
S'curve'
p68
sS'x'
I839
sg24
I01
sS'y'
I335
sa(dp69
S'y'
I425
sS'x'
I840
sg24
I00
sa(dp70
S'y'
I461
sS'x'
I910
sg24
I00
sa(dp71
g27
S'curve'
p72
sS'x'
I964
sg24
I01
sS'y'
I461
sa(dp73
S'y'
I461
sS'x'
I1063
sg24
I00
sa(dp74
S'y'
I376
sS'x'
I1097
sg24
I00
sa(dp75
g27
S'curve'
p76
sS'x'
I1079
sg24
I01
sS'y'
I296
sa(dp77
g27
S'line'
p78
sS'x'
I981
sg24
I00
sS'y'
I-148
sa(dp79
g27
S'line'
p80
sS'x'
I879
sg24
I00
sS'y'
I-148
sa(dp81
g27
S'line'
p82
sS'x'
I979
sg24
I01
sS'y'
I300
sa(dp83
S'y'
I309
sS'x'
I981
sg24
I00
sa(dp84
S'y'
I363
sS'x'
I993
sg24
I00
sa(dp85
g27
S'curve'
p86
sS'x'
I962
sg24
I01
sS'y'
I363
sa(dp87
S'y'
I363
sS'x'
I944
sg24
I00
sa(dp88
S'y'
I351
sS'x'
I937
sg24
I00
sa(dp89
g27
S'curve'
p90
sS'x'
I937
sg24
I01
sS'y'
I340
sa(dp91
S'y'
I325
sS'x'
I937
sg24
I00
sa(dp92
S'y'
I319
sS'x'
I944
sg24
I00
sa(dp93
g27
S'curve'
p94
sS'x'
I963
sg24
I00
sS'y'
I306
sa(dp95
g27
S'line'
p96
sS'x'
I1125
sg24
I00
sS'y'
I198
sa(dp97
S'y'
I167
sS'x'
I1177
sg24
I00
sa(dp98
S'y'
I131
sS'x'
I1180
sg24
I00
sa(dp99
g27
S'curve'
p100
sS'x'
I1180
sg24
I01
sS'y'
I103
sa(dp101
S'y'
I33
sS'x'
I1180
sg24
I00
sa(dp102
S'y'
I0
sS'x'
I1127
sg24
I00
sa(dp103
g27
S'curve'
p104
sS'x'
I1069
sg24
I01
sS'y'
I0
sa(dp105
g27
S'line'
p106
sS'x'
I677
sg24
I00
sS'y'
I0
sa(dp107
g27
S'line'
p108
sS'x'
I677
sg24
I00
sS'y'
I78
sa(dp109
S'y'
I99
sS'x'
I701
sg24
I00
sa(dp110
S'y'
I138
sS'x'
I726
sg24
I00
sa(dp111
g27
S'curve'
p112
sS'x'
I726
sg24
I01
sS'y'
I186
sa(dp113
S'y'
I259
sS'x'
I726
sg24
I00
sa(dp114
S'y'
I306
sS'x'
I676
sg24
I00
sa(dp115
g27
S'curve'
p116
sS'x'
I606
sg24
I01
sS'y'
I306
sa(dp117
S'y'
I306
sS'x'
I512
sg24
I00
sa(dp118
S'y'
I181
sS'x'
I470
sg24
I00
sa(dp119
g27
S'curve'
p120
sS'x'
I470
sg24
I01
sS'y'
I116
sa(dp121
S'y'
I93
sS'x'
I470
sg24
I00
sa(dp122
S'y'
I71
sS'x'
I476
sg24
I00
sa(dp123
g27
S'curve'
p124
sS'x'
I500
sg24
I01
sS'y'
I71
sa(dp125
S'y'
I71
sS'x'
I554
sg24
I00
sa(dp126
S'y'
I228
sS'x'
I578
sg24
I00
sa(dp127
g27
S'curve'
p128
sS'x'
I578
sg24
I01
sS'y'
I330
sa(dp129
S'y'
I482
sS'x'
I578
sg24
I00
sa(dp130
S'y'
I648
sS'x'
I508
sg24
I00
sa(dp131
g27
S'curve'
p132
sS'x'
I378
sg24
I01
sS'y'
I648
sa(dp133
S'y'
I648
sS'x'
I193
sg24
I00
sa(dp134
S'y'
I389
sS'x'
I117
sg24
I00
sa(dp135
g27
S'curve'
p136
sS'x'
I143
sg24
I01
sS'y'
I180
sa(dp137
S'y'
I115
sS'x'
I151
sg24
I00
sa(dp138
S'y'
I69
sS'x'
I170
sg24
I00
sa(dp139
g27
S'curve'
p140
sS'x'
I201
sg24
I01
sS'y'
I69
sa(dp141
S'y'
I69
sS'x'
I243
sg24
I00
sa(dp142
S'y'
I125
sS'x'
I252
sg24
I00
sa(dp143
g27
S'curve'
p144
sS'x'
I252
sg24
I01
sS'y'
I183
sa(dp145
S'y'
I251
sS'x'
I252
sg24
I00
sa(dp146
S'y'
I302
sS'x'
I232
sg24
I00
sa(dp147
g27
S'curve'
p148
sS'x'
I196
sg24
I01
sS'y'
I302
sa(dp149
S'y'
I302
sS'x'
I163
sg24
I00
sa(dp150
S'y'
I260
sS'x'
I143
sg24
I00
sa(dp151
g27
S'curve'
p152
sS'x'
I143
sg24
I00
sS'y'
I181
sa(dp153
g27
S'line'
p154
sS'x'
I74
sg24
I00
sS'y'
I232
sa(dp155
S'y'
I294
sS'x'
I74
sg24
I00
sa(dp156
S'y'
I402
sS'x'
I110
sg24
I00
sa(dp157
g27
S'curve'
p158
sS'x'
I206
sg24
I01
sS'y'
I402
sa(dp159
S'y'
I402
sS'x'
I301
sg24
I00
sa(dp160
S'y'
I305
sS'x'
I350
sg24
I00
sa(dp161
g27
S'curve'
p162
sS'x'
I350
sg24
I01
sS'y'
I175
sa(dp163
S'y'
I50
sS'x'
I350
sg24
I00
sa(dp164
S'y'
I-29
sS'x'
I293
sg24
I00
sa(dp165
g27
S'curve'
p166
sS'x'
I206
sg24
I01
sS'y'
I-29
sa(dp167
S'y'
I-29
sS'x'
I78
sg24
I00
sa(dp168
S'y'
I127
sS'x'
I35
sg24
I00
sa(dp169
g27
S'curve'
p170
sS'x'
I35
sg24
I01
sS'y'
I297
sasasS'components'
p171
(lp172
sS'anchors'
p173
(lp174
sss."
EndChar

StartChar: tml_Ai
Encoding: 4 2960 4
GlifName: tml_A_i
Width: 780
VWidth: 0
GlyphClass: 2
Flags: HW
LayerCount: 2
Back
Fore
SplineSet
45 21 m 256
 45 197 225 199 380 218 c 256
 551 239 696 256 696 402 c 256
 696 482 659 539 567 539 c 256
 461 539 425 431 426 299 c 257
 384 299 l 257
 387 469 436 581 567 581 c 256
 675 581 738 509 738 402 c 256
 738 202 535 191 381 174 c 256
 190 153 87 143 87 21 c 256
 87 -54 149 -113 235 -113 c 256
 319 -113 382 -78 382 74 c 257
 425 74 l 257
 425 -54 469 -112 558 -111 c 256
 655 -110 699 -22 667 75 c 257
 709 81 l 257
 730 12 731 -153 554 -153 c 256
 430 -153 402 -57 402 -57 c 256
 402 -57 382 -155 229 -155 c 256
 138 -155 45 -99 45 21 c 256
  PathStart: -2
384 299 m 257
 386 432 352 542 240 542 c 256
 149 542 84 489 84 370 c 256
 84 305 120 274 164 274 c 256
 212 274 244 318 244 362 c 256
 244 417 215 455 171 455 c 256
 106 455 84 405 84 369 c 257
 53 380 l 257
 53 453 114 495 169 495 c 256
 211 495 284 467 284 362 c 256
 284 273 226 234 164 234 c 256
 83 234 41 294 42 384 c 256
 43 513 128 583 243 582 c 256
 403 581 425 426 426 299 c 257
 384 299 l 257
EndSplineSet
EndChar

StartChar: tml_Anusvara
Encoding: 5 2946 5
GlifName: tml_A_nusvara
Width: 1
VWidth: 0
GlyphClass: 2
Flags: W
LayerCount: 2
Back
Fore
SplineSet
-105 702 m 256
 -105 760 -59 807 0 807 c 256
 59 807 106 760 106 702 c 256
 106 644 59 596 0 596 c 256
 -59 596 -105 644 -105 702 c 256
  PathStart: -2
67 702 m 256
 67 740 36 767 -2 767 c 256
 -39 767 -67 740 -67 702 c 256
 -67 665 -39 635 -2 635 c 256
 36 635 67 665 67 702 c 256
  PathStart: -2
EndSplineSet
PickledDataWithLists: "(dp1
S'com.schriftgestaltung.Glyphs.ColorIndex'
p2
I0
sS'public.markColor'
p3
S'0.85,0.26,0.06,1'
p4
s."
EndChar

StartChar: tml_CU
Encoding: 8 -1 8
GlifName: tml_C_U_
Width: 650
VWidth: 0
GlyphClass: 2
Flags: HW
LayerCount: 2
Back
Fore
SplineSet
524 307 m 257
 524 0 l 257
 482 0 l 257
 482 307 l 257
 524 307 l 257
608 341 m 257
 608 299 l 257
 512 299 l 257
 512 341 l 257
 608 341 l 257
EndSplineSet
Refer: 10 2970 N 1 0 0 1 0.000189808 0 2
EndChar

StartChar: tml_CUu
Encoding: 9 -1 9
GlifName: tml_C_U_u
Width: 906
VWidth: 0
GlyphClass: 2
Flags: HW
LayerCount: 2
Back
Fore
SplineSet
509 -274 m 256
 224 -273 43 -94 42 217 c 256
 41 358 85 482 146 564 c 257
 184 545 l 257
 130 474 85 352 85 218 c 256
 85 -30 220 -232 509 -232 c 256
 737 -232 844 -88 844 25 c 256
 844 92 820 137 773 137 c 256
 706 137 710 49 710 25 c 257
 677 55 l 257
 677 118 709 179 773 179 c 256
 842 179 886 121 886 22 c 256
 886 -126 749 -275 509 -274 c 256
710 307 m 257
 710 0 l 257
 668 0 l 257
 668 307 l 257
 710 307 l 257
794 341 m 257
 794 299 l 257
 698 299 l 257
 698 341 l 257
 794 341 l 257
EndSplineSet
Refer: 10 2970 N 1 0 0 1 186 0 2
EndChar

StartChar: tml_Ca
Encoding: 10 2970 10
GlifName: tml_C_a
Width: 566
VWidth: 0
GlyphClass: 2
Flags: HW
AnchorPoint: "MatraIi" 474 560 basechar 0
AnchorPoint: "MatraI.stylalt1" 121 304 basechar 0
AnchorPoint: "virama" 379 0 basechar 0
AnchorPoint: "MatraI.alt2" 474 560 basechar 0
AnchorPoint: "MatraIi.stylalt1" 121 304 basechar 0
LayerCount: 2
Back
Fore
SplineSet
195 341 m 258
 524 341 l 257
 524 299 l 257
 213 299 l 258
 126 299 84 248 84 177 c 256
 84 96 140 43 221 43 c 256
 294 43 359 86 359 207 c 258
 359 289 l 257
 359 318 l 257
 359 518 l 257
 203 518 l 257
 203 309 l 257
 161 309 l 257
 161 560 l 257
 524 560 l 257
 524 518 l 257
 401 518 l 257
 401 207 l 258
 401 104 360 1 225 1 c 256
 116 1 45 68 42 175 c 256
 39 272 98 341 195 341 c 258
  PathStart: -2
EndSplineSet
EndChar

StartChar: tml_Credit
Encoding: 11 3063 11
GlifName: tml_C_redit
Width: 1124
VWidth: 0
GlyphClass: 2
Flags: W
LayerCount: 2
Back
Fore
SplineSet
731 -25 m 256
 642 -25 570 45 570 150 c 256
 570 270 635 404 802 404 c 256
 963 404 1032 285 1032 184 c 256
 1032 89 987 35 972 16 c 257
 934 36 l 257
 962 67 990 110 990 184 c 256
 990 280 924 362 802 362 c 256
 679 362 612 263 612 150 c 256
 612 76 654 17 731 17 c 256
 800 17 831 74 831 133 c 256
 831 274 669 261 587 261 c 258
 467 261 l 257
 467 303 l 257
 566 303 l 258
 590 303 613 303 636 302 c 256
 766 299 875 278 873 133 c 256
 872 43 819 -25 731 -25 c 256
934 0 m 257
 934 36 l 257
 982 42 l 257
 1114 42 l 257
 1114 0 l 257
 934 0 l 257
EndSplineSet
Refer: 14 2958 N 1 0 0 1 0 0 2
EndChar

StartChar: tml_Day
Encoding: 12 3059 12
GlifName: tml_D_ay
Width: 609
VWidth: 0
GlyphClass: 2
Flags: HW
LayerCount: 2
Back
Fore
SplineSet
183 -20 m 256
 90 -20 42 86 42 237 c 256
 42 434 123 571 267 571 c 256
 381 571 475 475 475 280 c 256
 475 174 445 84 413 1 c 257
 379 34 l 257
 393 63 432 169 432 281 c 256
 432 428 371 531 269 531 c 256
 150 531 83 407 83 238 c 256
 83 151 101 22 185 22 c 256
 243 22 276 84 276 172 c 256
 276 265 239 314 186 314 c 256
 120 314 83 236 90 148 c 257
 56 168 l 257
 57 290 119 354 189 354 c 256
 256 354 316 291 316 171 c 256
 316 59 264 -20 183 -20 c 256
379 34 m 257
 428 43 l 257
 599 43 l 257
 599 1 l 257
 379 1 l 257
 379 34 l 257
EndSplineSet
EndChar

StartChar: tml_Debit
Encoding: 13 3062 13
GlifName: tml_D_ebit
Width: 732
VWidth: 0
GlyphClass: 2
Flags: HW
LayerCount: 2
Back
Fore
SplineSet
286 -342 m 256
 148 -342 42 -286 42 -192 c 256
 42 -128 87 -106 153 -106 c 258
 648 -106 l 257
 648 560 l 257
 690 560 l 257
 690 -148 l 257
 152 -148 l 258
 113 -148 84 -159 84 -192 c 256
 84 -253 160 -300 284 -300 c 256
 452 -300 497 -155 497 4 c 257
 540 2 l 257
 540 -184 473 -342 286 -342 c 256
  PathStart: -2
EndSplineSet
Refer: 92 2986 N 1 0 0 1 50 0 2
EndChar

StartChar: tml_E
Encoding: 14 2958 14
GlifName: tml_E_
Width: 594
VWidth: 0
GlyphClass: 2
Flags: W
LayerCount: 2
Back
Fore
SplineSet
183 -24 m 256
 90 -24 42 82 42 233 c 256
 42 430 123 560 267 560 c 258
 584 560 l 257
 584 520 l 257
 481 520 l 257
 481 0 l 257
 439 0 l 257
 439 520 l 257
 269 520 l 258
 150 520 83 403 83 234 c 256
 83 147 101 18 185 18 c 256
 243 18 276 80 276 168 c 256
 276 261 239 310 186 310 c 256
 120 310 83 232 90 144 c 257
 56 164 l 257
 57 286 119 350 189 350 c 256
 256 350 316 287 316 167 c 256
 316 55 264 -24 183 -24 c 256
EndSplineSet
EndChar

StartChar: tml_Ee
Encoding: 15 2959 15
GlifName: tml_E_e
Width: 594
VWidth: 0
GlyphClass: 2
Flags: W
LayerCount: 2
Back
Fore
SplineSet
181 -214 m 257
 428 17 l 257
 469 0 l 257
 207 -241 l 257
 181 -214 l 257
EndSplineSet
Refer: 14 2958 N 1 0 0 1 0 0 2
EndChar

StartChar: tml_Five
Encoding: 17 3051 17
GlifName: tml_F_ive
Width: 1108
VWidth: 0
GlyphClass: 2
Flags: HW
LayerCount: 2
Back
Fore
SplineSet
343 0 m 257
 343 560 l 257
 747 560 l 257
 747 518 l 257
 628 518 l 257
 628 0 l 257
 586 0 l 257
 586 518 l 257
 385 518 l 257
 385 0 l 257
 343 0 l 257
1058 309 m 258
 1058 -1 l 257
 1014 -1 l 257
 1014 285 l 258
 1014 641 775 758 542 758 c 256
 267 758 84 579 84 254 c 256
 84 -20 274 -224 513 -223 c 256
 751 -222 822 -31 822 107 c 256
 822 252 759 299 708 299 c 256
 651 299 628 243 628 204 c 257
 604 222 l 257
 604 293 653 339 710 339 c 256
 811 339 864 235 864 107 c 256
 864 -66 781 -266 503 -265 c 256
 268 -264 42 -70 42 254 c 256
 42 575 225 800 536 801 c 256
 877 802 1058 594 1058 309 c 258
  PathStart: -2
EndSplineSet
EndChar

StartChar: tml_Four
Encoding: 18 3050 18
GlifName: tml_F_our
Width: 670
VWidth: 0
GlyphClass: 2
Flags: HW
LayerCount: 2
Back
Fore
SplineSet
586 341 m 257
 586 560 l 257
 628 560 l 257
 628 299 l 257
 459 299 l 257
 459 341 l 257
 586 341 l 257
EndSplineSet
Refer: 10 2970 N 1 0 0 1 5.61062e-05 0 2
EndChar

StartChar: tml_Ha
Encoding: 19 3001 19
GlifName: tml_H_a
Width: 1268
VWidth: 0
GlyphClass: 2
Flags: HW
AnchorPoint: "MatraIi.alt1" 1130 556 basechar 0
AnchorPoint: "virama" 612 0 basechar 0
AnchorPoint: "MatraI.alt6" 1119 561 basechar 0
AnchorPoint: "MatraU" 1050 573 basechar 0
AnchorPoint: "MatraUu" 1050 573 basechar 0
LayerCount: 2
Back
Fore
SplineSet
183 -20 m 256
 90 -20 42 86 42 237 c 256
 42 434 123 571 267 571 c 256
 381 571 475 475 475 280 c 256
 475 174 445 84 413 1 c 257
 379 34 l 257
 393 63 432 169 432 281 c 256
 432 428 371 531 269 531 c 256
 150 531 83 407 83 238 c 256
 83 151 101 22 185 22 c 256
 243 22 276 84 276 172 c 256
 276 265 239 314 186 314 c 256
 120 314 83 236 90 148 c 257
 56 168 l 257
 57 290 119 354 189 354 c 256
 256 354 316 291 316 171 c 256
 316 59 264 -20 183 -20 c 256
74 -236 m 257
 75 -129 134 -96 200 -96 c 258
 954 -96 l 258
 1152 -96 1184 23 1184 234 c 256
 1184 446 1163 531 1047 531 c 256
 962 531 934 470 933 390 c 257
 908 431 l 257
 908 498 951 573 1050 573 c 256
 1192 573 1226 461 1226 234 c 256
 1226 2 1187 -137 960 -137 c 258
 205 -138 l 258
 123 -138 117 -197 116 -236 c 257
 74 -236 l 257
926 426 m 257
 890 390 l 257
 890 493 854 531 782 531 c 256
 712 531 669 483 669 393 c 258
 669 80 l 257
 627 80 l 257
 627 404 l 258
 627 502 683 575 788 574 c 256
 864 573 923 524 926 426 c 257
  PathStart: -2
379 1 m 257
 379 34 l 257
 428 43 l 257
 627 43 l 257
 627 209 l 257
 669 209 l 257
 669 1 l 257
 379 1 l 257
890 0 m 257
 890 460 l 257
 934 460 l 257
 932 0 l 257
 890 0 l 257
EndSplineSet
EndChar

StartChar: tml_Hundred
Encoding: 20 3057 20
GlifName: tml_H_undred
Width: 705
VWidth: 0
GlyphClass: 2
Flags: HW
LayerCount: 2
Back
Fore
SplineSet
177 578 m 256
 260 578 319 529 319 402 c 257
 287 391 l 257
 287 484 261 536 182 536 c 256
 128 536 84 508 84 416 c 258
 84 1 l 257
 42 1 l 257
 42 423 l 258
 42 515 88 578 177 578 c 256
  PathStart: -2
287 1 m 257
 287 504 l 257
 300 561 l 257
 705 561 l 257
 705 519 l 257
 595 519 l 257
 595 1 l 257
 553 1 l 257
 553 519 l 257
 329 519 l 257
 329 1 l 257
 287 1 l 257
EndSplineSet
EndChar

StartChar: tml_I
Encoding: 21 2951 21
GlifName: tml_I_
Width: 1001
VWidth: 0
GlyphClass: 2
Flags: W
LayerCount: 2
Back
Fore
SplineSet
508 531 m 256
 393 531 347 445 347 383 c 256
 347 327 385 291 436 291 c 256
 486 291 521 327 521 379 c 256
 521 428 491 469 435 469 c 256
 382 469 348 432 347 384 c 257
 318 383 l 257
 318 443 364 510 442 510 c 256
 519 510 563 444 563 376 c 256
 563 303 513 249 436 249 c 256
 362 249 305 300 305 385 c 256
 305 489 391 573 513 573 c 256
 648 573 746 469 746 307 c 256
 746 23 443 -210 230 -210 c 256
 132 -210 42 -160 42 -46 c 256
 42 135 272 216 436 216 c 256
 607 216 827 129 827 -46 c 256
 827 -164 728 -210 626 -210 c 256
 394 -210 95 25 95 362 c 256
 95 610 257 754 525 754 c 256
 815 754 951 586 951 239 c 258
 951 0 l 257
 909 0 l 257
 909 223 l 258
 909 567 773 711 524 711 c 256
 269 711 140 561 140 357 c 256
 140 61 412 -168 628 -168 c 256
 731 -168 785 -116 785 -49 c 256
 785 56 655 174 429 174 c 256
 207 174 84 60 84 -47 c 256
 84 -120 144 -168 228 -168 c 256
 426 -168 704 63 704 315 c 256
 704 448 620 531 508 531 c 256
  PathStart: -2
EndSplineSet
EndChar

StartChar: tml_Ii
Encoding: 22 2952 22
GlifName: tml_I_i
Width: 629
VWidth: 0
GlyphClass: 2
Flags: HW
LayerCount: 2
Back
Fore
SplineSet
50 0 m 257
 50 560 l 257
 579 560 l 257
 579 518 l 257
 386 518 l 257
 383 0 l 257
 338 0 l 257
 341 518 l 257
 92 518 l 257
 92 0 l 257
 50 0 l 257
181 255 m 256
 181 276 198 292 219 292 c 256
 240 292 256 276 256 255 c 256
 256 234 240 217 219 217 c 256
 198 217 181 234 181 255 c 256
461 255 m 256
 461 276 478 292 499 292 c 256
 520 292 536 276 536 255 c 256
 536 234 520 217 499 217 c 256
 478 217 461 234 461 255 c 256
EndSplineSet
EndChar

StartChar: tml_Ja
Encoding: 23 2972 23
GlifName: tml_J_a
Width: 740
VWidth: 0
GlyphClass: 2
Flags: HW
AnchorPoint: "MatraI.alt7" 658 562 basechar 0
AnchorPoint: "virama" 403 0 basechar 0
AnchorPoint: "MatraIi.alt1" 668 556 basechar 0
AnchorPoint: "MatraU" 575 581 basechar 0
AnchorPoint: "MatraUu" 575 581 basechar 0
LayerCount: 2
Back
Fore
SplineSet
221 -155 m 256
 130 -155 45 -99 45 21 c 256
 45 197 238 198 380 218 c 256
 550 242 696 258 696 402 c 256
 696 480 659 539 575 539 c 256
 463 539 426 435 426 306 c 257
 426 304 426 301 426 299 c 257
 384 299 l 257
 387 469 435 581 575 581 c 256
 675 581 738 516 738 402 c 256
 738 205 535 192 381 174 c 256
 220 155 87 141 87 21 c 256
 87 -54 141 -113 227 -113 c 256
 369 -113 403 124 583 124 c 256
 677 124 722 63 722 -14 c 256
 722 -100 654 -156 573 -154 c 258
 476 -154 l 257
 476 -112 l 257
 570 -112 l 258
 609 -111 678 -96 678 -14 c 256
 678 47 641 82 576 82 c 256
 428 82 413 -155 221 -155 c 256
164 234 m 256
 83 234 41 294 42 384 c 256
 43 513 128 583 243 582 c 256
 403 581 425 426 426 299 c 257
 384 299 l 257
 384 303 384 306 384 310 c 257
 384 438 349 542 240 542 c 256
 149 542 84 489 84 370 c 256
 84 305 120 274 164 274 c 256
 212 274 244 318 244 362 c 256
 244 417 215 455 171 455 c 256
 106 455 84 405 84 369 c 257
 53 380 l 257
 53 453 114 495 169 495 c 256
 211 495 284 467 284 362 c 256
 284 273 226 234 164 234 c 256
EndSplineSet
EndChar

StartChar: tml_KSsU
Encoding: 24 -1 24
GlifName: tml_K_S_sU_
Width: 1713
VWidth: 0
GlyphClass: 2
Flags: HW
LayerCount: 2
Back
Fore
SplineSet
1566 211 m 256
 1482 211 1428 282 1428 373 c 256
 1428 500 1494 547 1550 547 c 257
 1562 518 l 257
 1502 518 1470 456 1470 378 c 256
 1470 302 1509 253 1562 253 c 256
 1627 253 1661 312 1661 385 c 256
 1661 458 1635 518 1560 518 c 258
 1357 518 l 257
 1357 468 l 257
 1315 468 l 257
 1315 560 l 257
 1542 560 l 258
 1633 560 1703 515 1703 385 c 256
 1703 272 1645 211 1566 211 c 256
EndSplineSet
Refer: 26 -1 N 1 0 0 1 -9.99994 0 2
EndChar

StartChar: tml_KSsUu
Encoding: 25 -1 25
GlifName: tml_K_S_sU_u
Width: 1889
VWidth: 0
GlyphClass: 2
Flags: HW
LayerCount: 2
Back
Fore
SplineSet
1820 196 m 257
 1781 212 l 257
 1791 227 1837 297 1837 404 c 256
 1837 519 1775 603 1656 603 c 256
 1539 603 1460 519 1460 397 c 256
 1460 310 1510 260 1566 260 c 256
 1622 260 1655 307 1655 385 c 256
 1655 490 1569 518 1487 518 c 258
 1357 518 l 257
 1357 468 l 257
 1315 468 l 257
 1315 560 l 257
 1492 560 l 258
 1500 560 1509 560 1517 559 c 256
 1621 553 1698 502 1698 375 c 256
 1698 276 1645 218 1563 218 c 256
 1474 218 1418 293 1418 397 c 256
 1418 538 1513 645 1656 645 c 256
 1814 645 1879 523 1879 414 c 256
 1879 276 1820 196 1820 196 c 257
EndSplineSet
Refer: 26 -1 N 1 0 0 1 -9.99994 0 2
EndChar

StartChar: tml_KSsa
Encoding: 26 -1 26
GlifName: tml_K_S_sa
Width: 1401
VWidth: 0
GlyphClass: 2
Flags: HW
AnchorPoint: "MatraIi.alt1" 1161.11 556 basechar 0
AnchorPoint: "MatraI.alt8" 1153.11 561 basechar 0
AnchorPoint: "virama" 723.109 0 basechar 0
LayerCount: 2
Back
Fore
SplineSet
822.109375 1 m 257
 822.109375 34 l 257
 871.109375 43 l 257
 1315.109375 43 l 257
 1315.109375 472 l 257
 1357.109375 472 l 257
 1357.109375 1 l 257
 822.109375 1 l 257
1212.109375 -146 m 257
 1170.109375 -146 l 257
 1170.109375 438 l 258
 1170.109375 491 1147.109375 531 1102.109375 531 c 256
 1019.109375 531 996.109375 456 996.109375 400 c 256
 996.109375 299 1065.109375 197 1183.109375 197 c 256
 1289.109375 197 1314.109375 298 1315.109375 379 c 257
 1352.109375 376 l 257
 1352.109375 271 1323.109375 155 1183.109375 155 c 256
 1065.109375 155 956.109375 240 954.109375 410 c 256
 953.109375 507 1020.109375 573 1095.109375 573 c 256
 1212.109375 573 1212.109375 463 1212.109375 438 c 258
 1212.109375 -146 l 257
470.109375 197 m 256
 470.109375 374 571.109375 475 705.109375 475 c 256
 851.109375 475 923.109375 373 923.109375 218 c 256
 923.109375 105 876.109375 40 860.109375 13 c 257
 822.109375 34 l 257
 839.109375 59 882.109375 117 882.109375 218 c 256
 882.109375 335 829.109375 435 707.109375 435 c 256
 588.109375 435 511.109375 337 511.109375 198 c 256
 511.109375 111 548.109375 22 632.109375 22 c 256
 691.109375 22 719.109375 78 719.109375 151 c 256
 719.109375 273 606.109375 299 532.109375 299 c 258
 446.109375 299 l 257
 446.109375 341 l 257
 537.109375 341 l 258
 640.109375 341 759.109375 296 759.109375 150 c 256
 759.109375 46 713.109375 -20 630.109375 -20 c 256
 540.109375 -20 470.109375 46 470.109375 197 c 256
  PathStart: -2
EndSplineSet
Refer: 10 2970 N 1 0 0 1 0.108594 0 2
EndChar

StartChar: tml_KU
Encoding: 27 -1 27
GlifName: tml_K_U_
Width: 840
VWidth: 0
GlyphClass: 2
Flags: HW
LayerCount: 2
Back
Fore
SplineSet
444.530273438 -274 m 256
 220.530273438 -274 41.5302734375 -112 41.5302734375 129 c 256
 41.5302734375 273 91.5302734375 380 155.530273438 457 c 257
 193.530273438 438 l 257
 134.530273438 367 81.5302734375 270 83.5302734375 129 c 256
 86.5302734375 -80 245.530273438 -232 444.530273438 -232 c 256
 628.530273438 -232 777.530273438 -122 777.530273438 73 c 256
 777.530273438 250 703.530273438 299 596.530273438 299 c 258
 395.530273438 299 l 258
 308.530273438 299 266.530273438 248 266.530273438 177 c 256
 266.530273438 96 322.530273438 43 403.530273438 43 c 256
 476.530273438 43 541.530273438 86 541.530273438 207 c 258
 541.530273438 289 l 257
 541.530273438 323 l 257
 541.530273438 518 l 257
 385.530273438 518 l 257
 385.530273438 309 l 257
 343.530273438 309 l 257
 343.530273438 560 l 257
 706.530273438 560 l 257
 706.530273438 518 l 257
 583.530273438 518 l 257
 583.530273438 207 l 258
 583.530273438 104 542.530273438 1 407.530273438 1 c 256
 298.530273438 1 227.530273438 68 224.530273438 175 c 256
 221.530273438 272 280.530273438 341 377.530273438 341 c 258
 606.530273438 341 l 258
 706.530273438 341 828.530273438 270 819.530273438 73 c 256
 807.530273438 -179 636.530273438 -274 444.530273438 -274 c 256
EndSplineSet
EndChar

StartChar: tml_KUu
Encoding: 28 -1 28
GlifName: tml_K_U_u
Width: 1045
VWidth: 0
GlyphClass: 2
Flags: HW
LayerCount: 2
Back
Fore
SplineSet
460 197 m 256
 460 374 561 475 695 475 c 256
 841 475 913 373 913 218 c 256
 913 105 866 40 850 13 c 257
 812 34 l 257
 829 59 872 117 872 218 c 256
 872 335 819 435 697 435 c 256
 578 435 501 337 501 198 c 256
 501 111 538 22 622 22 c 256
 681 22 709 78 709 151 c 256
 709 273 596 299 522 299 c 258
 436 299 l 257
 436 341 l 257
 527 341 l 258
 630 341 749 296 749 150 c 256
 749 46 703 -20 620 -20 c 256
 530 -20 460 46 460 197 c 256
  PathStart: -2
812 34 m 257
 861 43 l 257
 1035 43 l 257
 1035 1 l 257
 812 1 l 257
 812 34 l 257
EndSplineSet
Refer: 10 2970 N 1 0 0 1 -0.00078072 0 2
EndChar

StartChar: tml_Ka
Encoding: 29 2965 29
GlifName: tml_K_a
Width: 665
VWidth: 0
GlyphClass: 2
Flags: HW
AnchorPoint: "MatraIi" 474 560 basechar 0
AnchorPoint: "MatraI.stylalt1" 121 304 basechar 0
AnchorPoint: "virama" 385 0 basechar 0
AnchorPoint: "MatraI.alt2" 474 560 basechar 0
AnchorPoint: "MatraIi.stylalt1" 121 304 basechar 0
AnchorPoint: "MatraI.alt1" 474 560 basechar 0
LayerCount: 2
Back
Fore
SplineSet
195 341 m 258
 444 341 l 258
 566 341 623 275 623 167 c 256
 623 43 550 0 458 0 c 258
 437 0 l 257
 437 42 l 257
 453 42 l 258
 555 42 581 105 581 167 c 256
 581 257 532 299 429 299 c 258
 213 299 l 258
 126 299 84 248 84 177 c 256
 84 96 140 43 221 43 c 256
 294 43 359 86 359 207 c 258
 359 289 l 257
 359 326 l 257
 359 518 l 257
 203 518 l 257
 203 309 l 257
 161 309 l 257
 161 560 l 257
 524 560 l 257
 524 518 l 257
 401 518 l 257
 401 207 l 258
 401 104 360 1 225 1 c 256
 116 1 45 68 42 175 c 256
 39 272 98 341 195 341 c 258
  PathStart: -2
EndSplineSet
EndChar

StartChar: tml_LU
Encoding: 30 -1 30
GlifName: tml_L_U_
Width: 896
VWidth: 0
GlyphClass: 2
Flags: HW
LayerCount: 2
Back
Fore
SplineSet
585 0 m 257
 585 -173 521 -342 305 -342 c 256
 139 -342 59 -275 59 -193 c 256
 59 -131 106 -106 154 -106 c 258
 804 -106 l 257
 804 573 l 257
 846 573 l 257
 846 -148 l 257
 161 -148 l 258
 124 -148 101 -156 101 -198 c 256
 101 -248 171 -300 301 -300 c 256
 463 -300 543 -190 543 0 c 257
 585 0 l 257
EndSplineSet
Refer: 32 2994 N 1 0 0 1 2 0 2
EndChar

StartChar: tml_LUu
Encoding: 31 -1 31
GlifName: tml_L_U_u
Width: 1178
VWidth: 0
GlyphClass: 2
Flags: HW
LayerCount: 2
Back
Fore
SplineSet
1168 573 m 257
 1168 531 l 257
 1068 531 l 257
 1068 -13 l 257
 1026 -13 l 257
 1026 531 l 257
 846 531 l 257
 846 573 l 257
 1168 573 l 257
EndSplineSet
Refer: 30 -1 N 1 0 0 1 2 0 2
EndChar

StartChar: tml_La
Encoding: 32 2994 32
GlifName: tml_L_a
Width: 763
VWidth: 0
GlyphClass: 2
Flags: HW
AnchorPoint: "virama" 402 0 basechar 0
AnchorPoint: "MatraAi.alt" 45 190 basechar 0
AnchorPoint: "MatraIi.alt2" 601 584 basechar 0
AnchorPoint: "MatraI.alt5" 584 573 basechar 0
LayerCount: 2
Back
Fore
SplineSet
183 -20 m 256
 90 -20 42 86 42 237 c 256
 42 434 120 571 259 571 c 256
 388 571 451 475 447 342 c 258
 444 198 l 257
 438 92 482 21 557 21 c 256
 617 21 678 84 678 249 c 256
 678 363 649 475 564 561 c 257
 601 584 l 257
 665 524 721 398 721 253 c 256
 721 152 694 -23 558 -23 c 256
 462 -23 399 61 405 194 c 258
 408 352 l 258
 412 454 358 531 260 531 c 256
 138 531 83 407 83 238 c 256
 83 151 101 22 185 22 c 256
 243 22 276 84 276 172 c 256
 276 265 239 314 186 314 c 256
 120 314 83 236 90 148 c 257
 56 168 l 257
 57 290 119 354 189 354 c 256
 256 354 316 291 316 171 c 256
 316 59 264 -20 183 -20 c 256
EndSplineSet
EndChar

StartChar: tml_LlU
Encoding: 33 -1 33
GlifName: tml_L_lU_
Width: 1176
VWidth: 0
GlyphClass: 2
Flags: HW
LayerCount: 2
Back
Fore
SplineSet
627 -265 m 256
 231 -264 42 -40 42 244 c 256
 42 418 109 532 138 570 c 257
 178 551 l 257
 137 504 84 379 84 244 c 256
 84 10 234 -224 633 -223 c 256
 931 -222 1092 -73 1092 107 c 256
 1092 252 1029 299 978 299 c 256
 921 299 898 243 898 204 c 257
 874 222 l 257
 874 293 923 339 980 339 c 256
 1081 339 1134 235 1134 107 c 256
 1134 -109 947 -266 627 -265 c 256
EndSplineSet
Refer: 35 2995 N 1 0 0 1 177 0 2
EndChar

StartChar: tml_LlUu
Encoding: 34 -1 34
GlifName: tml_L_lU_u
Width: 1324
VWidth: 0
GlyphClass: 2
Flags: HW
LayerCount: 2
Back
Fore
SplineSet
696 -223 m 256
 994 -222 1240 -100 1240 120 c 256
 1240 265 1177 299 1126 299 c 256
 1069 299 1046 243 1046 204 c 257
 1022 222 l 257
 1022 293 1071 339 1128 339 c 256
 1229 339 1282 248 1282 120 c 256
 1282 -138 1010 -266 690 -265 c 256
 393 -264 42 -66 42 230 c 256
 42 475 139 574 235 573 c 256
 326 573 363 492 363 428 c 256
 363 362 324 287 241 287 c 256
 162 287 122 362 122 419 c 256
 122 472 146 553 228 555 c 257
 237 531 l 257
 180 531 164 465 164 425 c 256
 164 379 192 329 241 329 c 256
 289 329 321 373 321 428 c 256
 321 495 286 531 237 531 c 256
 99 531 84 316 84 239 c 256
 84 -15 387 -224 696 -223 c 256
  PathStart: -2
EndSplineSet
Refer: 35 2995 N 1 0 0 1 325 0 2
EndChar

StartChar: tml_Lla
Encoding: 35 2995 35
GlifName: tml_L_la
Width: 869
VWidth: 0
GlyphClass: 2
Flags: HW
AnchorPoint: "MatraIi" 794 560 basechar 0
AnchorPoint: "MatraAi.alt" 45 190 basechar 0
AnchorPoint: "virama" 453 0 basechar 0
AnchorPoint: "MatraI.alt2" 794 560 basechar 0
LayerCount: 2
Back
Fore
SplineSet
183 -20 m 256
 90 -20 42 86 42 237 c 256
 42 434 123 571 267 571 c 256
 381 571 475 485 475 280 c 257
 432 281 l 257
 432 442 371 531 269 531 c 256
 150 531 83 407 83 238 c 256
 83 151 101 22 185 22 c 256
 243 22 276 84 276 172 c 256
 276 265 239 314 186 314 c 256
 120 314 83 236 90 148 c 257
 56 168 l 257
 57 290 119 354 189 354 c 256
 256 354 316 291 316 171 c 256
 316 59 264 -20 183 -20 c 256
432 1 m 257
 432 440 l 257
 432 460 l 257
 432 560 l 257
 859 560 l 257
 859 518 l 257
 723 518 l 257
 723 1 l 257
 681 1 l 257
 681 518 l 257
 475 518 l 257
 475 1 l 257
 432 1 l 257
EndSplineSet
EndChar

StartChar: tml_LllU
Encoding: 36 -1 36
GlifName: tml_L_llU_
Width: 878
VWidth: 0
GlyphClass: 2
Flags: HW
LayerCount: 2
Back
Fore
SplineSet
712.990234375 -189 m 256
 712.990234375 -80 564.990234375 -92 548.990234375 -140 c 257
 506.990234375 -140 l 257
 507.990234375 32 l 257
 549.990234375 33 l 257
 548.990234375 -92 l 257
 573.990234375 -49 754.990234375 -47 754.990234375 -188 c 256
 754.990234375 -287 665.990234375 -386 482.990234375 -386 c 256
 196.990234375 -386 41.990234375 -143 41.990234375 162 c 256
 41.990234375 333 90.990234375 475 149.990234375 572 c 257
 188.990234375 553 l 257
 146.990234375 485 83.990234375 338 83.990234375 161 c 256
 83.990234375 -87 206.990234375 -344 474.990234375 -344 c 256
 605.990234375 -344 712.990234375 -282 712.990234375 -189 c 256
  PathStart: -2
EndSplineSet
Refer: 41 2990 N 1 0 0 1 251.988 0 2
EndChar

StartChar: tml_LllUu
Encoding: 37 -1 37
GlifName: tml_L_llU_u
Width: 998
VWidth: 0
GlyphClass: 2
Flags: HW
LayerCount: 2
Back
Fore
SplineSet
553.990234375 -386 m 256
 267.990234375 -386 41.990234375 -143 41.990234375 162 c 256
 41.990234375 467 142.990234375 574 238.990234375 573 c 256
 329.990234375 573 366.990234375 492 366.990234375 428 c 256
 366.990234375 362 327.990234375 287 244.990234375 287 c 256
 165.990234375 287 125.990234375 362 125.990234375 419 c 256
 125.990234375 472 161.990234375 543 231.990234375 545 c 257
 240.990234375 531 l 257
 183.990234375 531 167.990234375 465 167.990234375 425 c 256
 167.990234375 379 195.990234375 329 244.990234375 329 c 256
 292.990234375 329 324.990234375 373 324.990234375 428 c 256
 324.990234375 495 289.990234375 531 240.990234375 531 c 256
 91.990234375 531 83.990234375 238 83.990234375 161 c 256
 83.990234375 -87 277.990234375 -344 545.990234375 -344 c 256
 678.990234375 -344 832.990234375 -292 832.990234375 -189 c 256
 832.990234375 -80 684.990234375 -92 668.990234375 -140 c 257
 626.990234375 -140 l 257
 627.990234375 32 l 257
 669.990234375 33 l 257
 668.990234375 -92 l 257
 693.990234375 -49 874.990234375 -47 874.990234375 -188 c 256
 874.990234375 -287 765.990234375 -386 553.990234375 -386 c 256
EndSplineSet
Refer: 41 2990 N 1 0 0 1 371.989 0 2
EndChar

StartChar: tml_Llla
Encoding: 38 2996 38
GlifName: tml_L_lla
Width: 638
VWidth: 0
GlyphClass: 2
Flags: HW
AnchorPoint: "MatraIi.alt1" 477.99 556 basechar 0
AnchorPoint: "MatraI.alt6" 466.99 561 basechar 0
AnchorPoint: "virama" 265.99 0 basechar 0
LayerCount: 2
Back
Fore
SplineSet
241.990234375 -293 m 256
 120.990234375 -293 41.990234375 -206 41.990234375 -83 c 257
 83.990234375 -83 l 257
 83.990234375 -164 129.990234375 -251 241.990234375 -251 c 256
 358.990234375 -251 388.990234375 -138 388.990234375 -138 c 256
 388.990234375 -138 394.990234375 -162 397.990234375 -159 c 257
 359.990234375 -159 267.990234375 -126 267.990234375 8 c 258
 267.990234375 456 l 258
 267.990234375 529 307.990234375 575 387.990234375 576 c 256
 545.990234375 577 594.990234375 426 595.990234375 299 c 256
 596.990234375 114 522.990234375 0 366.990234375 0 c 258
 41.990234375 0 l 257
 41.990234375 559 l 257
 83.990234375 559 l 257
 83.990234375 42 l 257
 358.990234375 42 l 258
 491.990234375 41 553.990234375 139 553.990234375 299 c 256
 553.990234375 445 482.990234375 535 389.990234375 535 c 256
 335.990234375 535 309.990234375 514 309.990234375 442 c 258
 309.990234375 8 l 258
 309.990234375 -47 328.990234375 -119 403.990234375 -119 c 258
 548.990234375 -119 l 257
 548.990234375 -159 l 257
 395.990234375 -159 l 257
 395.990234375 -159 422.990234375 -143 422.990234375 -146 c 256
 422.990234375 -177 368.990234375 -293 241.990234375 -293 c 256
EndSplineSet
EndChar

StartChar: tml_MU
Encoding: 39 -1 39
GlifName: tml_M_U_
Width: 925
VWidth: 0
GlyphClass: 2
Flags: HW
LayerCount: 2
Back
Fore
SplineSet
41.990234375 164 m 256
 41.990234375 334 101.990234375 483 165.990234375 573 c 257
 200.990234375 555 l 257
 139.990234375 462 83.990234375 325 83.990234375 174 c 256
 83.990234375 -47 168.990234375 -215 356.990234375 -215 c 256
 485.990234375 -215 554.990234375 -116 554.990234375 29 c 257
 596.990234375 29 l 257
 596.990234375 -170 491.990234375 -257 356.990234375 -257 c 256
 147.990234375 -257 41.990234375 -81 41.990234375 164 c 256
  PathStart: -2
EndSplineSet
Refer: 41 2990 N 1 0 0 1 298.989 0 2
EndChar

StartChar: tml_MUu
Encoding: 40 -1 40
GlifName: tml_M_U_u
Width: 1014
VWidth: 0
GlyphClass: 2
Flags: HW
LayerCount: 2
Back
Fore
SplineSet
403.990234375 -225 m 256
 559.990234375 -225 643.990234375 -101 643.990234375 29 c 257
 685.990234375 29 l 257
 685.990234375 -160 552.990234375 -267 403.990234375 -267 c 256
 200.990234375 -267 41.990234375 -99 41.990234375 181 c 256
 41.990234375 334 83.990234375 573 238.990234375 573 c 256
 329.990234375 573 366.990234375 492 366.990234375 428 c 256
 366.990234375 362 327.990234375 287 244.990234375 287 c 256
 165.990234375 287 124.990234375 356 124.990234375 415 c 256
 124.990234375 468 151.990234375 555 238.990234375 555 c 257
 241.990234375 531 l 257
 200.990234375 531 161.990234375 499 161.990234375 425 c 256
 161.990234375 379 192.990234375 329 243.990234375 329 c 256
 290.990234375 329 324.990234375 371 324.990234375 424 c 256
 324.990234375 497 292.990234375 531 241.990234375 531 c 256
 128.990234375 531 83.990234375 338 83.990234375 196 c 256
 83.990234375 -24 196.990234375 -225 403.990234375 -225 c 256
  PathStart: -2
EndSplineSet
Refer: 41 2990 N 1 0 0 1 387.989 0 2
EndChar

StartChar: tml_Ma
Encoding: 41 2990 41
GlifName: tml_M_a
Width: 638
VWidth: 0
GlyphClass: 2
Flags: HW
AnchorPoint: "MatraIi.alt1" 470.99 556 basechar 0
AnchorPoint: "MatraI.alt6" 458.99 561 basechar 0
AnchorPoint: "virama" 267.99 0 basechar 0
LayerCount: 2
Back
Fore
SplineSet
41.990234375 0 m 257
 41.990234375 559 l 257
 83.990234375 559 l 257
 83.990234375 42 l 257
 363.990234375 42 l 257
 370.990234375 0 l 257
 41.990234375 0 l 257
267.990234375 28 m 257
 267.990234375 434 l 258
 267.990234375 504 296.990234375 575 376.990234375 576 c 256
 539.990234375 577 594.990234375 426 595.990234375 299 c 256
 596.990234375 114 522.990234375 0 366.990234375 0 c 257
 358.990234375 42 l 257
 491.990234375 41 553.990234375 139 553.990234375 299 c 256
 553.990234375 445 480.990234375 534 387.990234375 534 c 256
 353.990234375 534 309.990234375 514 309.990234375 432 c 258
 309.990234375 28 l 257
 267.990234375 28 l 257
EndSplineSet
EndChar

StartChar: tml_MatraAa
Encoding: 42 3006 42
GlifName: tml_M_atraA_a
Width: 491
VWidth: 0
GlyphClass: 2
Flags: HW
LayerCount: 2
Back
Fore
SplineSet
42 0 m 257
 42 560 l 257
 491 560 l 257
 491 518 l 257
 358 518 l 257
 355 0 l 257
 310 0 l 257
 313 518 l 257
 84 518 l 257
 84 0 l 257
 42 0 l 257
EndSplineSet
EndChar

StartChar: tml_MatraAi
Encoding: 43 3016 43
GlifName: tml_M_atraA_i
Width: 970
VWidth: 0
GlyphClass: 2
Flags: HW
LayerCount: 2
Back
Fore
SplineSet
182.8203125 -20 m 256
 89.8203125 -20 41.8203125 86 41.8203125 237 c 256
 41.8203125 434 163.8203125 569 339.8203125 569 c 256
 494.8203125 569 665.8203125 470 665.8203125 214 c 256
 665.8203125 73 622.8203125 -23 517.8203125 -23 c 256
 415.8203125 -23 365.8203125 75 365.8203125 214 c 256
 365.8203125 425 459.8203125 568 651.8203125 568 c 256
 788.8203125 568 933.8203125 494 927.8203125 257 c 256
 923.8203125 90 855.8203125 0 753.8203125 -16 c 257
 746.8203125 24 l 257
 800.8203125 36 885.8203125 96 885.8203125 266 c 256
 885.8203125 437 793.8203125 528 650.8203125 528 c 256
 477.8203125 528 407.8203125 388 407.8203125 214 c 256
 407.8203125 115 438.8203125 19 517.8203125 19 c 256
 595.8203125 19 623.8203125 115 623.8203125 214 c 256
 623.8203125 455 461.8203125 528 338.8203125 528 c 256
 196.8203125 528 82.8203125 407 82.8203125 238 c 256
 82.8203125 151 100.8203125 22 184.8203125 22 c 256
 242.8203125 22 275.8203125 84 275.8203125 172 c 256
 275.8203125 265 238.8203125 314 185.8203125 314 c 256
 119.8203125 314 82.8203125 236 89.8203125 148 c 257
 55.8203125 168 l 257
 56.8203125 290 118.8203125 354 188.8203125 354 c 256
 255.8203125 354 315.8203125 291 315.8203125 171 c 256
 315.8203125 59 263.8203125 -20 182.8203125 -20 c 256
EndSplineSet
EndChar

StartChar: tml_MatraAi.alt
Encoding: 44 -1 44
GlifName: tml_M_atraA_i.alt
Width: -685
VWidth: 0
GlyphClass: 4
Flags: HW
AnchorPoint: "MatraAi.alt" -719 189 mark 0
LayerCount: 2
Back
Fore
SplineSet
-729 576 m 256
 -729 413 -909 270 -909 133 c 256
 -909 38 -853 21 -807 21 c 256
 -749 21 -719 71 -719 189 c 257
 -685 170 l 257
 -685 31 -738 -21 -807 -21 c 256
 -868 -21 -951 10 -951 133 c 256
 -951 296 -771 436 -771 576 c 256
 -771 648 -815 758 -922 758 c 256
 -1023 758 -1066 681 -1066 601 c 256
 -1066 555 -1029 517 -976 517 c 256
 -928 517 -890 555 -890 603 c 256
 -890 659 -927 695 -974 695 c 256
 -1029 695 -1067 661 -1066 601 c 257
 -1097 601 l 257
 -1097 666 -1055 737 -974 737 c 256
 -902 737 -848 682 -848 603 c 256
 -848 532 -901 475 -976 475 c 256
 -1052 475 -1108 532 -1108 612 c 256
 -1108 720 -1032 800 -922 800 c 256
 -808 800 -729 704 -729 576 c 256
  PathStart: -2
EndSplineSet
EndChar

StartChar: tml_MatraE
Encoding: 46 3014 46
GlifName: tml_M_atraE_
Width: 600
VWidth: 0
GlyphClass: 2
Flags: W
LayerCount: 2
Back
Fore
SplineSet
192 -30 m 256
 48 -30 30 221 30 350 c 256
 30 568 117 807 338 807 c 256
 540 807 537 546 537 395 c 258
 537 0 l 257
 495 0 l 257
 494 384 l 257
 494 564 488 763 334 763 c 256
 170 763 72 593 72 343 c 256
 72 283 76 204 91 138 c 256
 108 67 139 12 194 12 c 256
 262 12 287 95 287 180 c 256
 287 265 262 358 188 358 c 256
 111 358 72 258 90 140 c 257
 54 182 l 257
 48 330 109 399 188 399 c 256
 277 399 327 311 327 187 c 256
 327 73 285 -30 192 -30 c 256
EndSplineSet
EndChar

StartChar: tml_MatraEe
Encoding: 47 3015 47
GlifName: tml_M_atraE_e
Width: 488
VWidth: 0
GlyphClass: 2
Flags: W
LayerCount: 2
Back
Fore
SplineSet
289 -18 m 256
 150 -18 20 99 20 394 c 256
 20 659 150 806 289 806 c 256
 392 806 418 716 418 629 c 256
 418 511 367 445 296 445 c 256
 213 445 167 523 171 629 c 256
 175 738 218 787 296 789 c 257
 296 767 l 257
 236 767 214 698 213 636 c 256
 211 532 249 487 297 487 c 256
 343 487 378 536 378 636 c 256
 378 697 359 767 296 767 c 256
 152 767 62 593 62 394 c 256
 62 165 152 21 296 21 c 256
 359 21 378 101 378 152 c 256
 378 251 343 301 297 301 c 256
 249 301 211 262 213 152 c 256
 214 82 246 21 296 21 c 257
 296 -1 l 257
 218 1 175 58 171 157 c 256
 167 263 213 343 296 343 c 256
 367 343 418 277 418 159 c 256
 418 68 390 -18 289 -18 c 256
EndSplineSet
EndChar

StartChar: tml_MatraI
Encoding: 48 3007 48
GlifName: tml_M_atraI_
Width: 600
VWidth: 0
GlyphClass: 2
Flags: W
LayerCount: 2
Back
Fore
SplineSet
-236 550 m 257
 -191 703 -96 745 -14 746 c 256
 137 747 217 669 217 479 c 258
 218 0 l 257
 175 0 l 257
 175 479 l 258
 175 636 107 704 -14 704 c 256
 -95 704 -169 629 -194 524 c 257
 -236 550 l 257
EndSplineSet
EndChar

StartChar: tml_MatraI.alt1
Encoding: 49 -1 49
GlifName: tml_M_atraI_.alt1
Width: 129
VWidth: 0
GlyphClass: 4
Flags: W
AnchorPoint: "MatraI.alt1" -190 560 mark 0
LayerCount: 2
Back
Fore
SplineSet
-205 526 m 257
 -234 526 -310 548 -310 622 c 256
 -310 706 -227 758 -129 758 c 256
 14 758 86 656 87 467 c 258
 89 1 l 257
 47 1 l 257
 46 471 l 258
 46 662 -43 716 -129 716 c 256
 -213 716 -268 679 -268 622 c 256
 -268 585 -237 560 -190 560 c 257
 -205 526 l 257
EndSplineSet
EndChar

StartChar: tml_MatraI.alt2
Encoding: 50 -1 50
GlifName: tml_M_atraI_.alt2
Width: 151
VWidth: 0
GlyphClass: 4
Flags: W
AnchorPoint: "MatraI.alt2" -87 560 mark 0
LayerCount: 2
Back
Fore
SplineSet
-96 526 m 257
 -160 526 -225 552 -225 634 c 256
 -225 702 -166 758 -74 758 c 256
 69 758 108 646 109 477 c 258
 111 1 l 257
 69 1 l 257
 68 481 l 258
 68 582 55 716 -74 716 c 256
 -145 716 -183 678 -183 634 c 256
 -183 570 -133 560 -87 560 c 257
 -96 526 l 257
EndSplineSet
EndChar

StartChar: tml_MatraI.alt3
Encoding: 51 -1 51
GlifName: tml_M_atraI_.alt3
Width: 181
VWidth: 0
GlyphClass: 4
Flags: W
AnchorPoint: "MatraI.alt3" -82 499 mark 0
LayerCount: 2
Back
Fore
SplineSet
-83 458 m 257
 -157 458 -235 495 -235 597 c 256
 -235 696 -155 758 -56 758 c 256
 77 758 138 655 139 507 c 258
 141 1 l 257
 99 1 l 257
 98 511 l 258
 98 639 40 716 -56 716 c 256
 -141 716 -193 665 -193 597 c 256
 -193 536 -153 500 -83 500 c 257
 -83 458 l 257
EndSplineSet
EndChar

StartChar: tml_MatraI.alt4
Encoding: 52 -1 52
GlifName: tml_M_atraI_.alt4
Width: 185
VWidth: 0
GlyphClass: 4
Flags: W
AnchorPoint: "MatraI.alt4" -80 560 mark 0
LayerCount: 2
Back
Fore
SplineSet
-80 518 m 257
 -140 518 -215 550 -215 631 c 256
 -215 695 -151 758 -52 758 c 256
 81 758 142 655 143 507 c 258
 145 0 l 257
 103 0 l 257
 102 511 l 258
 102 639 44 716 -52 716 c 256
 -121 716 -173 677 -173 631 c 256
 -173 590 -141 560 -80 560 c 257
 -80 518 l 257
EndSplineSet
EndChar

StartChar: tml_MatraI.alt5
Encoding: 53 -1 53
GlifName: tml_M_atraI_.alt5
Width: 129
VWidth: 0
GlyphClass: 4
Flags: W
AnchorPoint: "MatraI.alt5" -177 573 mark 0
LayerCount: 2
Back
Fore
SplineSet
-156 541 m 257
 -215 504 -304 535 -304 624 c 256
 -304 696 -237 758 -132 758 c 256
 1 758 86 666 87 497 c 258
 89 1 l 257
 47 1 l 257
 46 501 l 258
 46 642 -26 716 -132 716 c 256
 -197 716 -262 683 -262 624 c 256
 -262 564 -208 554 -177 573 c 257
 -156 541 l 257
EndSplineSet
EndChar

StartChar: tml_MatraI.alt6
Encoding: 54 -1 54
GlifName: tml_M_atraI_.alt6
Width: 166
VWidth: 0
GlyphClass: 4
Flags: W
AnchorPoint: "MatraI.alt6" -146 561 mark 0
LayerCount: 2
Back
Fore
SplineSet
-158 530 m 257
 -179 537 -246 555 -246 621 c 256
 -246 704 -173 757 -81 757 c 256
 65 757 125 647 126 500 c 258
 126 0 l 257
 84 0 l 257
 83 480 l 258
 83 641 25 715 -81 715 c 256
 -151 715 -204 680 -204 623 c 256
 -204 584 -166 571 -146 561 c 257
 -158 530 l 257
EndSplineSet
EndChar

StartChar: tml_MatraI.alt7
Encoding: 55 -1 55
GlifName: tml_M_atraI_.alt7
Width: 194
VWidth: 0
GlyphClass: 4
Flags: W
AnchorPoint: "MatraI.alt7" -120 562 mark 0
LayerCount: 2
Back
Fore
SplineSet
-130 530 m 257
 -151 537 -218 563 -218 623 c 256
 -218 706 -145 757 -53 757 c 256
 93 757 153 647 154 500 c 258
 154 0 l 257
 112 0 l 257
 111 480 l 258
 111 641 53 715 -53 715 c 256
 -123 715 -176 682 -176 625 c 256
 -176 590 -140 572 -120 562 c 257
 -130 530 l 257
EndSplineSet
EndChar

StartChar: tml_MatraI.alt8
Encoding: 56 -1 56
GlifName: tml_M_atraI_.alt8
Width: 198
VWidth: 0
GlyphClass: 4
Flags: W
AnchorPoint: "MatraI.alt8" -204 561 mark 0
LayerCount: 2
Back
Fore
SplineSet
-216 530 m 257
 -237 537 -304 555 -304 621 c 256
 -304 704 -221 757 -119 757 c 256
 27 757 158 679 158 493 c 258
 158 0 l 257
 116 0 l 257
 115 480 l 258
 115 675 -13 715 -119 715 c 256
 -209 715 -262 680 -262 623 c 256
 -262 584 -224 571 -204 561 c 257
 -216 530 l 257
EndSplineSet
EndChar

StartChar: tml_MatraI.stylalt1
Encoding: 57 -1 57
GlifName: tml_M_atraI_.stylalt1
Width: 121
VWidth: 0
GlyphClass: 4
Flags: HW
AnchorPoint: "MatraI.stylalt1" -543 304 mark 0
LayerCount: 2
Back
Fore
SplineSet
-569 268 m 257
 -614 295 -685 345 -685 481 c 256
 -685 670 -545 800 -307 800 c 256
 -60 800 79 642 79 359 c 257
 79 0 l 257
 37 0 l 257
 37 357 l 257
 37 644 -120 760 -307 758 c 256
 -501 756 -643 663 -643 481 c 256
 -643 373 -587 328 -543 304 c 257
 -569 268 l 257
EndSplineSet
EndChar

StartChar: tml_MatraIi
Encoding: 58 3008 58
GlifName: tml_M_atraI_i
Width: 0
VWidth: 0
GlyphClass: 4
Flags: W
AnchorPoint: "MatraIi" 0 560 mark 0
LayerCount: 2
Back
Fore
SplineSet
-10 525 m 257
 -40 525 -119 554 -119 695 c 256
 -119 832 -18 903 103 902 c 256
 215 901 244 813 244 738 c 256
 244 629 181 590 127 590 c 256
 59 590 3 639 3 738 c 256
 3 847 67 883 101 893 c 257
 122 863 l 257
 67 863 45 794 45 738 c 256
 45 666 82 632 127 632 c 256
 172 632 202 678 202 738 c 256
 202 806 175 863 122 863 c 256
 -27 863 -77 778 -77 692 c 256
 -77 590 -25 560 0 560 c 257
 -10 525 l 257
EndSplineSet
EndChar

StartChar: tml_MatraIi.alt1
Encoding: 59 -1 59
GlifName: tml_M_atraI_i.alt1
Width: 0
VWidth: 0
GlyphClass: 4
Flags: W
AnchorPoint: "MatraIi.alt1" 0 556 mark 0
LayerCount: 2
Back
Fore
SplineSet
-132 695 m 256
 -132 832 -31 903 90 902 c 256
 202 901 231 813 231 738 c 256
 231 629 168 590 114 590 c 256
 46 590 -10 639 -10 738 c 256
 -10 847 54 883 88 893 c 257
 109 863 l 257
 54 863 32 794 32 738 c 256
 32 666 69 632 114 632 c 256
 159 632 189 678 189 738 c 256
 189 806 162 863 109 863 c 256
 -40 863 -90 778 -90 692 c 256
 -90 590 -18 566 0 556 c 257
 -11 522 l 257
 -40 534 -132 560 -132 695 c 256
  PathStart: -2
EndSplineSet
EndChar

StartChar: tml_MatraIi.alt2
Encoding: 60 -1 60
GlifName: tml_M_atraI_i.alt2
Width: 0
VWidth: 0
GlyphClass: 4
Flags: W
AnchorPoint: "MatraIi.alt2" 0 584 mark 0
LayerCount: 2
Back
Fore
SplineSet
-160 682 m 256
 -160 829 -42 903 79 902 c 256
 191 901 220 813 220 738 c 256
 220 629 157 590 103 590 c 256
 35 590 -21 639 -21 738 c 256
 -21 847 43 883 77 893 c 257
 98 863 l 257
 43 863 21 794 21 738 c 256
 21 666 58 632 103 632 c 256
 148 632 178 678 178 738 c 256
 178 806 151 863 98 863 c 256
 -51 863 -118 785 -118 679 c 256
 -118 572 -37 552 0 584 c 257
 -4 537 l 257
 -34 520 -160 520 -160 682 c 256
  PathStart: -2
EndSplineSet
EndChar

StartChar: tml_MatraIi.alt3
Encoding: 61 -1 61
GlifName: tml_M_atraI_i.alt3
Width: 0
VWidth: 0
GlyphClass: 4
Flags: W
AnchorPoint: "MatraIi.alt3" 0 543 mark 0
LayerCount: 2
Back
Fore
SplineSet
-153 695 m 256
 -153 832 -52 903 69 902 c 256
 181 901 210 813 210 738 c 256
 210 629 147 590 93 590 c 256
 25 590 -31 639 -31 738 c 256
 -31 847 33 883 67 893 c 257
 88 863 l 257
 33 863 11 794 11 738 c 256
 11 666 48 632 93 632 c 256
 138 632 168 678 168 738 c 256
 168 806 141 863 88 863 c 256
 -61 863 -111 778 -111 692 c 256
 -111 581 -18 551 0 543 c 257
 -32 522 l 257
 -61 534 -153 560 -153 695 c 256
  PathStart: -2
EndSplineSet
EndChar

StartChar: tml_MatraIi.stylalt1
Encoding: 62 -1 62
GlifName: tml_M_atraI_i.stylalt1
Width: 32
VWidth: 0
GlyphClass: 4
Flags: HW
AnchorPoint: "MatraIi.stylalt1" -543 304 mark 0
LayerCount: 2
Back
Fore
SplineSet
-569 268 m 257
 -614 295 -685 415 -685 551 c 256
 -685 740 -553 954 -315 954 c 257
 -125 954 -10 862 -10 734 c 256
 -10 654 -61 601 -137 601 c 256
 -212 601 -265 658 -265 729 c 256
 -265 808 -211 863 -139 863 c 256
 -78 863 -24 792 -24 727 c 257
 -52 727 l 257
 -51 787 -84 821 -139 821 c 256
 -186 821 -223 785 -223 729 c 256
 -223 681 -185 643 -137 643 c 256
 -84 643 -51 681 -52 727 c 256
 -54 811 -64 814 -86 837 c 256
 -118 870 -193 914 -315 912 c 257
 -509 910 -643 733 -643 551 c 256
 -643 443 -587 328 -543 304 c 257
 -569 268 l 257
EndSplineSet
EndChar

StartChar: tml_MatraU
Encoding: 65 3009 65
GlifName: tml_M_atraU_
Width: 351
VWidth: 0
GlyphClass: 2
Flags: HW
AnchorPoint: "MatraU" -200 560 mark 0
LayerCount: 2
Back
Fore
SplineSet
172 211 m 256
 88 211 34 282 34 373 c 256
 34 500 100 547 156 547 c 257
 168 518 l 257
 108 518 76 456 76 378 c 256
 76 302 115 253 168 253 c 256
 233 253 267 312 267 385 c 256
 267 458 241 518 166 518 c 258
 -200 518 l 257
 -200 560 l 257
 148 560 l 258
 239 560 309 515 309 385 c 256
 309 272 251 211 172 211 c 256
EndSplineSet
EndChar

StartChar: tml_MatraU.alt1
Encoding: 66 -1 66
GlifName: tml_M_atraU_.alt1
Width: 0
VWidth: 0
GlyphClass: 2
Flags: HW
AnchorPoint: "MatraU.alt1" -92 33 mark 0
LayerCount: 2
Back
Fore
SplineSet
-92 -153 m 257
 -92 33 l 257
 -50 33 l 257
 -50 -153 l 257
 -92 -153 l 257
EndSplineSet
EndChar

StartChar: tml_MatraUu
Encoding: 67 3010 67
GlifName: tml_M_atraU_u
Width: 516
VWidth: 0
GlyphClass: 2
Flags: HW
AnchorPoint: "MatraUu" -200 560 mark 0
LayerCount: 2
Back
Fore
SplineSet
417 196 m 257
 378 212 l 257
 388 227 434 297 434 404 c 256
 434 519 372 603 253 603 c 256
 136 603 57 519 57 397 c 256
 57 310 107 260 163 260 c 256
 219 260 252 307 252 385 c 256
 252 490 166 518 84 518 c 258
 -200 518 l 257
 -200 560 l 257
 89 560 l 258
 97 560 106 560 114 559 c 256
 218 553 295 502 295 375 c 256
 295 276 242 218 160 218 c 256
 71 218 15 293 15 397 c 256
 15 538 110 645 253 645 c 256
 411 645 476 523 476 414 c 256
 476 276 417 196 417 196 c 257
EndSplineSet
EndChar

StartChar: tml_Month
Encoding: 68 3060 68
GlifName: tml_M_onth
Width: 1033
VWidth: 0
GlyphClass: 2
Flags: HW
LayerCount: 2
Back
Fore
SplineSet
572 800 m 256
 706 800 762 724 762 640 c 256
 762 567 712 532 654 532 c 256
 595 532 546 567 546 640 c 256
 546 730 616 800 735 800 c 256
 835 800 956 724 901 599 c 257
 1033 599 l 257
 1033 557 l 257
 855 557 l 257
 855 589 l 257
 914 679 839 758 735 758 c 256
 624 758 588 692 588 640 c 256
 588 601 615 574 654 574 c 256
 690 574 720 601 720 640 c 256
 720 689 682 758 572 758 c 256
 442 758 387 660 440 548 c 257
 400 536 l 257
 334 679 418 800 572 800 c 256
  PathStart: -2
EndSplineSet
Refer: 41 2990 N 1 0 0 1 12 0 2
EndChar

StartChar: tml_NU
Encoding: 69 -1 69
GlifName: tml_N_U_
Width: 1081
VWidth: 0
GlyphClass: 2
Flags: HW
LayerCount: 2
Back
Fore
SplineSet
423 -342 m 256
 150 -342 57 -268 57 -185 c 256
 57 -118 111 -106 170 -106 c 258
 989 -106 l 257
 989 573 l 257
 1031 573 l 257
 1031 -148 l 257
 167 -148 l 258
 110 -148 99 -165 99 -185 c 256
 99 -238 179 -300 423 -300 c 256
 736 -300 858 -40 858 197 c 256
 858 346 811 531 645 531 c 256
 477 531 395 388 395 214 c 256
 395 115 426 19 505 19 c 256
 583 19 611 115 611 214 c 256
 611 455 461 531 338 531 c 256
 189 531 83 407 83 238 c 256
 83 151 101 22 185 22 c 256
 243 22 276 84 276 172 c 256
 276 265 239 314 186 314 c 256
 120 314 83 236 90 148 c 257
 56 168 l 257
 57 290 119 354 189 354 c 256
 256 354 311 291 311 171 c 256
 311 59 264 -20 183 -20 c 256
 90 -20 42 86 42 237 c 256
 42 434 164 572 338 572 c 256
 493 572 653 474 653 218 c 256
 653 77 610 -23 505 -23 c 256
 403 -23 353 75 353 214 c 256
 353 425 441 571 645 572 c 256
 852 573 900 354 900 195 c 256
 900 -68 765 -342 423 -342 c 256
EndSplineSet
EndChar

StartChar: tml_NUu
Encoding: 70 -1 70
GlifName: tml_N_U_u
Width: 1363
VWidth: 0
GlyphClass: 2
Flags: HW
LayerCount: 2
Back
Fore
SplineSet
1353 573 m 257
 1353 531 l 257
 1253 531 l 257
 1253 -13 l 257
 1211 -13 l 257
 1211 531 l 257
 1031 531 l 257
 1031 573 l 257
 1353 573 l 257
EndSplineSet
Refer: 69 -1 N 1 0 0 1 12 0 2
EndChar

StartChar: tml_Na
Encoding: 71 2984 71
GlifName: tml_N_a
Width: 610
VWidth: 0
GlyphClass: 2
Flags: HW
AnchorPoint: "MatraIi" 398 560 basechar 0
AnchorPoint: "virama" 303 0 basechar 0
AnchorPoint: "MatraI.alt1" 408 560 basechar 0
LayerCount: 2
Back
Fore
SplineSet
42 1 m 257
 42 560 l 257
 458 560 l 257
 458 518 l 257
 322 518 l 257
 322 1 l 257
 280 1 l 257
 280 518 l 257
 84 518 l 257
 84 1 l 257
 42 1 l 257
171 -96 m 258
 278 -96 l 258
 473 -94 526 -5 526 123 c 256
 526 237 502 311 417 311 c 256
 365 311 322 264 322 188 c 257
 286 210 l 257
 288 275 333 352 422 351 c 256
 544 350 568 233 568 118 c 256
 568 -64 463 -135 284 -137 c 258
 176 -138 l 258
 94 -139 88 -197 87 -236 c 257
 45 -236 l 257
 46 -129 105 -96 171 -96 c 258
  PathStart: -2
EndSplineSet
EndChar

StartChar: tml_NgUu
Encoding: 72 -1 72
GlifName: tml_N_gU_u
Width: 890
VWidth: 0
GlyphClass: 2
Flags: HW
LayerCount: 2
Back
Fore
SplineSet
644 -136 m 257
 644 32 l 257
 686 33 l 257
 686 -136 l 257
 644 -136 l 257
224 -178 m 256
 224 -246 348 -300 502 -300 c 256
 666 -300 806 -209 806 -93 c 256
 806 -22 769 13 727 13 c 256
 688 13 686 -30 686 -47 c 257
 647 -34 l 257
 647 7 674 54 731 54 c 256
 797 54 848 -4 848 -93 c 256
 848 -228 687 -342 502 -342 c 256
 344 -342 182 -280 182 -178 c 256
 182 -110 236 -89 289 -89 c 257
 454 -89 l 257
 454 -131 l 257
 289 -131 l 257
 243 -131 224 -146 224 -178 c 256
  PathStart: -2
EndSplineSet
Refer: 73 2969 N 1 0 0 1 5 0 2
PickledDataWithLists: "(dp1
S'com.typemytype.robofont.layerData'
p2
(dp3
S'Light Jan 19 16, 18:52'
p4
(dp5
S'name'
p6
S'tml_NgUu'
p7
sS'lib'
p8
(dp9
sS'unicodes'
p10
(lp11
sS'width'
p12
I681
sS'contours'
p13
(lp14
(dp15
S'points'
p16
(lp17
(dp18
S'segmentType'
p19
S'line'
p20
sS'x'
I629
sS'smooth'
p21
I00
sS'y'
I-153
sa(dp22
g19
S'line'
p23
sS'x'
I629
sg21
I00
sS'y'
I32
sa(dp24
g19
S'line'
p25
sS'x'
I671
sg21
I00
sS'y'
I33
sa(dp26
g19
S'line'
p27
sS'x'
I671
sg21
I00
sS'y'
I-153
sasa(dp28
g16
(lp29
(dp30
S'y'
I-151
sS'x'
I246
sg21
I00
sa(dp31
S'y'
I-158
sS'x'
I230
sg21
I00
sa(dp32
g19
S'curve'
p33
sS'x'
I230
sg21
I01
sS'y'
I-176
sa(dp34
S'y'
I-212
sS'x'
I230
sg21
I00
sa(dp35
S'y'
I-251
sS'x'
I320
sg21
I00
sa(dp36
g19
S'curve'
p37
sS'x'
I466
sg21
I01
sS'y'
I-252
sa(dp38
S'y'
I-253
sS'x'
I603
sg21
I00
sa(dp39
S'y'
I-198
sS'x'
I744
sg21
I00
sa(dp40
g19
S'curve'
p41
sS'x'
I744
sg21
I01
sS'y'
I-95
sa(dp42
S'y'
I-44
sS'x'
I744
sg21
I00
sa(dp43
S'y'
I-22
sS'x'
I717
sg21
I00
sa(dp44
g19
S'curve'
p45
sS'x'
I695
sg21
I01
sS'y'
I-22
sa(dp46
S'y'
I-22
sS'x'
I682
sg21
I00
sa(dp47
S'y'
I-30
sS'x'
I671
sg21
I00
sa(dp48
g19
S'curve'
p49
sS'x'
I671
sg21
I00
sS'y'
I-47
sa(dp50
g19
S'line'
p51
sS'x'
I615
sg21
I00
sS'y'
I5
sa(dp52
S'y'
I43
sS'x'
I643
sg21
I00
sa(dp53
S'y'
I59
sS'x'
I675
sg21
I00
sa(dp54
g19
S'curve'
p55
sS'x'
I706
sg21
I01
sS'y'
I58
sa(dp56
S'y'
I58
sS'x'
I773
sg21
I00
sa(dp57
S'y'
I9
sS'x'
I842
sg21
I00
sa(dp58
g19
S'curve'
p59
sS'x'
I842
sg21
I01
sS'y'
I-98
sa(dp60
S'y'
I-246
sS'x'
I842
sg21
I00
sa(dp61
S'y'
I-350
sS'x'
I676
sg21
I00
sa(dp62
g19
S'curve'
p63
sS'x'
I466
sg21
I01
sS'y'
I-350
sa(dp64
S'y'
I-350
sS'x'
I269
sg21
I00
sa(dp65
S'y'
I-271
sS'x'
I122
sg21
I00
sa(dp66
g19
S'curve'
p67
sS'x'
I122
sg21
I01
sS'y'
I-176
sa(dp68
S'y'
I-112
sS'x'
I122
sg21
I00
sa(dp69
S'y'
I-59
sS'x'
I171
sg21
I00
sa(dp70
g19
S'curve'
p71
sS'x'
I272
sg21
I00
sS'y'
I-59
sa(dp72
g19
S'line'
p73
sS'x'
I439
sg21
I00
sS'y'
I-59
sa(dp74
g19
S'line'
p75
sS'x'
I439
sg21
I00
sS'y'
I-151
sa(dp76
g19
S'line'
p77
sS'x'
I272
sg21
I00
sS'y'
I-151
sasasS'components'
p78
(lp79
(dp80
S'transformation'
p81
(lp82
I1
aI0
aI0
aI1
aI0
aI0
asS'baseGlyph'
p83
S'tml_Nga'
p84
sasS'anchors'
p85
(lp86
sss."
EndChar

StartChar: tml_Nga
Encoding: 73 2969 73
GlifName: tml_N_ga
Width: 741
VWidth: 0
GlyphClass: 2
Flags: HW
AnchorPoint: "MatraIi" 660 560 basechar 0
AnchorPoint: "virama" 370 0 basechar 0
AnchorPoint: "MatraU.alt1" 649 33 basechar 0
AnchorPoint: "MatraI.alt4" 654 560 basechar 0
LayerCount: 2
Back
Fore
SplineSet
50 0 m 257
 50 560 l 257
 406 560 l 257
 406 518 l 257
 294 518 l 257
 294 164 l 257
 252 164 l 257
 252 518 l 257
 92 518 l 257
 92 0 l 257
 50 0 l 257
252 42 m 257
 668 42 l 257
 668 0 l 257
 252 0 l 257
 252 42 l 257
263 42 m 257
 420 42 481 144 481 247 c 256
 481 318 449 366 382 366 c 256
 323 366 294 319 294 274 c 257
 258 275 l 257
 258 348 313 408 391 408 c 256
 468 408 523 349 523 249 c 256
 523 118 448 6 263 6 c 257
 263 42 l 257
649 560 m 257
 691 560 l 257
 691 0 l 257
 649 0 l 257
 649 560 l 257
EndSplineSet
EndChar

StartChar: tml_Nine
Encoding: 74 3055 74
GlifName: tml_N_ine
Width: 927
VWidth: 0
GlyphClass: 2
Flags: HW
LayerCount: 2
Back
Fore
SplineSet
489 341 m 257
 686 351 703 205 703 144 c 256
 703 50 649 -1 574 -1 c 256
 503 -1 451 53 451 142 c 256
 451 298 564 360 678 360 c 256
 798 360 885 280 885 165 c 256
 885 80 843 15 807 -14 c 257
 775 16 l 257
 808 51 843 94 843 165 c 256
 843 257 769 318 678 318 c 256
 554 318 493 242 493 146 c 256
 493 90 523 41 574 41 c 256
 635 41 661 98 661 144 c 256
 661 246 598 297 528 299 c 258
 430 299 l 257
 417 341 l 257
 489 341 l 257
EndSplineSet
Refer: 10 2970 N 1 0 0 1 -0.00078072 0 2
EndChar

StartChar: tml_NnAa.alt
Encoding: 75 -1 75
GlifName: tml_N_nA_a.alt
Width: 1087
VWidth: 0
GlyphClass: 2
Flags: HW
LayerCount: 2
Back
Fore
SplineSet
587 -265 m 257
 181 -264 42 -40 42 244 c 256
 42 418 109 532 138 570 c 257
 178 551 l 257
 137 504 84 379 84 244 c 256
 84 10 184 -224 593 -223 c 257
 859 -223 1003 -88 1003 69 c 256
 1003 206 920 197 876 197 c 257
 876 239 l 257
 920 239 995 231 995 358 c 256
 995 465 926 531 805 531 c 256
 632 531 562 388 562 214 c 256
 562 115 593 19 672 19 c 256
 750 19 778 115 778 214 c 256
 778 455 623 531 500 531 c 257
 500 572 l 257
 655 572 820 470 820 214 c 256
 820 73 777 -23 672 -23 c 256
 570 -23 520 75 520 214 c 256
 520 425 612 572 804 573 c 256
 966 574 1037 472 1037 358 c 256
 1037 245 978 220 978 220 c 257
 978 220 1045 188 1045 69 c 256
 1045 -137 853 -265 587 -265 c 257
345 -20 m 256
 252 -20 204 86 204 237 c 256
 204 434 316 572 490 572 c 257
 490 531 l 257
 341 531 245 407 245 238 c 256
 245 151 263 22 347 22 c 256
 405 22 438 84 438 172 c 256
 438 265 401 314 348 314 c 256
 282 314 245 236 252 148 c 257
 218 168 l 257
 219 290 281 354 351 354 c 256
 418 354 478 291 478 171 c 256
 478 59 426 -20 345 -20 c 256
490 531 m 257
 490 572 l 257
 502 572 l 257
 502 531 l 257
 490 531 l 257
EndSplineSet
EndChar

StartChar: tml_NnU
Encoding: 76 -1 76
GlifName: tml_N_nU_
Width: 868
VWidth: 0
GlyphClass: 2
Flags: HW
LayerCount: 2
Back
Fore
SplineSet
107 1 m 257
 107 560 l 257
 523 560 l 257
 523 518 l 257
 387 518 l 257
 387 1 l 257
 345 1 l 257
 345 518 l 257
 149 518 l 257
 149 1 l 257
 107 1 l 257
304 -342 m 256
 176 -342 50 -290 50 -192 c 256
 50 -128 103 -106 163 -106 c 258
 776 -106 l 257
 776 560 l 257
 818 560 l 257
 818 -148 l 257
 160 -148 l 258
 121 -148 92 -159 92 -192 c 256
 92 -253 188 -300 302 -300 c 256
 517 -300 591 -135 591 84 c 256
 591 208 567 311 485 311 c 256
 429 311 387 264 387 188 c 257
 351 210 l 257
 353 276 399 352 487 351 c 256
 590 349 633 242 633 79 c 256
 633 -144 553 -342 304 -342 c 256
EndSplineSet
EndChar

StartChar: tml_NnUu
Encoding: 77 -1 77
GlifName: tml_N_nU_u
Width: 1150
VWidth: 0
GlyphClass: 2
Flags: HW
LayerCount: 2
Back
Fore
SplineSet
1140 560 m 257
 1140 518 l 257
 1040 518 l 257
 1040 -26 l 257
 998 -26 l 257
 998 518 l 257
 818 518 l 257
 818 560 l 257
 1140 560 l 257
EndSplineSet
Refer: 76 -1 N 1 0 0 1 28 0 2
EndChar

StartChar: tml_Nna
Encoding: 78 2979 78
GlifName: tml_N_na
Width: 1296
VWidth: 0
GlyphClass: 2
Flags: W
AnchorPoint: "MatraIi" 1218 561 basechar 0
AnchorPoint: "MatraAi.alt" 44 190 basechar 0
AnchorPoint: "virama" 707 0 basechar 0
AnchorPoint: "MatraI.alt2" 1208 561 basechar 0
LayerCount: 2
Back
Fore
SplineSet
183 -20 m 256
 90 -20 42 86 42 237 c 256
 42 434 164 572 338 572 c 256
 493 572 653 474 653 218 c 256
 653 77 610 -23 505 -23 c 256
 403 -23 353 75 353 214 c 256
 353 425 468 571 675 572 c 256
 830 572 995 474 995 218 c 256
 995 77 952 -23 847 -23 c 256
 745 -23 695 75 695 214 c 256
 695 425 807 560 999 561 c 258
 1254 561 l 257
 1254 519 l 257
 1136 519 l 257
 1136 1 l 257
 1094 1 l 257
 1094 519 l 257
 1000 519 l 258
 827 519 737 388 737 214 c 256
 737 115 768 19 847 19 c 256
 925 19 953 115 953 214 c 256
 953 455 798 531 675 531 c 256
 487 531 395 388 395 214 c 256
 395 115 426 19 505 19 c 256
 583 19 611 115 611 214 c 256
 611 455 461 531 338 531 c 256
 189 531 83 407 83 238 c 256
 83 151 101 22 185 22 c 256
 243 22 276 84 276 172 c 256
 276 265 239 314 186 314 c 256
 120 314 83 236 90 148 c 257
 56 168 l 257
 57 290 119 354 189 354 c 256
 256 354 311 291 311 171 c 256
 311 59 264 -20 183 -20 c 256
EndSplineSet
EndChar

StartChar: tml_NnnAa.alt
Encoding: 79 -1 79
GlifName: tml_N_nnA_a.alt
Width: 1417
VWidth: 0
GlyphClass: 2
Flags: W
LayerCount: 2
Back
Fore
SplineSet
888 216 m 256
 888 114 919 19 998 19 c 256
 1076 19 1104 114 1104 216 c 256
 1104 455 951 531 820 531 c 256
 641 531 546 388 546 214 c 256
 546 115 577 19 656 19 c 256
 734 19 762 114 762 216 c 256
 762 453 612 531 490 531 c 256
 340 531 234 412 234 229 c 256
 234 154 252 22 336 22 c 256
 394 22 427 84 427 172 c 256
 427 265 390 314 337 314 c 256
 271 314 234 236 241 148 c 257
 207 168 l 257
 208 292 272 354 340 354 c 256
 407 354 462 292 462 171 c 256
 462 58 414 -20 335 -20 c 256
 241 -20 193 91 193 226 c 256
 193 441 315 572 492 572 c 256
 644 572 804 475 804 214 c 256
 804 79 761 -23 656 -23 c 256
 554 -23 504 75 504 213 c 256
 504 425 622 572 821 572 c 256
 981 572 1146 478 1146 214 c 256
 1146 79 1103 -23 998 -23 c 256
 896 -23 846 74 846 216 c 256
 846 424 954 572 1146 573 c 257
 1303 574 1379 478 1379 356 c 256
 1379 249 1320 220 1320 220 c 257
 1320 220 1387 185 1387 73 c 256
 1387 -120 1189 -265 742 -265 c 256
 267 -265 30 -101 30 240 c 256
 30 424 99 534 126 570 c 257
 166 551 l 257
 124 501 72 384 72 236 c 256
 72 -83 314 -223 741 -223 c 256
 1141 -223 1345 -100 1345 77 c 256
 1345 197 1251 197 1218 197 c 257
 1218 239 l 257
 1261 239 1337 242 1337 357 c 256
 1337 466 1268 531 1147 531 c 257
 974 531 888 387 888 216 c 256
  PathStart: -2
EndSplineSet
EndChar

StartChar: tml_NnnU
Encoding: 80 -1 80
GlifName: tml_N_nnU_
Width: 1391
VWidth: 0
GlyphClass: 2
Flags: W
LayerCount: 2
Back
Fore
SplineSet
725 214 m 256
 725 115 756 19 835 19 c 256
 913 19 941 115 941 214 c 256
 941 455 786 531 663 531 c 256
 475 531 383 388 383 214 c 256
 383 115 414 19 493 19 c 256
 571 19 599 115 599 214 c 256
 599 455 449 531 326 531 c 256
 177 531 71 407 71 238 c 256
 71 151 89 22 173 22 c 256
 231 22 264 84 264 172 c 256
 264 265 227 314 174 314 c 256
 108 314 71 236 78 148 c 257
 44 168 l 257
 45 290 107 354 177 354 c 256
 244 354 299 291 299 171 c 256
 299 59 252 -20 171 -20 c 256
 78 -20 30 86 30 237 c 256
 30 434 152 572 326 572 c 256
 481 572 641 474 641 218 c 256
 641 77 598 -23 493 -23 c 256
 391 -23 341 75 341 214 c 256
 341 425 456 571 663 572 c 256
 818 572 983 474 983 218 c 256
 983 77 940 -23 835 -23 c 256
 733 -23 683 75 683 214 c 256
 683 425 795 572 977 573 c 256
 1159 574 1230 401 1230 215 c 256
 1230 -20 1067 -342 574 -342 c 256
 226 -342 68 -268 68 -185 c 256
 68 -106 156 -106 231 -106 c 258
 1319 -106 l 257
 1319 573 l 257
 1361 573 l 257
 1361 -148 l 257
 178 -148 l 258
 121 -148 110 -170 110 -185 c 256
 110 -238 274 -300 574 -300 c 256
 1027 -300 1188 10 1188 217 c 256
 1188 420 1104 531 978 531 c 256
 815 531 725 388 725 214 c 256
  PathStart: -2
EndSplineSet
EndChar

StartChar: tml_NnnUu
Encoding: 81 -1 81
GlifName: tml_N_nnU_u
Width: 1705
VWidth: 0
GlyphClass: 2
Flags: HW
LayerCount: 2
Back
Fore
SplineSet
1695 573 m 257
 1695 531 l 257
 1595 531 l 257
 1595 -13 l 257
 1553 -13 l 257
 1553 531 l 257
 1373 531 l 257
 1373 573 l 257
 1695 573 l 257
EndSplineSet
Refer: 80 -1 N 1 0 0 1 12 0 2
EndChar

StartChar: tml_Nnna
Encoding: 82 2985 82
GlifName: tml_N_nna
Width: 959
VWidth: 0
GlyphClass: 2
Flags: HW
AnchorPoint: "MatraIi" 874 561 basechar 0
AnchorPoint: "MatraAi.alt" 45 190 basechar 0
AnchorPoint: "MatraIi.alt2" 601 584 basechar 0
AnchorPoint: "virama" 507 0 basechar 0
AnchorPoint: "MatraI.alt5" 584 573 basechar 0
AnchorPoint: "MatraI.alt2" 864 561 basechar 0
LayerCount: 2
Back
Fore
SplineSet
338 531 m 257
 338 572 l 257
 493 572 658 470 658 214 c 256
 658 73 615 -23 510 -23 c 256
 408 -23 358 75 358 214 c 256
 358 425 456 560 648 561 c 258
 917 561 l 257
 917 519 l 257
 799 519 l 257
 799 1 l 257
 757 1 l 257
 757 519 l 257
 649 519 l 258
 476 519 400 388 400 214 c 256
 400 115 431 19 510 19 c 256
 588 19 616 115 616 214 c 256
 616 455 461 531 338 531 c 257
  PathStart: -2
183 -20 m 256
 90 -20 42 86 42 237 c 256
 42 434 154 572 328 572 c 257
 328 531 l 257
 179 531 83 407 83 238 c 256
 83 151 101 22 185 22 c 256
 243 22 276 84 276 172 c 256
 276 265 239 314 186 314 c 256
 120 314 83 236 90 148 c 257
 56 168 l 257
 57 290 119 354 189 354 c 256
 256 354 316 291 316 171 c 256
 316 59 264 -20 183 -20 c 256
328 531 m 257
 328 572 l 257
 340 572 l 257
 340 531 l 257
 328 531 l 257
EndSplineSet
EndChar

StartChar: tml_Number
Encoding: 83 3066 83
GlifName: tml_N_umber
Width: 1019
VWidth: 0
GlyphClass: 2
Flags: HW
LayerCount: 2
Back
Fore
SplineSet
339 537 m 257
 303 627 348 755 492 755 c 256
 659 755 801 603 801 368 c 256
 801 281 767 204 678 204 c 256
 596 204 549 274 549 376 c 256
 549 502 634 574 740 574 c 256
 854 574 961 493 962 305 c 256
 963 178 899 84 857 42 c 257
 1009 42 l 257
 1009 0 l 257
 789 0 l 257
 788 32 l 257
 847 86 920 178 920 305 c 256
 920 433 857 532 740 532 c 256
 648 532 591 452 591 376 c 256
 591 310 615 246 679 246 c 256
 744 246 759 310 759 368 c 256
 759 583 633 716 498 715 c 256
 381 714 348 621 382 537 c 257
 339 537 l 257
42 0 m 257
 42 560 l 257
 398 560 l 257
 398 518 l 257
 286 518 l 257
 286 0 l 257
 244 0 l 257
 244 518 l 257
 84 518 l 257
 84 0 l 257
 42 0 l 257
355 42 m 257
 412 42 473 114 473 227 c 256
 473 308 441 366 374 366 c 256
 315 366 286 319 286 274 c 257
 250 275 l 257
 250 348 305 408 383 408 c 256
 460 408 515 339 515 229 c 256
 515 98 451 0 355 0 c 257
 355 42 l 257
EndSplineSet
PickledDataWithLists: "(dp1
S'com.typemytype.robofont.guides'
p2
(lp3
(dp4
S'y'
I755
sS'x'
I1578
sS'angle'
p5
I0
sS'isGlobal'
p6
I00
sas."
EndChar

StartChar: tml_NyU
Encoding: 84 -1 84
GlifName: tml_N_yU_
Width: 903
VWidth: 0
GlyphClass: 2
Flags: HW
LayerCount: 2
Back
Fore
SplineSet
336 -342 m 256
 188 -342 42 -290 42 -192 c 256
 42 -128 95 -106 155 -106 c 258
 811 -106 l 257
 811 560 l 257
 853 560 l 257
 853 -148 l 257
 152 -148 l 258
 113 -148 84 -159 84 -192 c 256
 84 -253 190 -300 334 -300 c 256
 549 -300 683 -177 683 107 c 256
 683 252 620 299 569 299 c 256
 512 299 489 243 489 204 c 257
 465 222 l 257
 465 293 514 339 571 339 c 256
 672 339 725 235 725 107 c 256
 725 -187 585 -342 336 -342 c 256
EndSplineSet
Refer: 14 2958 N 1 0 0 1 20 0 2
EndChar

StartChar: tml_NyUu
Encoding: 85 -1 85
GlifName: tml_N_yU_u
Width: 1185
VWidth: 0
GlyphClass: 2
Flags: HW
LayerCount: 2
Back
Fore
SplineSet
1175 560 m 257
 1175 518 l 257
 1075 518 l 257
 1075 -13 l 257
 1033 -13 l 257
 1033 518 l 257
 853 518 l 257
 853 560 l 257
 1175 560 l 257
EndSplineSet
Refer: 84 -1 N 1 0 0 1 20 0 2
EndChar

StartChar: tml_Nya
Encoding: 86 2974 86
GlifName: tml_N_ya
Width: 906
VWidth: 0
GlyphClass: 2
Flags: W
AnchorPoint: "MatraIi" 721 560 basechar 0
AnchorPoint: "MatraI.alt1" 721 560 basechar 0
AnchorPoint: "virama" 532 0 basechar 0
LayerCount: 2
Back
Fore
SplineSet
350 -24 m 256
 257 -24 209 82 209 233 c 256
 209 430 300 560 444 560 c 257
 446 519 l 257
 327 519 250 403 250 234 c 256
 250 147 268 18 352 18 c 256
 410 18 443 80 443 168 c 256
 443 261 406 310 353 310 c 256
 287 310 250 232 257 144 c 257
 223 164 l 257
 224 286 286 350 356 350 c 256
 423 350 483 287 483 167 c 256
 483 55 431 -24 350 -24 c 256
486 -275 m 256
 208 -274 42 -68 42 227 c 256
 42 368 80 487 138 572 c 257
 175 550 l 257
 119 467 86 370 86 227 c 256
 86 -27 226 -231 487 -231 c 256
 759 -231 822 -24 822 124 c 256
 822 263 774 316 709 316 c 256
 631 316 619 247 620 212 c 257
 593 223 l 257
 593 292 632 356 713 356 c 256
 807 356 864 270 864 121 c 256
 864 -67 775 -276 486 -275 c 256
  PathStart: -2
443 519 m 257
 441 560 l 257
 756 560 l 257
 756 519 l 257
 620 519 l 257
 620 1 l 257
 578 1 l 257
 578 519 l 257
 443 519 l 257
EndSplineSet
EndChar

StartChar: tml_O
Encoding: 87 2962 87
GlifName: tml_O_
Width: 686
VWidth: 0
GlyphClass: 2
Flags: W
LayerCount: 2
Back
Fore
SplineSet
492 152 m 256
 402 152 368 230 368 299 c 257
 410 299 l 257
 410 269 420 194 492 194 c 256
 564 194 602 256 602 345 c 256
 602 495 469 568 355 568 c 256
 182 568 84 443 84 290 c 256
 84 236 114 188 173 188 c 256
 225 188 262 231 262 285 c 256
 262 336 232 380 177 380 c 256
 116 380 84 341 84 290 c 257
 52 293 l 257
 52 366 100 422 180 422 c 256
 250 422 304 364 304 285 c 256
 304 204 247 146 177 146 c 256
 88 146 42 211 42 307 c 256
 42 483 159 610 355 610 c 256
 518 610 644 501 644 340 c 256
 644 226 579 152 492 152 c 256
  PathStart: -1
333 -164 m 256
 226 -164 149 -85 149 23 c 257
 191 23 l 257
 191 -40 233 -122 333 -122 c 256
 423 -122 480 -58 480 42 c 257
 489 33 l 257
 415 33 368 83 368 170 c 258
 368 299 l 257
 408 299 l 257
 409 169 l 258
 409 108 432 73 487 73 c 258
 608 73 l 257
 608 31 l 257
 502 31 l 257
 521 36 l 257
 521 -78 449 -164 333 -164 c 256
  PathStart: -1
EndSplineSet
EndChar

StartChar: tml_Om
Encoding: 88 3024 88
GlifName: tml_O_m
Width: 706
VWidth: 0
GlyphClass: 2
Flags: HW
LayerCount: 2
Back
Fore
SplineSet
177 146 m 256
 88 146 42 211 42 307 c 256
 42 483 169 610 365 610 c 256
 528 610 664 501 664 340 c 256
 664 226 599 152 512 152 c 256
 422 152 388 230 388 299 c 257
 430 299 l 257
 430 269 440 194 512 194 c 256
 584 194 622 256 622 345 c 256
 622 495 479 568 365 568 c 256
 192 568 84 443 84 290 c 256
 84 236 114 188 173 188 c 256
 225 188 262 231 262 285 c 256
 262 336 232 380 177 380 c 256
 116 380 84 341 84 290 c 257
 52 293 l 257
 52 366 100 422 180 422 c 256
 250 422 304 364 304 285 c 256
 304 204 247 146 177 146 c 256
  PathStart: -2
333 -164 m 256
 226 -164 129 -85 129 23 c 257
 171 23 l 257
 171 -40 233 -122 333 -122 c 256
 423 -122 500 -58 500 42 c 257
 509 33 l 257
 435 33 388 83 388 170 c 258
 388 299 l 257
 428 299 l 257
 429 169 l 258
 429 108 452 73 507 73 c 258
 628 73 l 257
 628 31 l 257
 522 31 l 257
 541 36 l 257
 541 -78 449 -164 333 -164 c 256
  PathStart: -2
278 -76 m 257
 278 50 l 257
 301 50 l 257
 301 -52 l 257
 354 -52 l 257
 357 -76 l 257
 278 -76 l 257
331 -64 m 257
 331 23 l 258
 331 42 339 55 359 55 c 256
 395 55 412 23 412 -5 c 256
 412 -44 389 -76 357 -76 c 257
 353 -52 l 257
 376 -52 388 -29 388 -5 c 256
 388 9 382 30 366 30 c 256
 359 30 354 26 354 17 c 258
 354 -64 l 257
 331 -64 l 257
354 83 m 256
 354 95 345 104 334 104 c 256
 323 104 316 95 316 83 c 256
 316 72 323 65 334 65 c 256
 345 65 354 72 354 83 c 256
  PathStart: -2
EndSplineSet
PickledDataWithLists: "(dp1
S'com.typemytype.robofont.layerData'
p2
(dp3
S'Light Jan 21 16, 04:30'
p4
(dp5
S'name'
p6
S'tml_Om'
p7
sS'lib'
p8
(dp9
sS'unicodes'
p10
(lp11
sS'width'
p12
I600
sS'contours'
p13
(lp14
(dp15
S'points'
p16
(lp17
(dp18
S'y'
I204
sS'x'
I303
sS'smooth'
p19
I00
sa(dp20
S'y'
I146
sS'x'
I246
sg19
I00
sa(dp21
S'segmentType'
p22
S'curve'
p23
sS'x'
I176
sg19
I01
sS'y'
I146
sa(dp24
S'y'
I146
sS'x'
I87
sg19
I00
sa(dp25
S'y'
I211
sS'x'
I41
sg19
I00
sa(dp26
g22
S'curve'
p27
sS'x'
I41
sg19
I01
sS'y'
I307
sa(dp28
S'y'
I483
sS'x'
I41
sg19
I00
sa(dp29
S'y'
I610
sS'x'
I158
sg19
I00
sa(dp30
g22
S'curve'
p31
sS'x'
I354
sg19
I01
sS'y'
I610
sa(dp32
S'y'
I610
sS'x'
I517
sg19
I00
sa(dp33
S'y'
I501
sS'x'
I643
sg19
I00
sa(dp34
g22
S'curve'
p35
sS'x'
I643
sg19
I01
sS'y'
I340
sa(dp36
S'y'
I226
sS'x'
I643
sg19
I00
sa(dp37
S'y'
I152
sS'x'
I578
sg19
I00
sa(dp38
g22
S'curve'
p39
sS'x'
I491
sg19
I01
sS'y'
I152
sa(dp40
S'y'
I152
sS'x'
I401
sg19
I00
sa(dp41
S'y'
I230
sS'x'
I367
sg19
I00
sa(dp42
g22
S'curve'
p43
sS'x'
I367
sg19
I00
sS'y'
I299
sa(dp44
g22
S'line'
p45
sS'x'
I409
sg19
I00
sS'y'
I299
sa(dp46
S'y'
I269
sS'x'
I409
sg19
I00
sa(dp47
S'y'
I194
sS'x'
I419
sg19
I00
sa(dp48
g22
S'curve'
p49
sS'x'
I491
sg19
I01
sS'y'
I194
sa(dp50
S'y'
I194
sS'x'
I563
sg19
I00
sa(dp51
S'y'
I256
sS'x'
I601
sg19
I00
sa(dp52
g22
S'curve'
p53
sS'x'
I601
sg19
I01
sS'y'
I345
sa(dp54
S'y'
I495
sS'x'
I601
sg19
I00
sa(dp55
S'y'
I568
sS'x'
I468
sg19
I00
sa(dp56
g22
S'curve'
p57
sS'x'
I354
sg19
I01
sS'y'
I568
sa(dp58
S'y'
I568
sS'x'
I181
sg19
I00
sa(dp59
S'y'
I443
sS'x'
I83
sg19
I00
sa(dp60
g22
S'curve'
p61
sS'x'
I83
sg19
I01
sS'y'
I290
sa(dp62
S'y'
I236
sS'x'
I83
sg19
I00
sa(dp63
S'y'
I188
sS'x'
I113
sg19
I00
sa(dp64
g22
S'curve'
p65
sS'x'
I172
sg19
I01
sS'y'
I188
sa(dp66
S'y'
I188
sS'x'
I224
sg19
I00
sa(dp67
S'y'
I231
sS'x'
I261
sg19
I00
sa(dp68
g22
S'curve'
p69
sS'x'
I261
sg19
I01
sS'y'
I285
sa(dp70
S'y'
I336
sS'x'
I261
sg19
I00
sa(dp71
S'y'
I380
sS'x'
I231
sg19
I00
sa(dp72
g22
S'curve'
p73
sS'x'
I176
sg19
I01
sS'y'
I380
sa(dp74
S'y'
I380
sS'x'
I115
sg19
I00
sa(dp75
S'y'
I341
sS'x'
I83
sg19
I00
sa(dp76
g22
S'curve'
p77
sS'x'
I83
sg19
I00
sS'y'
I290
sa(dp78
g22
S'line'
p79
sS'x'
I51
sg19
I00
sS'y'
I293
sa(dp80
S'y'
I366
sS'x'
I51
sg19
I00
sa(dp81
S'y'
I422
sS'x'
I99
sg19
I00
sa(dp82
g22
S'curve'
p83
sS'x'
I179
sg19
I01
sS'y'
I422
sa(dp84
S'y'
I422
sS'x'
I249
sg19
I00
sa(dp85
S'y'
I364
sS'x'
I303
sg19
I00
sa(dp86
g22
S'curve'
p87
sS'x'
I303
sg19
I01
sS'y'
I285
sasa(dp88
g16
(lp89
(dp90
S'y'
I-78
sS'x'
I520
sg19
I00
sa(dp91
S'y'
I-164
sS'x'
I448
sg19
I00
sa(dp92
g22
S'curve'
p93
sS'x'
I332
sg19
I01
sS'y'
I-164
sa(dp94
S'y'
I-164
sS'x'
I225
sg19
I00
sa(dp95
S'y'
I-85
sS'x'
I148
sg19
I00
sa(dp96
g22
S'curve'
p97
sS'x'
I148
sg19
I00
sS'y'
I23
sa(dp98
g22
S'line'
p99
sS'x'
I190
sg19
I00
sS'y'
I23
sa(dp100
S'y'
I-40
sS'x'
I190
sg19
I00
sa(dp101
S'y'
I-122
sS'x'
I232
sg19
I00
sa(dp102
g22
S'curve'
p103
sS'x'
I332
sg19
I01
sS'y'
I-122
sa(dp104
S'y'
I-122
sS'x'
I422
sg19
I00
sa(dp105
S'y'
I-58
sS'x'
I479
sg19
I00
sa(dp106
g22
S'curve'
p107
sS'x'
I479
sg19
I00
sS'y'
I42
sa(dp108
g22
S'line'
p109
sS'x'
I488
sg19
I00
sS'y'
I33
sa(dp110
S'y'
I33
sS'x'
I414
sg19
I00
sa(dp111
S'y'
I83
sS'x'
I367
sg19
I00
sa(dp112
g22
S'curve'
p113
sS'x'
I367
sg19
I01
sS'y'
I170
sa(dp114
g22
S'line'
p115
sS'x'
I367
sg19
I00
sS'y'
I299
sa(dp116
g22
S'line'
p117
sS'x'
I407
sg19
I00
sS'y'
I299
sa(dp118
g22
S'line'
p119
sS'x'
I408
sg19
I01
sS'y'
I169
sa(dp120
S'y'
I108
sS'x'
I408
sg19
I00
sa(dp121
S'y'
I73
sS'x'
I431
sg19
I00
sa(dp122
g22
S'curve'
p123
sS'x'
I486
sg19
I01
sS'y'
I73
sa(dp124
g22
S'line'
p125
sS'x'
I607
sg19
I00
sS'y'
I73
sa(dp126
g22
S'line'
p127
sS'x'
I607
sg19
I00
sS'y'
I31
sa(dp128
g22
S'line'
p129
sS'x'
I501
sg19
I00
sS'y'
I31
sa(dp130
g22
S'line'
p131
sS'x'
I520
sg19
I00
sS'y'
I36
sasa(dp132
g16
(lp133
(dp134
g22
S'line'
p135
sS'x'
I292
sg19
I00
sS'y'
I-70
sa(dp136
g22
S'line'
p137
sS'x'
I292
sg19
I00
sS'y'
I26
sa(dp138
g22
S'line'
p139
sS'x'
I315
sg19
I00
sS'y'
I26
sa(dp140
g22
S'line'
p141
sS'x'
I315
sg19
I00
sS'y'
I-49
sa(dp142
g22
S'line'
p143
sS'x'
I350
sg19
I00
sS'y'
I-49
sa(dp144
g22
S'line'
p145
sS'x'
I353
sg19
I00
sS'y'
I-70
sasa(dp146
g16
(lp147
(dp148
g22
S'line'
p149
sS'x'
I332
sg19
I00
sS'y'
I-54
sa(dp150
g22
S'line'
p151
sS'x'
I332
sg19
I01
sS'y'
I5
sa(dp152
S'y'
I20
sS'x'
I332
sg19
I00
sa(dp153
S'y'
I29
sS'x'
I339
sg19
I00
sa(dp154
g22
S'curve'
p155
sS'x'
I354
sg19
I01
sS'y'
I29
sa(dp156
S'y'
I29
sS'x'
I381
sg19
I00
sa(dp157
S'y'
I5
sS'x'
I394
sg19
I00
sa(dp158
g22
S'curve'
p159
sS'x'
I394
sg19
I01
sS'y'
I-16
sa(dp160
S'y'
I-46
sS'x'
I394
sg19
I00
sa(dp161
S'y'
I-70
sS'x'
I377
sg19
I00
sa(dp162
g22
S'curve'
p163
sS'x'
I353
sg19
I00
sS'y'
I-70
sa(dp164
g22
S'line'
p165
sS'x'
I349
sg19
I00
sS'y'
I-49
sa(dp166
S'y'
I-49
sS'x'
I367
sg19
I00
sa(dp167
S'y'
I-30
sS'x'
I373
sg19
I00
sa(dp168
g22
S'curve'
p169
sS'x'
I373
sg19
I01
sS'y'
I-16
sa(dp170
S'y'
I-5
sS'x'
I373
sg19
I00
sa(dp171
S'y'
I8
sS'x'
I368
sg19
I00
sa(dp172
g22
S'curve'
p173
sS'x'
I359
sg19
I01
sS'y'
I8
sa(dp174
S'y'
I8
sS'x'
I354
sg19
I00
sa(dp175
S'y'
I3
sS'x'
I353
sg19
I00
sa(dp176
g22
S'curve'
p177
sS'x'
I353
sg19
I01
sS'y'
I-2
sa(dp178
g22
S'line'
p179
sS'x'
I353
sg19
I00
sS'y'
I-54
sasa(dp180
g16
(lp181
(dp182
S'y'
I37
sS'x'
I343
sg19
I00
sa(dp183
S'y'
I43
sS'x'
I350
sg19
I00
sa(dp184
g22
S'curve'
p185
sS'x'
I350
sg19
I01
sS'y'
I51
sa(dp186
S'y'
I60
sS'x'
I350
sg19
I00
sa(dp187
S'y'
I67
sS'x'
I343
sg19
I00
sa(dp188
g22
S'curve'
p189
sS'x'
I335
sg19
I01
sS'y'
I67
sa(dp190
S'y'
I67
sS'x'
I326
sg19
I00
sa(dp191
S'y'
I60
sS'x'
I321
sg19
I00
sa(dp192
g22
S'curve'
p193
sS'x'
I321
sg19
I01
sS'y'
I51
sa(dp194
S'y'
I43
sS'x'
I321
sg19
I00
sa(dp195
S'y'
I37
sS'x'
I326
sg19
I00
sa(dp196
g22
S'curve'
p197
sS'x'
I335
sg19
I01
sS'y'
I37
sasa(dp198
g16
(lp199
(dp200
S'y'
I-66
sS'x'
I384
sg19
I00
sa(dp201
S'y'
I-10
sS'x'
I428
sg19
I00
sa(dp202
g22
S'curve'
p203
sS'x'
I435
sg19
I00
sS'y'
I62
sa(dp204
g22
S'line'
p205
sS'x'
I461
sg19
I00
sS'y'
I14
sa(dp206
S'y'
I14
sS'x'
I387
sg19
I00
sa(dp207
S'y'
I73
sS'x'
I337
sg19
I00
sa(dp208
g22
S'curve'
p209
sS'x'
I337
sg19
I01
sS'y'
I160
sa(dp210
g22
S'line'
p211
sS'x'
I337
sg19
I00
sS'y'
I299
sa(dp212
g22
S'line'
p213
sS'x'
I434
sg19
I00
sS'y'
I299
sa(dp214
g22
S'line'
p215
sS'x'
I434
sg19
I01
sS'y'
I159
sa(dp216
S'y'
I109
sS'x'
I434
sg19
I00
sa(dp217
S'y'
I98
sS'x'
I451
sg19
I00
sa(dp218
g22
S'curve'
p219
sS'x'
I486
sg19
I01
sS'y'
I98
sa(dp220
g22
S'line'
p221
sS'x'
I607
sg19
I00
sS'y'
I98
sa(dp222
g22
S'line'
p223
sS'x'
I607
sg19
I00
sS'y'
I12
sa(dp224
g22
S'line'
p225
sS'x'
I491
sg19
I00
sS'y'
I12
sa(dp226
g22
S'line'
p227
sS'x'
I528
sg19
I00
sS'y'
I15
sa(dp228
S'y'
I-86
sS'x'
I506
sg19
I00
sa(dp229
S'y'
I-164
sS'x'
I424
sg19
I00
sa(dp230
g22
S'curve'
p231
sS'x'
I294
sg19
I01
sS'y'
I-164
sa(dp232
S'y'
I-164
sS'x'
I170
sg19
I00
sa(dp233
S'y'
I-85
sS'x'
I67
sg19
I00
sa(dp234
g22
S'curve'
p235
sS'x'
I67
sg19
I00
sS'y'
I23
sa(dp236
g22
S'line'
p237
sS'x'
I166
sg19
I00
sS'y'
I23
sa(dp238
S'y'
I-27
sS'x'
I166
sg19
I00
sa(dp239
S'y'
I-66
sS'x'
I217
sg19
I00
sa(dp240
g22
S'curve'
p241
sS'x'
I294
sg19
I00
sS'y'
I-66
sasa(dp242
g16
(lp243
(dp244
g22
S'line'
p245
sS'x'
I233
sg19
I00
sS'y'
I-41
sa(dp246
g22
S'line'
p247
sS'x'
I233
sg19
I00
sS'y'
I76
sa(dp248
g22
S'line'
p249
sS'x'
I260
sg19
I00
sS'y'
I76
sa(dp250
g22
S'line'
p251
sS'x'
I260
sg19
I00
sS'y'
I-16
sa(dp252
g22
S'line'
p253
sS'x'
I303
sg19
I00
sS'y'
I-16
sa(dp254
g22
S'line'
p255
sS'x'
I308
sg19
I00
sS'y'
I-41
sasa(dp256
g16
(lp257
(dp258
g22
S'line'
p259
sS'x'
I281
sg19
I00
sS'y'
I-24
sa(dp260
g22
S'line'
p261
sS'x'
I281
sg19
I01
sS'y'
I50
sa(dp262
S'y'
I70
sS'x'
I281
sg19
I00
sa(dp263
S'y'
I79
sS'x'
I290
sg19
I00
sa(dp264
g22
S'curve'
p265
sS'x'
I309
sg19
I01
sS'y'
I79
sa(dp266
S'y'
I79
sS'x'
I342
sg19
I00
sa(dp267
S'y'
I50
sS'x'
I357
sg19
I00
sa(dp268
g22
S'curve'
p269
sS'x'
I357
sg19
I01
sS'y'
I24
sa(dp270
S'y'
I-12
sS'x'
I357
sg19
I00
sa(dp271
S'y'
I-41
sS'x'
I336
sg19
I00
sa(dp272
g22
S'curve'
p273
sS'x'
I308
sg19
I00
sS'y'
I-41
sa(dp274
g22
S'line'
p275
sS'x'
I302
sg19
I00
sS'y'
I-16
sa(dp276
S'y'
I-16
sS'x'
I324
sg19
I00
sa(dp277
S'y'
I7
sS'x'
I332
sg19
I00
sa(dp278
g22
S'curve'
p279
sS'x'
I332
sg19
I01
sS'y'
I24
sa(dp280
S'y'
I37
sS'x'
I332
sg19
I00
sa(dp281
S'y'
I53
sS'x'
I327
sg19
I00
sa(dp282
g22
S'curve'
p283
sS'x'
I314
sg19
I01
sS'y'
I53
sa(dp284
S'y'
I53
sS'x'
I309
sg19
I00
sa(dp285
S'y'
I48
sS'x'
I308
sg19
I00
sa(dp286
g22
S'curve'
p287
sS'x'
I308
sg19
I01
sS'y'
I42
sa(dp288
g22
S'line'
p289
sS'x'
I308
sg19
I00
sS'y'
I-24
sasa(dp290
g16
(lp291
(dp292
S'y'
I90
sS'x'
I295
sg19
I00
sa(dp293
S'y'
I96
sS'x'
I303
sg19
I00
sa(dp294
g22
S'curve'
p295
sS'x'
I303
sg19
I01
sS'y'
I108
sa(dp296
S'y'
I118
sS'x'
I303
sg19
I00
sa(dp297
S'y'
I127
sS'x'
I295
sg19
I00
sa(dp298
g22
S'curve'
p299
sS'x'
I284
sg19
I01
sS'y'
I127
sa(dp300
S'y'
I127
sS'x'
I275
sg19
I00
sa(dp301
S'y'
I118
sS'x'
I267
sg19
I00
sa(dp302
g22
S'curve'
p303
sS'x'
I267
sg19
I01
sS'y'
I108
sa(dp304
S'y'
I96
sS'x'
I267
sg19
I00
sa(dp305
S'y'
I90
sS'x'
I275
sg19
I00
sa(dp306
g22
S'curve'
p307
sS'x'
I284
sg19
I01
sS'y'
I90
sasa(dp308
g16
(lp309
(dp310
S'y'
I512
sS'x'
I155
sg19
I00
sa(dp311
S'y'
I413
sS'x'
I92
sg19
I00
sa(dp312
g22
S'curve'
p313
sS'x'
I92
sg19
I01
sS'y'
I300
sa(dp314
S'y'
I260
sS'x'
I92
sg19
I00
sa(dp315
S'y'
I231
sS'x'
I104
sg19
I00
sa(dp316
g22
S'curve'
p317
sS'x'
I134
sg19
I01
sS'y'
I231
sa(dp318
S'y'
I231
sS'x'
I166
sg19
I00
sa(dp319
S'y'
I255
sS'x'
I179
sg19
I00
sa(dp320
g22
S'curve'
p321
sS'x'
I179
sg19
I01
sS'y'
I289
sa(dp322
S'y'
I320
sS'x'
I179
sg19
I00
sa(dp323
S'y'
I343
sS'x'
I167
sg19
I00
sa(dp324
g22
S'curve'
p325
sS'x'
I136
sg19
I01
sS'y'
I343
sa(dp326
S'y'
I343
sS'x'
I106
sg19
I00
sa(dp327
S'y'
I321
sS'x'
I93
sg19
I00
sa(dp328
g22
S'curve'
p329
sS'x'
I92
sg19
I00
sS'y'
I290
sa(dp330
g22
S'line'
p331
sS'x'
I34
sg19
I00
sS'y'
I296
sa(dp332
S'y'
I369
sS'x'
I34
sg19
I00
sa(dp333
S'y'
I422
sS'x'
I78
sg19
I00
sa(dp334
g22
S'curve'
p335
sS'x'
I152
sg19
I01
sS'y'
I422
sa(dp336
S'y'
I422
sS'x'
I222
sg19
I00
sa(dp337
S'y'
I364
sS'x'
I263
sg19
I00
sa(dp338
g22
S'curve'
p339
sS'x'
I263
sg19
I01
sS'y'
I285
sa(dp340
S'y'
I204
sS'x'
I263
sg19
I00
sa(dp341
S'y'
I146
sS'x'
I216
sg19
I00
sa(dp342
g22
S'curve'
p343
sS'x'
I136
sg19
I01
sS'y'
I146
sa(dp344
S'y'
I146
sS'x'
I52
sg19
I00
sa(dp345
S'y'
I214
sS'x'
I1
sg19
I00
sa(dp346
g22
S'curve'
p347
sS'x'
I1
sg19
I01
sS'y'
I307
sa(dp348
S'y'
I449
sS'x'
I1
sg19
I00
sa(dp349
S'y'
I610
sS'x'
I93
sg19
I00
sa(dp350
g22
S'curve'
p351
sS'x'
I329
sg19
I01
sS'y'
I610
sa(dp352
S'y'
I610
sS'x'
I532
sg19
I00
sa(dp353
S'y'
I481
sS'x'
I643
sg19
I00
sa(dp354
g22
S'curve'
p355
sS'x'
I643
sg19
I01
sS'y'
I350
sa(dp356
S'y'
I235
sS'x'
I643
sg19
I00
sa(dp357
S'y'
I152
sS'x'
I573
sg19
I00
sa(dp358
g22
S'curve'
p359
sS'x'
I476
sg19
I01
sS'y'
I152
sa(dp360
S'y'
I152
sS'x'
I389
sg19
I00
sa(dp361
S'y'
I230
sS'x'
I337
sg19
I00
sa(dp362
g22
S'curve'
p363
sS'x'
I337
sg19
I00
sS'y'
I299
sa(dp364
g22
S'line'
p365
sS'x'
I436
sg19
I00
sS'y'
I299
sa(dp366
S'y'
I269
sS'x'
I436
sg19
I00
sa(dp367
S'y'
I243
sS'x'
I444
sg19
I00
sa(dp368
g22
S'curve'
p369
sS'x'
I477
sg19
I01
sS'y'
I243
sa(dp370
S'y'
I243
sS'x'
I514
sg19
I00
sa(dp371
S'y'
I286
sS'x'
I541
sg19
I00
sa(dp372
g22
S'curve'
p373
sS'x'
I541
sg19
I01
sS'y'
I345
sa(dp374
S'y'
I437
sS'x'
I541
sg19
I00
sa(dp375
S'y'
I512
sS'x'
I451
sg19
I00
sa(dp376
g22
S'curve'
p377
sS'x'
I329
sg19
I01
sS'y'
I512
sasasS'components'
p378
(lp379
sS'anchors'
p380
(lp381
sss."
EndChar

StartChar: tml_Oo
Encoding: 90 2963 90
GlifName: tml_O_o
Width: 686
VWidth: 0
GlyphClass: 2
Flags: W
LayerCount: 2
Back
Fore
SplineSet
177 146 m 256
 88 146 42 211 42 307 c 256
 42 483 159 610 355 610 c 256
 518 610 644 501 644 340 c 256
 644 226 579 152 492 152 c 256
 402 152 368 230 368 299 c 257
 410 299 l 257
 410 269 420 194 492 194 c 256
 564 194 602 256 602 345 c 256
 602 495 469 568 355 568 c 256
 182 568 84 443 84 290 c 256
 84 236 114 188 173 188 c 256
 225 188 262 231 262 285 c 256
 262 336 232 380 177 380 c 256
 116 380 84 341 84 290 c 257
 52 293 l 257
 52 366 100 422 180 422 c 256
 250 422 304 364 304 285 c 256
 304 204 247 146 177 146 c 256
331 -164 m 256
 232 -164 129 -108 129 0 c 256
 129 96 202 121 246 121 c 256
 300 121 360 91 360 7 c 256
 360 -69 313 -116 261 -135 c 257
 237 -107 l 257
 283 -86 319 -46 319 2 c 256
 319 50 289 79 246 79 c 256
 186 79 169 34 169 0 c 256
 169 -64 231 -122 331 -122 c 256
 421 -122 480 -58 480 42 c 257
 489 33 l 257
 415 33 368 83 368 170 c 258
 368 299 l 257
 408 299 l 257
 409 169 l 258
 409 108 432 73 487 73 c 258
 608 73 l 257
 608 31 l 257
 502 31 l 257
 521 36 l 257
 521 -78 447 -164 331 -164 c 256
EndSplineSet
EndChar

StartChar: tml_PUu
Encoding: 91 -1 91
GlifName: tml_P_U_u
Width: 684
VWidth: 0
GlyphClass: 2
Flags: HW
LayerCount: 2
Back
Fore
SplineSet
470 -136 m 257
 470 32 l 257
 512 33 l 257
 512 -136 l 257
 470 -136 l 257
92 -180 m 256
 92 -241 201 -300 355 -300 c 256
 519 -300 632 -209 632 -93 c 256
 632 -22 595 13 553 13 c 256
 514 13 512 -30 512 -47 c 257
 473 -34 l 257
 473 7 500 54 557 54 c 256
 623 54 674 -4 674 -93 c 256
 674 -228 540 -342 355 -342 c 256
 197 -342 50 -282 50 -180 c 256
 50 -112 109 -89 162 -89 c 257
 280 -89 l 257
 280 -131 l 257
 165 -131 l 257
 119 -131 92 -146 92 -180 c 256
  PathStart: -2
EndSplineSet
Refer: 92 2986 N 1 0 0 1 33 0 2
PickledDataWithLists: "(dp1
S'com.typemytype.robofont.layerData'
p2
(dp3
S'Light Jan 19 16, 19:21'
p4
(dp5
S'name'
p6
S'tml_PUu'
p7
sS'lib'
p8
(dp9
sS'unicodes'
p10
(lp11
sS'width'
p12
I661
sS'contours'
p13
(lp14
(dp15
S'points'
p16
(lp17
(dp18
S'segmentType'
p19
S'line'
p20
sS'x'
I437
sS'smooth'
p21
I00
sS'y'
I-136
sa(dp22
g19
S'line'
p23
sS'x'
I437
sg21
I00
sS'y'
I32
sa(dp24
g19
S'line'
p25
sS'x'
I479
sg21
I00
sS'y'
I33
sa(dp26
g19
S'line'
p27
sS'x'
I479
sg21
I00
sS'y'
I-136
sasa(dp28
g16
(lp29
(dp30
S'y'
I-131
sS'x'
I86
sg21
I00
sa(dp31
S'y'
I-146
sS'x'
I67
sg21
I00
sa(dp32
g19
S'curve'
p33
sS'x'
I67
sg21
I01
sS'y'
I-178
sa(dp34
S'y'
I-246
sS'x'
I67
sg21
I00
sa(dp35
S'y'
I-300
sS'x'
I141
sg21
I00
sa(dp36
g19
S'curve'
p37
sS'x'
I295
sg21
I01
sS'y'
I-300
sa(dp38
S'y'
I-300
sS'x'
I459
sg21
I00
sa(dp39
S'y'
I-209
sS'x'
I599
sg21
I00
sa(dp40
g19
S'curve'
p41
sS'x'
I599
sg21
I01
sS'y'
I-93
sa(dp42
S'y'
I-22
sS'x'
I599
sg21
I00
sa(dp43
S'y'
I13
sS'x'
I562
sg21
I00
sa(dp44
g19
S'curve'
p45
sS'x'
I520
sg21
I01
sS'y'
I13
sa(dp46
S'y'
I13
sS'x'
I481
sg21
I00
sa(dp47
S'y'
I-30
sS'x'
I479
sg21
I00
sa(dp48
g19
S'curve'
p49
sS'x'
I479
sg21
I00
sS'y'
I-47
sa(dp50
g19
S'line'
p51
sS'x'
I440
sg21
I00
sS'y'
I-34
sa(dp52
S'y'
I7
sS'x'
I440
sg21
I00
sa(dp53
S'y'
I54
sS'x'
I467
sg21
I00
sa(dp54
g19
S'curve'
p55
sS'x'
I524
sg21
I01
sS'y'
I54
sa(dp56
S'y'
I54
sS'x'
I590
sg21
I00
sa(dp57
S'y'
I-4
sS'x'
I641
sg21
I00
sa(dp58
g19
S'curve'
p59
sS'x'
I641
sg21
I01
sS'y'
I-93
sa(dp60
S'y'
I-228
sS'x'
I641
sg21
I00
sa(dp61
S'y'
I-342
sS'x'
I480
sg21
I00
sa(dp62
g19
S'curve'
p63
sS'x'
I295
sg21
I01
sS'y'
I-342
sa(dp64
S'y'
I-342
sS'x'
I137
sg21
I00
sa(dp65
S'y'
I-280
sS'x'
I25
sg21
I00
sa(dp66
g19
S'curve'
p67
sS'x'
I25
sg21
I01
sS'y'
I-178
sa(dp68
S'y'
I-110
sS'x'
I25
sg21
I00
sa(dp69
S'y'
I-89
sS'x'
I79
sg21
I00
sa(dp70
g19
S'curve'
p71
sS'x'
I132
sg21
I00
sS'y'
I-89
sa(dp72
g19
S'line'
p73
sS'x'
I247
sg21
I00
sS'y'
I-89
sa(dp74
g19
S'line'
p75
sS'x'
I247
sg21
I00
sS'y'
I-131
sa(dp76
g19
S'line'
p77
sS'x'
I132
sg21
I00
sS'y'
I-131
sasa(dp78
g16
(lp79
(dp80
S'y'
I-151
sS'x'
I114
sg21
I00
sa(dp81
S'y'
I-158
sS'x'
I98
sg21
I00
sa(dp82
g19
S'curve'
p83
sS'x'
I98
sg21
I01
sS'y'
I-176
sa(dp84
S'y'
I-212
sS'x'
I98
sg21
I00
sa(dp85
S'y'
I-251
sS'x'
I178
sg21
I00
sa(dp86
g19
S'curve'
p87
sS'x'
I304
sg21
I01
sS'y'
I-252
sa(dp88
S'y'
I-253
sS'x'
I431
sg21
I00
sa(dp89
S'y'
I-198
sS'x'
I552
sg21
I00
sa(dp90
g19
S'curve'
p91
sS'x'
I552
sg21
I01
sS'y'
I-95
sa(dp92
S'y'
I-44
sS'x'
I552
sg21
I00
sa(dp93
S'y'
I-22
sS'x'
I525
sg21
I00
sa(dp94
g19
S'curve'
p95
sS'x'
I503
sg21
I01
sS'y'
I-22
sa(dp96
S'y'
I-22
sS'x'
I490
sg21
I00
sa(dp97
S'y'
I-30
sS'x'
I479
sg21
I00
sa(dp98
g19
S'curve'
p99
sS'x'
I479
sg21
I00
sS'y'
I-47
sa(dp100
g19
S'line'
p101
sS'x'
I423
sg21
I00
sS'y'
I5
sa(dp102
S'y'
I43
sS'x'
I451
sg21
I00
sa(dp103
S'y'
I59
sS'x'
I483
sg21
I00
sa(dp104
g19
S'curve'
p105
sS'x'
I514
sg21
I01
sS'y'
I58
sa(dp106
S'y'
I58
sS'x'
I581
sg21
I00
sa(dp107
S'y'
I9
sS'x'
I650
sg21
I00
sa(dp108
g19
S'curve'
p109
sS'x'
I650
sg21
I01
sS'y'
I-98
sa(dp110
S'y'
I-246
sS'x'
I650
sg21
I00
sa(dp111
S'y'
I-350
sS'x'
I514
sg21
I00
sa(dp112
g19
S'curve'
p113
sS'x'
I304
sg21
I01
sS'y'
I-350
sa(dp114
S'y'
I-350
sS'x'
I117
sg21
I00
sa(dp115
S'y'
I-271
sS'x'
I-10
sg21
I00
sa(dp116
g19
S'curve'
p117
sS'x'
I-10
sg21
I01
sS'y'
I-176
sa(dp118
S'y'
I-112
sS'x'
I-10
sg21
I00
sa(dp119
S'y'
I-59
sS'x'
I39
sg21
I00
sa(dp120
g19
S'curve'
p121
sS'x'
I140
sg21
I00
sS'y'
I-59
sa(dp122
g19
S'line'
p123
sS'x'
I247
sg21
I00
sS'y'
I-59
sa(dp124
g19
S'line'
p125
sS'x'
I247
sg21
I00
sS'y'
I-151
sa(dp126
g19
S'line'
p127
sS'x'
I140
sg21
I00
sS'y'
I-151
sasasS'components'
p128
(lp129
(dp130
S'transformation'
p131
(lp132
I1
aI0
aI0
aI1
aI0
aI0
asS'baseGlyph'
p133
S'tml_Pa'
p134
sasS'anchors'
p135
(lp136
sss."
EndChar

StartChar: tml_Pa
Encoding: 92 2986 92
GlifName: tml_P_a
Width: 550
VWidth: 0
GlyphClass: 2
Flags: HW
AnchorPoint: "MatraIi" 476 560 basechar 0
AnchorPoint: "MatraI.alt3" 457 500 basechar 0
AnchorPoint: "virama" 278 0 basechar 0
AnchorPoint: "MatraU.alt1" 458 33 basechar 0
LayerCount: 2
Back
Fore
SplineSet
50 1 m 257
 50 560 l 257
 94 560 l 257
 94 41 l 257
 456 41 l 257
 456 560 l 257
 500 560 l 257
 500 1 l 257
 50 1 l 257
EndSplineSet
EndChar

StartChar: tml_RI.alt
Encoding: 93 -1 93
GlifName: tml_R_I_.alt
Width: 683
VWidth: 0
GlyphClass: 2
Flags: HW
LayerCount: 2
Back
Fore
SplineSet
50 0 m 257
 50 560 l 257
 499 560 l 257
 499 518 l 257
 366 518 l 257
 363 0 l 257
 318 0 l 257
 321 518 l 257
 92 518 l 257
 92 0 l 257
 50 0 l 257
EndSplineSet
Refer: 50 -1 N 1 0 0 1 522 0 2
EndChar

StartChar: tml_RIi.alt
Encoding: 94 -1 94
GlifName: tml_R_I_i.alt
Width: 563
VWidth: 0
GlyphClass: 2
Flags: HW
LayerCount: 2
Back
Fore
SplineSet
50 0 m 257
 50 560 l 257
 499 560 l 257
 499 518 l 257
 366 518 l 257
 363 0 l 257
 318 0 l 257
 321 518 l 257
 92 518 l 257
 92 0 l 257
 50 0 l 257
EndSplineSet
Refer: 58 3008 S 1 0 0 1 419 0 2
EndChar

StartChar: tml_RU
Encoding: 95 -1 95
GlifName: tml_R_U_
Width: 886
VWidth: 0
GlyphClass: 2
Flags: HW
LayerCount: 2
Back
Fore
SplineSet
314 0 m 257
 314 560 l 257
 743 560 l 257
 743 518 l 257
 610 518 l 257
 607 0 l 257
 562 0 l 257
 565 518 l 257
 356 518 l 257
 356 0 l 257
 314 0 l 257
180 551 m 257
 127 474 84 360 84 224 c 256
 84 -53 228 -224 487 -223 c 256
 717 -222 802 -48 802 107 c 256
 802 252 739 299 688 299 c 256
 631 299 608 243 608 204 c 257
 584 222 l 257
 584 293 633 339 690 339 c 256
 791 339 844 235 844 107 c 256
 844 -66 755 -266 477 -265 c 256
 198 -264 42 -80 42 224 c 256
 42 340 80 478 144 574 c 257
 180 551 l 257
EndSplineSet
EndChar

StartChar: tml_RUu
Encoding: 96 -1 96
GlifName: tml_R_U_u
Width: 996
VWidth: 0
GlyphClass: 2
Flags: HW
LayerCount: 2
Back
Fore
SplineSet
424 0 m 257
 424 560 l 257
 853 560 l 257
 853 518 l 257
 720 518 l 257
 717 0 l 257
 672 0 l 257
 675 518 l 257
 466 518 l 257
 466 0 l 257
 424 0 l 257
537 -265 m 256
 258 -264 42 -103 42 201 c 256
 42 344 84 573 239 573 c 256
 330 573 367 492 367 428 c 256
 367 362 328 287 245 287 c 256
 166 287 125 356 125 415 c 256
 125 468 152 555 239 555 c 257
 242 531 l 257
 201 531 162 499 162 425 c 256
 162 379 193 329 244 329 c 256
 291 329 325 371 325 424 c 256
 325 497 293 531 242 531 c 256
 129 531 84 338 84 196 c 256
 84 -81 288 -224 547 -223 c 256
 777 -222 912 -48 912 107 c 256
 912 252 849 299 798 299 c 256
 741 299 718 243 718 204 c 257
 694 222 l 257
 694 293 743 339 800 339 c 256
 901 339 954 235 954 107 c 256
 954 -66 815 -266 537 -265 c 256
EndSplineSet
EndChar

StartChar: tml_Ra
Encoding: 97 2992 97
GlifName: tml_R_a
Width: 529
VWidth: 0
GlyphClass: 2
Flags: HW
AnchorPoint: "MatraIi" 429 560 basechar 0
AnchorPoint: "MatraI.alt2" 429 560 basechar 0
AnchorPoint: "virama" 250 0 basechar 0
LayerCount: 2
Back
Fore
SplineSet
60 0 m 257
 60 560 l 257
 489 560 l 257
 489 518 l 257
 356 518 l 257
 353 0 l 257
 308 0 l 257
 311 518 l 257
 102 518 l 257
 102 0 l 257
 60 0 l 257
63 -212 m 257
 308 17 l 257
 353 0 l 257
 91 -241 l 257
 63 -212 l 257
EndSplineSet
EndChar

StartChar: tml_Ra.alt
Encoding: 98 -1 98
GlifName: tml_R_a.alt
Width: 499
VWidth: 0
GlyphClass: 2
Flags: HW
LayerCount: 2
Back
Fore
SplineSet
50 0 m 257
 50 560 l 257
 499 560 l 257
 499 518 l 257
 366 518 l 257
 363 0 l 257
 318 0 l 257
 321 518 l 257
 92 518 l 257
 92 0 l 257
 50 0 l 257
EndSplineSet
EndChar

StartChar: tml_RrAa.alt
Encoding: 99 -1 99
GlifName: tml_R_rA_a.alt
Width: 879
VWidth: 0
GlyphClass: 2
Flags: HW
LayerCount: 2
Back
Fore
SplineSet
551 426 m 257
 515 390 l 257
 515 493 479 531 407 531 c 256
 337 531 294 483 294 393 c 258
 294 0 l 257
 252 0 l 257
 252 404 l 258
 252 502 308 575 413 574 c 256
 489 573 548 524 551 426 c 257
  PathStart: -2
515 0 m 257
 515 460 l 257
 559 460 l 257
 557 0 l 257
 515 0 l 257
829 358 m 256
 829 245 770 220 770 220 c 257
 770 220 837 188 837 69 c 256
 837 -137 712 -270 469 -270 c 256
 235 -270 42 -127 42 187 c 256
 42 401 131 532 160 570 c 257
 200 551 l 257
 159 504 84 372 84 187 c 256
 84 -87 246 -228 475 -228 c 256
 692 -228 795 -88 795 69 c 256
 795 206 712 197 668 197 c 257
 668 239 l 257
 712 239 787 231 787 358 c 256
 787 465 747 531 657 531 c 256
 572 531 559 451 559 388 c 257
 521 426 l 257
 521 456 536 573 656 573 c 256
 777 574 829 472 829 358 c 256
  PathStart: -2
EndSplineSet
EndChar

StartChar: tml_RrU
Encoding: 100 -1 100
GlifName: tml_R_rU_
Width: 860
VWidth: 0
GlyphClass: 2
Flags: HW
LayerCount: 2
Back
Fore
SplineSet
349 426 m 257
 313 390 l 257
 313 493 277 531 205 531 c 256
 135 531 92 483 92 393 c 258
 92 0 l 257
 50 0 l 257
 50 404 l 258
 50 502 106 575 211 574 c 256
 287 573 346 524 349 426 c 257
  PathStart: -2
313 0 m 257
 313 460 l 257
 357 460 l 257
 355 0 l 257
 313 0 l 257
42 -192 m 256
 42 -128 95 -106 155 -106 c 258
 758 -106 l 257
 758 560 l 257
 800 560 l 257
 800 -148 l 257
 152 -148 l 258
 113 -148 84 -159 84 -192 c 256
 84 -253 170 -300 314 -300 c 256
 597 -300 607 19 607 212 c 256
 607 405 584 534 470 534 c 256
 385 534 357 470 356 390 c 257
 327 431 l 257
 327 498 366 573 470 573 c 256
 612 573 649 461 649 214 c 256
 649 -25 624 -342 316 -342 c 256
 168 -342 42 -290 42 -192 c 256
  PathStart: -2
EndSplineSet
EndChar

StartChar: tml_RrUu
Encoding: 101 -1 101
GlifName: tml_R_rU_u
Width: 1132
VWidth: 0
GlyphClass: 2
Flags: HW
LayerCount: 2
Back
Fore
SplineSet
1122 560 m 257
 1122 518 l 257
 1022 518 l 257
 1022 -13 l 257
 980 -13 l 257
 980 518 l 257
 800 518 l 257
 800 560 l 257
 1122 560 l 257
EndSplineSet
Refer: 100 -1 N 1 0 0 1 20 0 2
EndChar

StartChar: tml_Rra
Encoding: 102 2993 102
GlifName: tml_R_ra
Width: 683
VWidth: 0
GlyphClass: 2
Flags: HW
AnchorPoint: "MatraIi.alt1" 545 556 basechar 0
AnchorPoint: "MatraI.alt6" 534 561 basechar 0
AnchorPoint: "virama" 333 0 basechar 0
LayerCount: 2
Back
Fore
SplineSet
341 426 m 257
 305 390 l 257
 305 493 269 531 197 531 c 256
 127 531 84 483 84 393 c 258
 84 0 l 257
 42 0 l 257
 42 404 l 258
 42 502 98 575 203 574 c 256
 279 573 338 524 341 426 c 257
  PathStart: -2
305 0 m 257
 305 460 l 257
 349 460 l 257
 347 0 l 257
 305 0 l 257
375 -137 m 258
 177 -138 l 258
 95 -138 89 -197 88 -236 c 257
 46 -236 l 257
 47 -129 106 -96 172 -96 c 258
 369 -96 l 258
 567 -96 599 23 599 234 c 256
 599 446 576 534 462 534 c 256
 377 534 349 470 348 390 c 257
 323 431 l 257
 323 498 366 573 465 573 c 256
 607 573 641 461 641 234 c 256
 641 2 602 -136 375 -137 c 258
  PathStart: -2
EndSplineSet
EndChar

StartChar: tml_Rupee
Encoding: 103 3065 103
GlifName: tml_R_upee
Width: 870
VWidth: 0
GlyphClass: 2
Flags: HW
LayerCount: 2
Back
Fore
SplineSet
306 1 m 257
 306 560 l 257
 733 560 l 257
 733 518 l 257
 597 518 l 257
 597 1 l 257
 555 1 l 257
 555 518 l 257
 349 518 l 257
 349 1 l 257
 306 1 l 257
84 320 m 256
 84 13 220 -225 466 -225 c 256
 673 -225 786 -67 786 118 c 256
 786 206 767 316 685 316 c 256
 642 316 597 278 597 179 c 257
 556 200 l 257
 560 248 585 358 685 358 c 256
 794 358 828 242 828 118 c 256
 828 -104 689 -267 466 -267 c 256
 210 -267 42 -36 42 320 c 256
 42 703 238 954 489 954 c 256
 679 954 794 862 794 734 c 256
 794 654 743 601 667 601 c 256
 592 601 539 658 539 729 c 256
 539 808 593 863 665 863 c 256
 726 863 780 792 780 727 c 257
 752 727 l 257
 753 787 720 821 665 821 c 256
 618 821 581 785 581 729 c 256
 581 681 619 643 667 643 c 256
 720 643 753 681 752 727 c 256
 750 811 740 814 718 837 c 256
 686 870 611 914 489 912 c 256
 233 907 84 640 84 320 c 256
  PathStart: -2
EndSplineSet
EndChar

StartChar: tml_SI
Encoding: 104 -1 104
GlifName: tml_S_I_
Width: 1138
VWidth: 0
GlyphClass: 2
Flags: HW
LayerCount: 2
Back
Fore
SplineSet
183 -20 m 256
 90 -20 42 86 42 237 c 256
 42 434 127 571 271 571 c 256
 385 571 475 516 475 321 c 258
 475 0 l 257
 432 0 l 257
 432 321 l 258
 432 474 371 531 273 531 c 256
 154 531 83 407 83 238 c 256
 83 151 101 22 185 22 c 256
 243 22 276 84 276 172 c 256
 276 265 239 314 186 314 c 256
 120 314 83 236 90 148 c 257
 56 168 l 257
 57 290 119 354 189 354 c 256
 256 354 316 291 316 171 c 256
 316 59 264 -20 183 -20 c 256
792 -23 m 256
 677 -23 666 74 666 150 c 258
 666 375 l 258
 666 435 665 532 577 532 c 256
 470 532 475 396 475 330 c 257
 432 338 l 257
 432 431 448 574 575 574 c 256
 679 574 708 496 708 382 c 258
 708 141 l 258
 708 86 716 19 792 19 c 256
 883 19 897 160 897 255 c 256
 897 446 841 523 810 559 c 257
 845 584 l 257
 896 525 939 411 939 255 c 256
 939 151 923 -23 792 -23 c 256
851 541 m 257
 792 504 703 535 703 624 c 256
 703 696 770 758 875 758 c 256
 1008 758 1093 666 1094 497 c 258
 1096 1 l 257
 1054 1 l 257
 1053 501 l 258
 1053 642 981 716 875 716 c 256
 810 716 745 683 745 624 c 256
 745 564 799 554 830 573 c 257
 851 541 l 257
EndSplineSet
EndChar

StartChar: tml_SIi
Encoding: 105 -1 105
GlifName: tml_S_I_i
Width: 995
VWidth: 0
GlyphClass: 2
Flags: HW
LayerCount: 2
Back
Fore
SplineSet
183 -20 m 256
 90 -20 42 86 42 237 c 256
 42 434 127 571 271 571 c 256
 385 571 475 516 475 321 c 258
 475 0 l 257
 432 0 l 257
 432 321 l 258
 432 474 371 531 273 531 c 256
 154 531 83 407 83 238 c 256
 83 151 101 22 185 22 c 256
 243 22 276 84 276 172 c 256
 276 265 239 314 186 314 c 256
 120 314 83 236 90 148 c 257
 56 168 l 257
 57 290 119 354 189 354 c 256
 256 354 316 291 316 171 c 256
 316 59 264 -20 183 -20 c 256
792 -23 m 256
 677 -23 666 74 666 150 c 258
 666 375 l 258
 666 435 665 532 577 532 c 256
 470 532 475 396 475 330 c 257
 432 338 l 257
 432 431 448 574 575 574 c 256
 679 574 708 496 708 382 c 258
 708 141 l 258
 708 86 716 19 792 19 c 256
 883 19 897 160 897 255 c 256
 897 446 841 523 810 559 c 257
 845 584 l 257
 896 525 939 411 939 255 c 256
 939 151 923 -23 792 -23 c 256
685 682 m 256
 685 829 803 903 924 902 c 256
 1036 901 1065 813 1065 738 c 256
 1065 629 1002 590 948 590 c 256
 880 590 824 639 824 738 c 256
 824 847 888 883 922 893 c 257
 943 863 l 257
 888 863 866 794 866 738 c 256
 866 666 903 632 948 632 c 256
 993 632 1023 678 1023 738 c 256
 1023 806 996 863 943 863 c 256
 794 863 727 785 727 679 c 256
 727 572 808 552 845 584 c 257
 841 537 l 257
 811 520 685 520 685 682 c 256
  PathStart: -2
EndSplineSet
EndChar

StartChar: tml_SU
Encoding: 106 -1 106
GlifName: tml_S_U_
Width: 1290
VWidth: 0
GlyphClass: 2
Flags: HW
LayerCount: 2
Back
Fore
SplineSet
183 -20 m 256
 90 -20 42 86 42 237 c 256
 42 434 127 571 271 571 c 256
 385 571 475 516 475 321 c 258
 475 0 l 257
 432 0 l 257
 432 321 l 258
 432 474 371 531 273 531 c 256
 154 531 83 407 83 238 c 256
 83 151 101 22 185 22 c 256
 243 22 276 84 276 172 c 256
 276 265 239 314 186 314 c 256
 120 314 83 236 90 148 c 257
 56 168 l 257
 57 290 119 354 189 354 c 256
 256 354 316 291 316 171 c 256
 316 59 264 -20 183 -20 c 256
792 -23 m 256
 677 -23 666 74 666 150 c 258
 666 375 l 258
 666 435 665 532 577 532 c 256
 470 532 475 396 475 330 c 257
 432 338 l 257
 432 431 448 574 575 574 c 256
 679 574 708 496 708 382 c 258
 708 141 l 258
 708 86 716 19 792 19 c 256
 883 19 897 160 897 255 c 256
 897 444 828 508 820 518 c 257
 851 547 l 257
 902 488 939 401 939 255 c 256
 939 151 923 -23 792 -23 c 256
  PathStart: -2
1133 211 m 256
 1049 211 995 282 995 373 c 256
 995 500 1061 547 1117 547 c 257
 1129 518 l 257
 1069 518 1037 456 1037 378 c 256
 1037 302 1076 253 1129 253 c 256
 1194 253 1228 312 1228 385 c 256
 1228 458 1202 518 1127 518 c 258
 820 518 l 257
 820 560 l 257
 1109 560 l 258
 1200 560 1270 515 1270 385 c 256
 1270 272 1212 211 1133 211 c 256
EndSplineSet
EndChar

StartChar: tml_SUu
Encoding: 107 -1 107
GlifName: tml_S_U_u
Width: 1473
VWidth: 0
GlyphClass: 2
Flags: HW
LayerCount: 2
Back
Fore
SplineSet
183 -20 m 256
 90 -20 42 86 42 237 c 256
 42 434 127 571 271 571 c 256
 385 571 475 516 475 321 c 258
 475 0 l 257
 432 0 l 257
 432 321 l 258
 432 474 371 531 273 531 c 256
 154 531 83 407 83 238 c 256
 83 151 101 22 185 22 c 256
 243 22 276 84 276 172 c 256
 276 265 239 314 186 314 c 256
 120 314 83 236 90 148 c 257
 56 168 l 257
 57 290 119 354 189 354 c 256
 256 354 316 291 316 171 c 256
 316 59 264 -20 183 -20 c 256
  PathStart: -2
792 -23 m 256
 677 -23 666 74 666 150 c 258
 666 375 l 258
 666 435 665 532 577 532 c 256
 470 532 475 396 475 330 c 257
 432 338 l 257
 432 431 448 574 575 574 c 256
 679 574 708 496 708 382 c 258
 708 141 l 258
 708 86 716 19 792 19 c 256
 883 19 897 160 897 255 c 256
 897 444 828 508 820 518 c 257
 851 547 l 257
 902 488 939 401 939 255 c 256
 939 151 923 -23 792 -23 c 256
  PathStart: -2
1394 196 m 257
 1355 212 l 257
 1365 227 1411 297 1411 404 c 256
 1411 519 1349 603 1230 603 c 256
 1113 603 1034 519 1034 397 c 256
 1034 310 1084 260 1140 260 c 256
 1196 260 1229 307 1229 385 c 256
 1229 490 1143 518 1061 518 c 258
 820 518 l 257
 820 560 l 257
 1066 560 l 258
 1074 560 1083 560 1091 559 c 256
 1195 553 1272 502 1272 375 c 256
 1272 276 1219 218 1137 218 c 256
 1048 218 992 293 992 397 c 256
 992 538 1087 645 1230 645 c 256
 1388 645 1453 523 1453 414 c 256
 1453 276 1394 196 1394 196 c 257
EndSplineSet
EndChar

StartChar: tml_Sa
Encoding: 108 3000 108
GlifName: tml_S_a
Width: 981
VWidth: 0
GlyphClass: 2
Flags: HW
AnchorPoint: "virama" 452 0 basechar 0
LayerCount: 2
Back
Fore
SplineSet
183 -20 m 256
 90 -20 42 86 42 237 c 256
 42 434 127 571 271 571 c 256
 385 571 475 516 475 321 c 258
 475 0 l 257
 432 0 l 257
 432 321 l 258
 432 474 371 531 273 531 c 256
 154 531 83 407 83 238 c 256
 83 151 101 22 185 22 c 256
 243 22 276 84 276 172 c 256
 276 265 239 314 186 314 c 256
 120 314 83 236 90 148 c 257
 56 168 l 257
 57 290 119 354 189 354 c 256
 256 354 316 291 316 171 c 256
 316 59 264 -20 183 -20 c 256
  PathStart: -2
792 -23 m 256
 677 -23 666 74 666 150 c 258
 666 375 l 258
 666 435 665 532 577 532 c 256
 470 532 475 396 475 330 c 257
 432 338 l 257
 432 431 448 574 575 574 c 256
 679 574 708 496 708 382 c 258
 708 141 l 258
 708 86 716 19 792 19 c 256
 883 19 897 160 897 255 c 256
 897 444 816 539 808 549 c 257
 845 571 l 257
 896 512 939 401 939 255 c 256
 939 151 923 -23 792 -23 c 256
  PathStart: -2
EndSplineSet
EndChar

StartChar: tml_Seven
Encoding: 109 3053 109
GlifName: tml_S_even
Width: 531
VWidth: 0
GlyphClass: 2
Flags: HW
LayerCount: 2
Back
Fore
SplineSet
183 -24 m 256
 90 -24 42 82 42 233 c 256
 42 430 123 560 267 560 c 258
 481 560 l 257
 481 0 l 257
 439 0 l 257
 439 520 l 257
 269 520 l 258
 150 520 83 403 83 234 c 256
 83 147 101 18 185 18 c 256
 243 18 276 80 276 168 c 256
 276 261 239 310 186 310 c 256
 120 310 83 232 90 144 c 257
 56 164 l 257
 57 286 119 350 189 350 c 256
 256 350 316 287 316 167 c 256
 316 55 264 -24 183 -24 c 256
EndSplineSet
EndChar

StartChar: tml_Sha
Encoding: 110 2998 110
GlifName: tml_S_ha
Width: 788
VWidth: 0
GlyphClass: 2
Flags: HW
AnchorPoint: "MatraU" 565.99 560 basechar 0
AnchorPoint: "virama" 399.99 0 basechar 0
AnchorPoint: "MatraIi.alt3" 648.99 543 basechar 0
AnchorPoint: "MatraI.alt1" 565.99 560 basechar 0
AnchorPoint: "MatraUu" 565.99 560 basechar 0
LayerCount: 2
Back
Fore
SplineSet
49.990234375 560 m 257
 91.990234375 560 l 257
 91.990234375 157 l 258
 91.990234375 76 117.990234375 25 192.990234375 25 c 256
 263.990234375 25 294.990234375 76 294.990234375 157 c 258
 294.990234375 560 l 257
 336.990234375 560 l 257
 336.990234375 157 l 258
 336.990234375 44 284.990234375 -17 192.990234375 -17 c 256
 97.990234375 -17 49.990234375 45 49.990234375 157 c 258
 49.990234375 560 l 257
294.990234375 518 m 257
 294.990234375 560 l 257
 551.990234375 560 l 257
 560.990234375 518 l 257
 294.990234375 518 l 257
454.990234375 143 m 258
 454.990234375 545 l 257
 496.990234375 545 l 257
 496.990234375 143 l 258
 496.990234375 55 524.990234375 27 577.990234375 27 c 256
 645.990234375 27 703.990234375 108 703.990234375 284 c 256
 703.990234375 480 657.990234375 519 555.990234375 518 c 257
 546.990234375 560 l 257
 668.990234375 560 746.990234375 521 745.990234375 284 c 256
 744.990234375 96 683.990234375 -15 577.990234375 -15 c 256
 506.990234375 -15 454.990234375 15 454.990234375 143 c 258
  PathStart: -2
EndSplineSet
EndChar

StartChar: tml_Shree
Encoding: 111 -1 111
GlifName: tml_S_hree
Width: 1331
VWidth: 0
GlyphClass: 2
Flags: HW
LayerCount: 2
Back
Fore
SplineSet
640 578 m 256
 723 578 782 529 782 402 c 257
 750 391 l 257
 750 484 724 536 645 536 c 256
 591 536 547 508 547 416 c 258
 547 1 l 257
 505 1 l 257
 505 423 l 258
 505 515 551 578 640 578 c 256
  PathStart: -2
750 1 m 257
 750 504 l 257
 763 561 l 257
 1168 561 l 257
 1168 519 l 257
 1058 519 l 257
 1058 1 l 257
 1016 1 l 257
 1016 519 l 257
 792 519 l 257
 792 1 l 257
 750 1 l 257
247 1 m 257
 247 560 l 257
 289 560 l 257
 289 43 l 257
 547 43 l 257
 547 1 l 257
 247 1 l 257
686 -265 m 256
 250 -264 42 -40 42 244 c 256
 42 418 109 532 138 570 c 257
 178 551 l 257
 137 504 84 379 84 244 c 256
 84 10 257 -224 686 -223 c 256
 1004 -222 1252 -81 1252 119 c 256
 1252 264 1189 299 1138 299 c 256
 1081 299 1058 243 1058 204 c 257
 1034 222 l 257
 1034 293 1083 339 1140 339 c 256
 1241 339 1294 247 1294 119 c 256
 1294 -107 1046 -266 686 -265 c 256
1077 526 m 257
 1047 526 968 554 968 695 c 256
 968 832 1069 903 1190 902 c 256
 1302 901 1331 813 1331 738 c 256
 1331 629 1268 590 1214 590 c 256
 1146 590 1090 639 1090 738 c 256
 1090 847 1154 883 1188 893 c 257
 1209 863 l 257
 1154 863 1132 794 1132 738 c 256
 1132 666 1169 632 1214 632 c 256
 1259 632 1289 678 1289 738 c 256
 1289 806 1262 863 1209 863 c 256
 1060 863 1010 778 1010 692 c 256
 1010 590 1062 561 1087 561 c 257
 1077 526 l 257
EndSplineSet
EndChar

StartChar: tml_Six
Encoding: 112 3052 112
GlifName: tml_S_ix
Width: 881
VWidth: 0
GlyphClass: 2
Flags: HW
LayerCount: 2
Back
Fore
SplineSet
225 1 m 256
 116 1 45 68 42 175 c 256
 39 272 98 341 195 341 c 258
 446 341 l 258
 519 341 566 285 566 239 c 257
 530 213 l 257
 530 229 524 299 436 299 c 258
 213 299 l 258
 126 299 84 248 84 177 c 256
 84 96 140 43 221 43 c 256
 294 43 359 86 359 207 c 258
 359 289 l 257
 359 320 l 257
 359 518 l 257
 203 518 l 257
 203 309 l 257
 161 309 l 257
 161 560 l 257
 524 560 l 257
 524 518 l 257
 401 518 l 257
 401 207 l 258
 401 104 360 1 225 1 c 256
530 0 m 257
 530 213 l 258
 530 265 573 341 682 341 c 258
 839 341 l 257
 839 299 l 257
 759 299 l 257
 759 0 l 257
 717 0 l 257
 717 299 l 257
 617 299 572 278 572 188 c 258
 572 0 l 257
 530 0 l 257
EndSplineSet
EndChar

StartChar: tml_SsU
Encoding: 113 -1 113
GlifName: tml_S_sU_
Width: 1280
VWidth: 0
GlyphClass: 2
Flags: HW
LayerCount: 2
Back
Fore
SplineSet
1123 211 m 256
 1039 211 985 282 985 373 c 256
 985 500 1051 547 1107 547 c 257
 1119 518 l 257
 1059 518 1027 456 1027 378 c 256
 1027 302 1066 253 1119 253 c 256
 1184 253 1218 312 1218 385 c 256
 1218 458 1192 518 1117 518 c 258
 914 518 l 257
 914 468 l 257
 872 468 l 257
 872 560 l 257
 1099 560 l 258
 1190 560 1260 515 1260 385 c 256
 1260 272 1202 211 1123 211 c 256
EndSplineSet
Refer: 115 2999 N 1 0 0 1 12 0 2
EndChar

StartChar: tml_SsUu
Encoding: 114 -1 114
GlifName: tml_S_sU_u
Width: 1456
VWidth: 0
GlyphClass: 2
Flags: HW
LayerCount: 2
Back
Fore
SplineSet
1377 196 m 257
 1338 212 l 257
 1348 227 1394 297 1394 404 c 256
 1394 519 1332 603 1213 603 c 256
 1096 603 1017 519 1017 397 c 256
 1017 310 1067 260 1123 260 c 256
 1179 260 1212 307 1212 385 c 256
 1212 490 1126 518 1044 518 c 258
 914 518 l 257
 914 468 l 257
 872 468 l 257
 872 560 l 257
 1049 560 l 258
 1057 560 1066 560 1074 559 c 256
 1178 553 1255 502 1255 375 c 256
 1255 276 1202 218 1120 218 c 256
 1031 218 975 293 975 397 c 256
 975 538 1070 645 1213 645 c 256
 1371 645 1436 523 1436 414 c 256
 1436 276 1377 196 1377 196 c 257
EndSplineSet
Refer: 115 2999 N 1 0 0 1 12 0 2
EndChar

StartChar: tml_Ssa
Encoding: 115 2999 115
GlifName: tml_S_sa
Width: 964
VWidth: 0
GlyphClass: 2
Flags: HW
AnchorPoint: "MatraIi.alt1" 718 556 basechar 0
AnchorPoint: "MatraI.alt8" 710 561 basechar 0
AnchorPoint: "virama" 527 0 basechar 0
LayerCount: 2
Back
Fore
SplineSet
42 237 m 256
 42 434 123 571 267 571 c 256
 381 571 475 475 475 280 c 256
 475 174 445 84 413 1 c 257
 379 34 l 257
 393 63 432 169 432 281 c 256
 432 428 371 531 269 531 c 256
 150 531 83 407 83 238 c 256
 83 151 101 22 185 22 c 256
 243 22 276 84 276 172 c 256
 276 265 239 314 186 314 c 256
 120 314 83 236 90 148 c 257
 56 168 l 257
 57 290 119 354 189 354 c 256
 256 354 316 291 316 171 c 256
 316 59 264 -20 183 -20 c 256
 90 -20 42 86 42 237 c 256
  PathStart: -2
769 -146 m 257
 727 -146 l 257
 727 438 l 258
 727 491 704 531 659 531 c 256
 576 531 553 456 553 400 c 256
 553 299 622 197 740 197 c 256
 846 197 871 298 872 379 c 257
 909 376 l 257
 909 271 880 155 740 155 c 256
 622 155 513 240 511 410 c 256
 510 507 577 573 652 573 c 256
 769 573 769 463 769 438 c 258
 769 -146 l 257
379 1 m 257
 379 34 l 257
 428 43 l 257
 872 43 l 257
 872 472 l 257
 914 472 l 257
 914 1 l 257
 379 1 l 257
EndSplineSet
EndChar

StartChar: tml_TU
Encoding: 116 -1 116
GlifName: tml_T_U_
Width: 774
VWidth: 0
GlyphClass: 2
Flags: HW
LayerCount: 2
Back
Fore
SplineSet
309 -342 m 256
 161 -342 42 -290 42 -192 c 256
 42 -128 95 -106 155 -106 c 258
 682 -106 l 257
 682 564 l 257
 724 564 l 257
 724 -148 l 257
 152 -148 l 258
 113 -148 84 -159 84 -192 c 256
 84 -253 166 -300 310 -300 c 256
 494 -300 572 -129 572 43 c 256
 572 193 513 299 394 299 c 258
 221 299 l 258
 134 299 92 248 92 177 c 256
 92 96 148 43 229 43 c 256
 302 43 367 86 367 207 c 258
 367 289 l 257
 367 324 l 257
 367 518 l 257
 211 518 l 257
 211 309 l 257
 169 309 l 257
 169 560 l 257
 532 560 l 257
 532 518 l 257
 409 518 l 257
 409 207 l 258
 409 104 368 1 233 1 c 256
 124 1 53 68 50 175 c 256
 47 272 106 341 203 341 c 258
 404 341 l 258
 532 341 614 236 614 43 c 256
 614 -181 511 -342 309 -342 c 256
EndSplineSet
EndChar

StartChar: tml_TUu
Encoding: 117 -1 117
GlifName: tml_T_U_u
Width: 1056
VWidth: 0
GlyphClass: 2
Flags: HW
LayerCount: 2
Back
Fore
SplineSet
904 -22 m 257
 904 522 l 257
 724 522 l 257
 724 564 l 257
 1046 564 l 257
 1046 522 l 257
 946 522 l 257
 946 -22 l 257
 904 -22 l 257
EndSplineSet
Refer: 116 -1 N 1 0 0 1 20 0 2
EndChar

StartChar: tml_Ta
Encoding: 118 2980 118
GlifName: tml_T_a
Width: 645
VWidth: 0
GlyphClass: 2
Flags: HW
AnchorPoint: "MatraIi" 464 560 basechar 0
AnchorPoint: "MatraI.stylalt1" 121 304 basechar 0
AnchorPoint: "virama" 379 0 basechar 0
AnchorPoint: "MatraI.alt2" 474 560 basechar 0
AnchorPoint: "MatraIi.stylalt1" 121 304 basechar 0
AnchorPoint: "MatraI.alt1" 464 560 basechar 0
LayerCount: 2
Back
Fore
SplineSet
232 -138 m 258
 150 -139 144 -197 143 -236 c 257
 101 -236 l 257
 102 -129 161 -95 227 -95 c 258
 334 -95 l 258
 418 -95 557 -43 557 116 c 256
 557 243 518 299 384 299 c 258
 213 299 l 258
 126 299 84 248 84 177 c 256
 84 96 140 43 221 43 c 256
 294 43 359 86 359 207 c 258
 359 289 l 257
 359 321 l 257
 359 518 l 257
 203 518 l 257
 203 309 l 257
 161 309 l 257
 161 560 l 257
 524 560 l 257
 524 518 l 257
 401 518 l 257
 401 207 l 258
 401 104 360 1 225 1 c 256
 116 1 45 68 42 175 c 256
 39 272 98 341 195 341 c 258
 387 341 l 258
 532 341 603 271 603 117 c 256
 603 -47 479 -136 343 -137 c 258
 232 -138 l 258
EndSplineSet
EndChar

StartChar: tml_Ten
Encoding: 119 3056 119
GlifName: tml_T_en
Width: 750
VWidth: 0
GlyphClass: 2
Flags: HW
LayerCount: 2
Back
Fore
SplineSet
352 292 m 257
 394 292 l 257
 398 148 405 31 517 32 c 256
 617 33 666 128 666 285 c 256
 666 426 592 538 502 538 c 256
 440 538 397 504 363 470 c 257
 337 499 l 257
 364 527 410 575 495 575 c 256
 646 575 708 429 708 261 c 256
 708 94 636 -10 517 -10 c 256
 385 -10 357 95 352 292 c 257
  PathStart: -2
42 234 m 256
 42 364 95 470 135 550 c 257
 174 527 l 257
 151 483 84 373 84 239 c 256
 84 112 135 25 223 25 c 256
 334 25 356 101 352 292 c 257
 394 292 l 257
 401 88 376 -17 223 -17 c 256
 118 -17 42 67 42 234 c 256
  PathStart: -2
EndSplineSet
EndChar

StartChar: tml_Thousand
Encoding: 120 3058 120
GlifName: tml_T_housand
Width: 887
VWidth: 0
GlyphClass: 2
Flags: HW
LayerCount: 2
Back
Fore
SplineSet
608 -105 m 258
 667 -105 l 258
 759 -104 803 -36 803 26 c 256
 803 108 774 173 660 173 c 258
 549 173 l 258
 490 173 455 136 455 81 c 256
 455 30 497 -9 555 -9 c 256
 618 -9 642 26 642 102 c 258
 642 306 l 257
 684 306 l 257
 684 96 l 258
 684 25 664 -52 555 -51 c 256
 448 -51 413 31 413 81 c 256
 413 134 450 215 548 215 c 258
 671 215 l 258
 750 215 845 182 845 24 c 256
 845 -72 775 -147 671 -147 c 258
 599 -147 l 258
 527 -147 536 -221 536 -237 c 257
 492 -237 l 257
 492 -191 491 -107 608 -105 c 258
  PathStart: -2
486 341 m 257
 791 341 l 257
 791 299 l 257
 486 299 l 257
 486 341 l 257
EndSplineSet
Refer: 10 2970 N 1 0 0 1 -0.00078072 0 2
EndChar

StartChar: tml_Three
Encoding: 121 3049 121
GlifName: tml_T_hree
Width: 688
VWidth: 0
GlyphClass: 2
Flags: HW
LayerCount: 2
Back
Fore
SplineSet
50 0 m 257
 50 560 l 257
 406 560 l 257
 406 518 l 257
 294 518 l 257
 294 164 l 257
 252 164 l 257
 252 518 l 257
 92 518 l 257
 92 0 l 257
 50 0 l 257
252 42 m 257
 658 42 l 257
 658 0 l 257
 252 0 l 257
 252 42 l 257
263 42 m 257
 420 42 481 144 481 247 c 256
 481 318 452 369 385 369 c 256
 326 369 294 322 294 274 c 257
 271 279 l 257
 271 352 314 408 392 408 c 256
 469 408 523 349 523 249 c 256
 523 118 458 13 273 13 c 257
 263 42 l 257
EndSplineSet
EndChar

StartChar: tml_TtI
Encoding: 122 -1 122
GlifName: tml_T_tI_
Width: 589
VWidth: 0
GlyphClass: 2
Flags: HWO
LayerCount: 2
Back
Fore
SplineSet
433 7 m 261
 330 29 266 170 266 319 c 260
 266 471 319 573 417 573 c 260
 503 573 558 525 559 374 c 262
 559 -146 l 261
 517 -146 l 261
 517 393 l 262
 517 444 503 531 417 531 c 260
 338 531 308 417 308 319 c 260
 308 179 385 43 453 43 c 261
 433 7 l 261
EndSplineSet
Refer: 126 2975 N 1 0 0 1 5 0 2
EndChar

StartChar: tml_TtIi
Encoding: 123 -1 123
GlifName: tml_T_tI_i
Width: 635
VWidth: 0
GlyphClass: 2
Flags: HW
LayerCount: 2
Back
Fore
SplineSet
228 208 m 256
 228 368 348 442 457 441 c 256
 548 440 605 388 605 283 c 256
 605 189 555 129 483 129 c 256
 406 129 361 204 361 278 c 256
 361 367 400 414 463 430 c 257
 479 401 l 257
 432 401 403 350 403 278 c 256
 403 221 434 171 483 171 c 256
 527 171 565 211 565 283 c 256
 565 356 526 401 479 401 c 256
 383 401 270 352 270 208 c 256
 270 99 342 42 403 42 c 257
 403 6 l 257
 305 6 228 85 228 208 c 256
EndSplineSet
Refer: 126 2975 N 1 0 0 1 5 0 2
EndChar

StartChar: tml_TtU
Encoding: 124 -1 124
GlifName: tml_T_tU_
Width: 828
VWidth: 0
GlyphClass: 2
Flags: HW
LayerCount: 2
Back
Fore
SplineSet
384 560 m 257
 384 0 l 257
 342 0 l 257
 342 560 l 257
 384 560 l 257
352 -225 m 256
 497 -224 563 -103 563 101 c 256
 563 220 531 305 457 305 c 256
 395 305 384 249 384 204 c 257
 351 215 l 257
 351 288 393 347 457 347 c 256
 551 347 605 250 605 101 c 256
 605 -76 555 -268 352 -267 c 256
 187 -266 42 -148 42 254 c 256
 42 505 148 799 414 800 c 256
 665 801 778 629 778 394 c 258
 778 -13 l 257
 734 -13 l 257
 734 400 l 258
 734 646 590 757 414 757 c 256
 183 757 84 489 84 254 c 256
 84 -106 203 -226 352 -225 c 256
  PathStart: -2
EndSplineSet
EndChar

StartChar: tml_TtUu
Encoding: 125 -1 125
GlifName: tml_T_tU_u
Width: 683
VWidth: 0
GlyphClass: 2
Flags: HW
LayerCount: 2
Back
Fore
SplineSet
384 560 m 257
 384 0 l 257
 342 0 l 257
 342 560 l 257
 384 560 l 257
352 -267 m 256
 187 -266 42 -148 42 254 c 256
 42 505 158 800 434 800 c 256
 629 800 733 680 733 558 c 256
 733 459 680 404 620 404 c 256
 529 404 492 485 492 549 c 256
 492 615 531 690 614 690 c 256
 693 690 733 615 733 558 c 256
 733 505 697 434 627 432 c 257
 618 446 l 257
 675 446 691 512 691 552 c 256
 691 605 663 648 614 648 c 256
 566 648 534 604 534 549 c 256
 534 482 569 446 618 446 c 256
 672 446 691 498 691 552 c 256
 691 663 608 758 434 758 c 256
 191 758 84 489 84 254 c 256
 84 -106 203 -226 352 -225 c 256
 497 -224 563 -103 563 101 c 256
 563 220 531 305 457 305 c 256
 395 305 384 249 384 204 c 257
 351 215 l 257
 351 288 393 347 457 347 c 256
 551 347 605 250 605 101 c 256
 605 -76 555 -268 352 -267 c 256
EndSplineSet
EndChar

StartChar: tml_Tta
Encoding: 126 2975 126
GlifName: tml_T_ta
Width: 601
VWidth: 0
GlyphClass: 2
Flags: HW
AnchorPoint: "virama" 324 0 basechar 0
LayerCount: 2
Back
Fore
SplineSet
50 1 m 257
 50 560 l 257
 92 560 l 257
 92 43 l 257
 559 43 l 257
 559 1 l 257
 50 1 l 257
EndSplineSet
EndChar

StartChar: tml_Two
Encoding: 127 3048 127
GlifName: tml_T_wo
Width: 568
VWidth: 0
GlyphClass: 2
Flags: HW
LayerCount: 2
Back
Fore
SplineSet
169 0 m 257
 79 0 48 43 48 92 c 256
 48 156 101 186 156 186 c 258
 229 186 l 258
 356 186 432 233 432 360 c 256
 432 501 327 546 244 546 c 256
 127 546 84 455 84 375 c 256
 84 328 121 280 182 280 c 256
 244 280 274 330 274 384 c 256
 274 452 225 480 177 480 c 256
 119 480 84 440 84 375 c 257
 57 390 l 257
 57 450 91 519 179 519 c 256
 246 519 316 478 316 383 c 256
 316 297 258 238 181 238 c 256
 100 238 42 304 42 396 c 256
 42 504 122 587 247 588 c 256
 383 589 476 496 476 362 c 256
 476 243 412 146 248 144 c 258
 158 143 l 258
 115 143 94 120 94 91 c 256
 94 64 111 42 167 42 c 257
 169 0 l 257
165 0 m 257
 163 42 l 257
 526 42 l 257
 526 0 l 257
 165 0 l 257
EndSplineSet
EndChar

StartChar: tml_U
Encoding: 128 2953 128
GlifName: tml_U_
Width: 828
VWidth: 0
GlyphClass: 2
Flags: W
LayerCount: 2
Back
Fore
SplineSet
786 42 m 257
 786 0 l 257
 172 0 l 258
 82 0 48 43 48 93 c 256
 48 160 96 194 162 194 c 258
 211 194 l 258
 335 194 417 242 417 376 c 256
 417 503 327 556 247 555 c 256
 124 554 84 464 84 384 c 256
 84 337 121 289 181 289 c 256
 244 289 274 340 274 390 c 256
 274 462 225 489 178 489 c 256
 118 489 84 449 84 384 c 257
 57 399 l 257
 57 458 92 528 176 528 c 256
 248 528 316 487 316 390 c 256
 316 306 256 247 184 247 c 256
 100 247 42 313 42 402 c 256
 42 516 124 596 247 597 c 256
 380 598 459 506 459 376 c 256
 459 250 392 155 235 153 c 258
 155 152 l 258
 112 151 90 127 90 94 c 256
 90 62 112 42 167 42 c 258
 786 42 l 257
EndSplineSet
EndChar

StartChar: tml_Uu
Encoding: 129 2954 129
GlifName: tml_U_u
Width: 1198
VWidth: 0
GlyphClass: 2
Flags: W
LayerCount: 2
Back
Fore
SplineSet
159 0 m 258
 79 0 48 43 48 92 c 256
 48 156 101 186 156 186 c 258
 229 186 l 258
 356 186 432 233 432 360 c 256
 432 501 327 546 244 546 c 256
 127 546 84 455 84 375 c 256
 84 328 121 280 182 280 c 256
 244 280 274 330 274 384 c 256
 274 452 225 480 177 480 c 256
 119 480 84 440 84 375 c 257
 57 390 l 257
 57 450 91 519 179 519 c 256
 246 519 316 478 316 383 c 256
 316 297 258 238 181 238 c 256
 100 238 42 304 42 396 c 256
 42 504 122 587 247 588 c 256
 383 589 476 496 476 362 c 256
 476 243 412 146 248 144 c 258
 158 143 l 258
 115 143 94 120 94 91 c 256
 94 64 111 42 167 42 c 258
 1156 42 l 257
 1156 0 l 257
 159 0 l 258
643 96 m 256
 565 96 526 184 526 299 c 256
 526 449 597 555 706 555 c 256
 793 555 866 487 866 331 c 257
 829 332 l 257
 829 450 786 513 708 513 c 256
 618 513 566 428 566 300 c 256
 566 234 580 136 645 136 c 256
 689 136 714 182 714 249 c 256
 714 319 685 358 645 358 c 256
 595 358 565 299 571 232 c 257
 547 247 l 257
 547 339 584 398 647 398 c 256
 708 398 754 350 754 248 c 256
 754 163 714 96 643 96 c 256
829 545 m 257
 1154 545 l 257
 1154 503 l 257
 1059 503 l 257
 1059 120 l 257
 1019 120 l 257
 1019 503 l 257
 871 503 l 257
 871 120 l 257
 829 120 l 257
 829 416 l 257
 829 444 l 257
 829 545 l 257
EndSplineSet
EndChar

StartChar: tml_VUu
Encoding: 130 -1 130
GlifName: tml_V_U_u
Width: 873
VWidth: 0
GlyphClass: 2
Flags: HW
LayerCount: 2
Back
Fore
SplineSet
627 -136 m 257
 627 32 l 257
 669 33 l 257
 669 -136 l 257
 627 -136 l 257
207 -178 m 256
 207 -246 331 -300 485 -300 c 256
 649 -300 789 -209 789 -93 c 256
 789 -22 752 13 710 13 c 256
 671 13 669 -30 669 -47 c 257
 630 -34 l 257
 630 7 657 54 714 54 c 256
 780 54 831 -4 831 -93 c 256
 831 -228 670 -342 485 -342 c 256
 327 -342 165 -280 165 -178 c 256
 165 -110 219 -89 272 -89 c 257
 437 -89 l 257
 437 -131 l 257
 272 -131 l 257
 226 -131 207 -146 207 -178 c 256
  PathStart: -2
EndSplineSet
Refer: 131 2997 N 1 0 0 1 12 0 2
EndChar

StartChar: tml_Va
Encoding: 131 2997 131
GlifName: tml_V_a
Width: 719
VWidth: 0
GlyphClass: 2
Flags: HW
AnchorPoint: "MatraIi" 647 559 basechar 0
AnchorPoint: "MatraI.alt3" 628 500 basechar 0
AnchorPoint: "virama" 392 0 basechar 0
AnchorPoint: "MatraU.alt1" 627 33 basechar 0
LayerCount: 2
Back
Fore
SplineSet
42 237 m 256
 42 434 123 571 267 571 c 256
 381 571 475 475 475 280 c 256
 475 174 445 84 413 1 c 257
 379 34 l 257
 393 63 432 169 432 281 c 256
 432 428 371 531 269 531 c 256
 150 531 83 407 83 238 c 256
 83 151 101 22 185 22 c 256
 243 22 276 84 276 172 c 256
 276 265 239 314 186 314 c 256
 120 314 83 236 90 148 c 257
 56 168 l 257
 57 290 119 354 189 354 c 256
 256 354 316 291 316 171 c 256
 316 59 264 -20 183 -20 c 256
 90 -20 42 86 42 237 c 256
  PathStart: -2
379 34 m 257
 428 43 l 257
 627 43 l 257
 627 559 l 257
 669 559 l 257
 669 1 l 257
 379 1 l 257
 379 34 l 257
EndSplineSet
PickledDataWithLists: "(dp1
S'com.schriftgestaltung.Glyphs.rightMetricsKey'
p2
S'=tml_Pa'
p3
s."
EndChar

StartChar: tml_Virama
Encoding: 132 3021 132
GlifName: tml_V_irama
Width: 0
VWidth: 0
GlyphClass: 4
Flags: W
AnchorPoint: "virama" 0 0 mark 0
LayerCount: 2
Back
Fore
SplineSet
-38 680 m 256
 -38 701 -21 717 0 717 c 256
 21 717 37 701 37 680 c 256
 37 659 21 642 0 642 c 256
 -21 642 -38 659 -38 680 c 256
EndSplineSet
PickledDataWithLists: "(dp1
S'com.typemytype.robofont.guides'
p2
(lp3
(dp4
S'y'
I680
sS'x'
I0
sS'angle'
p5
I0
sS'isGlobal'
p6
I00
sas."
EndChar

StartChar: tml_Visarga
Encoding: 133 2947 133
GlifName: tml_V_isarga
Width: 762
VWidth: 0
GlyphClass: 2
Flags: HW
LayerCount: 2
Back
Fore
SplineSet
513 282 m 256
 513 360 450 423 372 423 c 256
 293 423 230 360 230 282 c 256
 230 204 293 141 372 141 c 256
 450 141 513 204 513 282 c 256
  PathStart: -2
272 284 m 256
 272 339 316 383 372 383 c 256
 426 383 470 339 470 284 c 256
 470 229 426 183 372 183 c 256
 316 183 272 229 272 284 c 256
  PathStart: -2
712 -69 m 256
 712 9 649 72 571 72 c 256
 492 72 429 9 429 -69 c 256
 429 -147 492 -210 571 -210 c 256
 649 -210 712 -147 712 -69 c 256
  PathStart: -2
471 -67 m 256
 471 -12 515 32 571 32 c 256
 625 32 669 -12 669 -67 c 256
 669 -122 625 -168 571 -168 c 256
 515 -168 471 -122 471 -67 c 256
  PathStart: -2
333 -69 m 256
 333 9 270 72 192 72 c 256
 113 72 50 9 50 -69 c 256
 50 -147 113 -210 192 -210 c 256
 270 -210 333 -147 333 -69 c 256
  PathStart: -2
92 -67 m 256
 92 -12 136 32 192 32 c 256
 246 32 290 -12 290 -67 c 256
 290 -122 246 -168 192 -168 c 256
 136 -168 92 -122 92 -67 c 256
  PathStart: -2
EndSplineSet
EndChar

StartChar: tml_YUu
Encoding: 134 -1 134
GlifName: tml_Y_U_u
Width: 833
VWidth: 0
GlyphClass: 2
Flags: HW
LayerCount: 2
Back
Fore
SplineSet
587 -136 m 257
 587 32 l 257
 629 33 l 257
 629 -136 l 257
 587 -136 l 257
167 -178 m 256
 167 -246 291 -300 445 -300 c 256
 609 -300 749 -209 749 -93 c 256
 749 -22 712 13 670 13 c 256
 631 13 629 -30 629 -47 c 257
 590 -34 l 257
 590 7 617 54 674 54 c 256
 740 54 791 -4 791 -93 c 256
 791 -228 630 -342 445 -342 c 256
 287 -342 125 -280 125 -178 c 256
 125 -110 179 -89 232 -89 c 257
 397 -89 l 257
 397 -131 l 257
 232 -131 l 257
 186 -131 167 -146 167 -178 c 256
  PathStart: -2
EndSplineSet
Refer: 135 2991 N 1 0 0 1 12 0 2
EndChar

StartChar: tml_Ya
Encoding: 135 2991 135
GlifName: tml_Y_a
Width: 680
VWidth: 0
GlyphClass: 2
Flags: HW
AnchorPoint: "MatraIi" 608 560 basechar 0
AnchorPoint: "MatraI.alt3" 589 500 basechar 0
AnchorPoint: "virama" 325 0 basechar 0
AnchorPoint: "MatraU.alt1" 588 33 basechar 0
LayerCount: 2
Back
Fore
SplineSet
192 -17 m 256
 100 -24 42 39 42 141 c 258
 42 560 l 257
 84 560 l 257
 84 179 l 258
 84 141 76 25 184 25 c 256
 256 25 302 76 302 170 c 257
 334 159 l 257
 334 32 263 -12 192 -17 c 256
315 0 m 257
 302 57 l 257
 302 560 l 257
 344 560 l 257
 344 42 l 257
 588 42 l 257
 588 560 l 257
 630 560 l 257
 630 0 l 257
 315 0 l 257
EndSplineSet
EndChar

StartChar: tml_Year
Encoding: 136 3061 136
GlifName: tml_Y_ear
Width: 1754
VWidth: 0
GlyphClass: 2
Flags: HW
LayerCount: 2
Back
Fore
SplineSet
262 237 m 256
 262 434 343 571 487 571 c 256
 601 571 695 475 695 280 c 256
 695 174 665 84 633 1 c 257
 599 34 l 257
 613 63 652 169 652 281 c 256
 652 428 591 531 489 531 c 256
 370 531 303 407 303 238 c 256
 303 151 321 22 405 22 c 256
 463 22 496 84 496 172 c 256
 496 265 459 314 406 314 c 256
 340 314 303 236 310 148 c 257
 276 168 l 257
 277 290 339 354 409 354 c 256
 476 354 536 291 536 171 c 256
 536 59 484 -20 403 -20 c 256
 310 -20 262 86 262 237 c 256
  PathStart: -2
599 34 m 257
 648 43 l 257
 847 43 l 257
 847 559 l 257
 889 559 l 257
 889 1 l 257
 599 1 l 257
 599 34 l 257
1095 0 m 257
 1098 518 l 257
 847 518 l 257
 847 560 l 257
 1276 560 l 257
 1276 518 l 257
 1143 518 l 257
 1140 0 l 257
 1095 0 l 257
777 -342 m 256
 381 -342 42 -138 42 247 c 256
 42 630 361 850 801 850 c 256
 1156 850 1516 672 1511 394 c 256
 1510 342 1527 293 1591 293 c 256
 1642 293 1670 332 1670 385 c 258
 1670 560 l 257
 1712 560 l 257
 1712 381 l 258
 1712 306 1671 249 1591 251 c 256
 1504 253 1469 323 1469 394 c 256
 1469 661 1111 808 801 808 c 256
 367 808 84 596 84 247 c 256
 84 -100 387 -300 777 -300 c 256
 1100 -300 1335 -159 1335 107 c 256
 1335 252 1272 299 1221 299 c 256
 1164 299 1141 243 1141 204 c 257
 1117 222 l 257
 1117 293 1166 339 1223 339 c 256
 1324 339 1377 235 1377 107 c 256
 1377 -146 1185 -342 777 -342 c 256
EndSplineSet
EndChar

StartChar: tml_Zero
Encoding: 137 3046 137
GlifName: tml_Z_ero
Width: 498
VWidth: 0
GlyphClass: 2
Flags: HW
LayerCount: 2
Back
Fore
SplineSet
246 -5 m 256
 379 -5 456 95 456 203 c 256
 456 314 374 409 249 409 c 256
 134 409 42 328 42 199 c 256
 42 72 130 -5 246 -5 c 256
251 37 m 256
 150 37 84 106 84 199 c 256
 84 281 132 367 252 367 c 256
 350 367 414 284 414 203 c 256
 414 123 346 37 251 37 c 256
EndSplineSet
EndChar
